<ttFont>
    <TTGlyph name=".notdef" xMin="68" yMin="0" xMax="612" yMax="1365">
      <contour>
        <pt x="68" y="0" on="1"/>
        <pt x="68" y="1365" on="1"/>
        <pt x="612" y="1365" on="1"/>
        <pt x="612" y="0" on="1"/>
      </contour>
      <contour>
        <pt x="136" y="68" on="1"/>
        <pt x="544" y="68" on="1"/>
        <pt x="544" y="1297" on="1"/>
        <pt x="136" y="1297" on="1"/>
      </contour>
    </TTGlyph>
    <TTGlyph name="A" xMin="130" yMin="0" xMax="1531" yMax="1421">
      <contour>
        <pt x="1100" y="1421" on="1"/>
        <pt x="1376" y="1421" on="1"/>
        <pt x="1531" y="0" on="1"/>
        <pt x="1272" y="0" on="1"/>
        <pt x="1220" y="372" on="1"/>
        <pt x="640" y="372" on="1"/>
        <pt x="374" y="0" on="1"/>
        <pt x="130" y="0" on="1"/>
      </contour>
      <contour>
        <pt x="1198" y="603" on="1"/>
        <pt x="1147" y="1130" on="1"/>
        <pt x="793" y="603" on="1"/>
      </contour>
    </TTGlyph>
    <TTGlyph name="AE" xMin="130" yMin="0" xMax="2345" yMax="1421">
      <contour>
        <pt x="1246" y="1189" on="1"/>
        <pt x="820" y="603" on="1"/>
        <pt x="1200" y="603" on="1"/>
        <pt x="1368" y="1189" on="1"/>
      </contour>
      <contour>
        <pt x="1147" y="1421" on="1"/>
        <pt x="2345" y="1421" on="1"/>
        <pt x="2279" y="1189" on="1"/>
        <pt x="1636" y="1189" on="1"/>
        <pt x="1538" y="848" on="1"/>
        <pt x="2126" y="848" on="1"/>
        <pt x="2060" y="616" on="1"/>
        <pt x="1472" y="616" on="1"/>
        <pt x="1362" y="232" on="1"/>
        <pt x="2005" y="232" on="1"/>
        <pt x="1938" y="0" on="1"/>
        <pt x="1027" y="0" on="1"/>
        <pt x="1134" y="373" on="1"/>
        <pt x="658" y="373" on="1"/>
        <pt x="380" y="0" on="1"/>
        <pt x="130" y="0" on="1"/>
      </contour>
    </TTGlyph>
    <TTGlyph name="Aacute" xMin="130" yMin="0" xMax="1695" yMax="1945">
      <contour>
        <pt x="1100" y="1421" on="1"/>
        <pt x="1376" y="1421" on="1"/>
        <pt x="1531" y="0" on="1"/>
        <pt x="1272" y="0" on="1"/>
        <pt x="1220" y="372" on="1"/>
        <pt x="640" y="372" on="1"/>
        <pt x="374" y="0" on="1"/>
        <pt x="130" y="0" on="1"/>
      </contour>
      <contour>
        <pt x="1198" y="603" on="1"/>
        <pt x="1147" y="1130" on="1"/>
        <pt x="793" y="603" on="1"/>
      </contour>
      <contour>
        <pt x="1628" y="1945" on="1"/>
        <pt x="1695" y="1750" on="1"/>
        <pt x="956" y="1414" on="1"/>
        <pt x="895" y="1592" on="1"/>
      </contour>
    </TTGlyph>
    <TTGlyph name="Abreve" xMin="130" yMin="0" xMax="1850" yMax="1897">
      <contour>
        <pt x="879" y="1794" on="1"/>
        <pt x="1121" y="1897" on="1"/>
        <pt x="1130" y="1859" on="1"/>
        <pt x="1135" y="1838" on="0"/>
        <pt x="1154" y="1796" on="0"/>
        <pt x="1195" y="1734" on="0"/>
        <pt x="1271" y="1695" on="0"/>
        <pt x="1320" y="1695" on="1"/>
        <pt x="1398" y="1695" on="0"/>
        <pt x="1581" y="1797" on="0"/>
        <pt x="1658" y="1866" on="1"/>
        <pt x="1693" y="1897" on="1"/>
        <pt x="1850" y="1774" on="1"/>
        <pt x="1814" y="1739" on="1"/>
        <pt x="1691" y="1626" on="0"/>
        <pt x="1382" y="1475" on="0"/>
        <pt x="1239" y="1475" on="1"/>
        <pt x="1156" y="1475" on="0"/>
        <pt x="1022" y="1525" on="0"/>
        <pt x="938" y="1608" on="0"/>
        <pt x="889" y="1707" on="0"/>
        <pt x="883" y="1761" on="1"/>
      </contour>
      <contour>
        <pt x="1198" y="603" on="1"/>
        <pt x="1147" y="1130" on="1"/>
        <pt x="793" y="603" on="1"/>
      </contour>
      <contour>
        <pt x="1100" y="1421" on="1"/>
        <pt x="1376" y="1421" on="1"/>
        <pt x="1531" y="0" on="1"/>
        <pt x="1272" y="0" on="1"/>
        <pt x="1220" y="372" on="1"/>
        <pt x="640" y="372" on="1"/>
        <pt x="374" y="0" on="1"/>
        <pt x="130" y="0" on="1"/>
      </contour>
    </TTGlyph>
    <TTGlyph name="Acircumflex" xMin="130" yMin="0" xMax="1654" yMax="1943">
      <contour>
        <pt x="1100" y="1421" on="1"/>
        <pt x="1376" y="1421" on="1"/>
        <pt x="1531" y="0" on="1"/>
        <pt x="1272" y="0" on="1"/>
        <pt x="1220" y="372" on="1"/>
        <pt x="640" y="372" on="1"/>
        <pt x="374" y="0" on="1"/>
        <pt x="130" y="0" on="1"/>
      </contour>
      <contour>
        <pt x="1198" y="603" on="1"/>
        <pt x="1147" y="1130" on="1"/>
        <pt x="793" y="603" on="1"/>
      </contour>
      <contour>
        <pt x="1411" y="1943" on="1"/>
        <pt x="1654" y="1595" on="1"/>
        <pt x="1446" y="1450" on="1"/>
        <pt x="1309" y="1644" on="1"/>
        <pt x="1059" y="1453" on="1"/>
        <pt x="932" y="1586" on="1"/>
      </contour>
    </TTGlyph>
    <TTGlyph name="Adieresis" xMin="130" yMin="0" xMax="1770" yMax="1897">
      <contour>
        <pt x="1100" y="1421" on="1"/>
        <pt x="1376" y="1421" on="1"/>
        <pt x="1531" y="0" on="1"/>
        <pt x="1272" y="0" on="1"/>
        <pt x="1220" y="372" on="1"/>
        <pt x="640" y="372" on="1"/>
        <pt x="374" y="0" on="1"/>
        <pt x="130" y="0" on="1"/>
      </contour>
      <contour>
        <pt x="1198" y="603" on="1"/>
        <pt x="1147" y="1130" on="1"/>
        <pt x="793" y="603" on="1"/>
      </contour>
      <contour>
        <pt x="983" y="1897" on="1"/>
        <pt x="1277" y="1897" on="1"/>
        <pt x="1200" y="1630" on="1"/>
        <pt x="906" y="1630" on="1"/>
      </contour>
      <contour>
        <pt x="1476" y="1897" on="1"/>
        <pt x="1770" y="1897" on="1"/>
        <pt x="1693" y="1630" on="1"/>
        <pt x="1399" y="1630" on="1"/>
      </contour>
    </TTGlyph>
    <TTGlyph name="Agrave" xMin="130" yMin="0" xMax="1677" yMax="1945">
      <contour>
        <pt x="1100" y="1421" on="1"/>
        <pt x="1376" y="1421" on="1"/>
        <pt x="1531" y="0" on="1"/>
        <pt x="1272" y="0" on="1"/>
        <pt x="1220" y="372" on="1"/>
        <pt x="640" y="372" on="1"/>
        <pt x="374" y="0" on="1"/>
        <pt x="130" y="0" on="1"/>
      </contour>
      <contour>
        <pt x="1198" y="603" on="1"/>
        <pt x="1147" y="1130" on="1"/>
        <pt x="793" y="603" on="1"/>
      </contour>
      <contour>
        <pt x="1147" y="1945" on="1"/>
        <pt x="1677" y="1592" on="1"/>
        <pt x="1513" y="1414" on="1"/>
        <pt x="969" y="1750" on="1"/>
      </contour>
    </TTGlyph>
    <TTGlyph name="Amacron" xMin="130" yMin="0" xMax="1772" yMax="1697">
      <contour>
        <pt x="1100" y="1421" on="1"/>
        <pt x="1376" y="1421" on="1"/>
        <pt x="1531" y="0" on="1"/>
        <pt x="1272" y="0" on="1"/>
        <pt x="1220" y="372" on="1"/>
        <pt x="640" y="372" on="1"/>
        <pt x="374" y="0" on="1"/>
        <pt x="130" y="0" on="1"/>
      </contour>
      <contour>
        <pt x="1198" y="603" on="1"/>
        <pt x="1147" y="1130" on="1"/>
        <pt x="793" y="603" on="1"/>
      </contour>
      <contour>
        <pt x="869" y="1697" on="1"/>
        <pt x="1772" y="1697" on="1"/>
        <pt x="1711" y="1486" on="1"/>
        <pt x="808" y="1486" on="1"/>
      </contour>
    </TTGlyph>
    <TTGlyph name="Aogonek" xMin="130" yMin="-544" xMax="1613" yMax="1421">
      <contour>
        <pt x="130" y="0" on="1"/>
        <pt x="1153" y="1421" on="1"/>
        <pt x="1404" y="1421" on="1"/>
        <pt x="1613" y="0" on="1"/>
        <pt x="1555" y="0" on="1"/>
        <pt x="1480" y="-2" on="0"/>
        <pt x="1347" y="-33" on="0"/>
        <pt x="1256" y="-75" on="0"/>
        <pt x="1176" y="-135" on="0"/>
        <pt x="1131" y="-182" on="0"/>
        <pt x="1093" y="-237" on="0"/>
        <pt x="1084" y="-256" on="0"/>
        <pt x="1080" y="-264" on="1"/>
        <pt x="1077" y="-273" on="0"/>
        <pt x="1077" y="-283" on="1"/>
        <pt x="1077" y="-328" on="0"/>
        <pt x="1138" y="-328" on="1"/>
        <pt x="1216" y="-328" on="0"/>
        <pt x="1320" y="-276" on="1"/>
        <pt x="1363" y="-254" on="1"/>
        <pt x="1403" y="-413" on="1"/>
        <pt x="1368" y="-434" on="1"/>
        <pt x="1301" y="-475" on="0"/>
        <pt x="1114" y="-544" on="0"/>
        <pt x="1021" y="-544" on="1"/>
        <pt x="915" y="-544" on="0"/>
        <pt x="789" y="-445" on="0"/>
        <pt x="789" y="-363" on="1"/>
        <pt x="789" y="-333" on="0"/>
        <pt x="798" y="-300" on="1"/>
        <pt x="833" y="-179" on="0"/>
        <pt x="1149" y="63" on="0"/>
        <pt x="1326" y="118" on="1"/>
        <pt x="1286" y="372" on="1"/>
        <pt x="654" y="372" on="1"/>
        <pt x="374" y="0" on="1"/>
      </contour>
      <contour>
        <pt x="1255" y="603" on="1"/>
        <pt x="1188" y="1130" on="1"/>
        <pt x="815" y="603" on="1"/>
      </contour>
    </TTGlyph>
    <TTGlyph name="Aring" xMin="130" yMin="0" xMax="1631" yMax="1873">
      <contour>
        <pt x="1370" y="1873" on="1"/>
        <pt x="1493" y="1873" on="0"/>
        <pt x="1631" y="1743" on="0"/>
        <pt x="1631" y="1647" on="1"/>
        <pt x="1631" y="1558" on="0"/>
        <pt x="1508" y="1387" on="0"/>
        <pt x="1391" y="1335" on="1"/>
        <pt x="1531" y="0" on="1"/>
        <pt x="1272" y="0" on="1"/>
        <pt x="1220" y="372" on="1"/>
        <pt x="640" y="372" on="1"/>
        <pt x="374" y="0" on="1"/>
        <pt x="130" y="0" on="1"/>
        <pt x="1038" y="1337" on="1"/>
        <pt x="940" y="1399" on="0"/>
        <pt x="940" y="1507" on="1"/>
        <pt x="940" y="1569" on="0"/>
        <pt x="1009" y="1700" on="0"/>
        <pt x="1123" y="1806" on="0"/>
        <pt x="1285" y="1873" on="0"/>
      </contour>
      <contour>
        <pt x="1319" y="1687" on="1"/>
        <pt x="1249" y="1687" on="0"/>
        <pt x="1157" y="1597" on="0"/>
        <pt x="1157" y="1545" on="1"/>
        <pt x="1157" y="1510" on="0"/>
        <pt x="1206" y="1465" on="0"/>
        <pt x="1255" y="1465" on="1"/>
        <pt x="1307" y="1465" on="0"/>
        <pt x="1396" y="1532" on="0"/>
        <pt x="1409" y="1577" on="1"/>
        <pt x="1413" y="1589" on="0"/>
        <pt x="1413" y="1604" on="1"/>
        <pt x="1413" y="1640" on="0"/>
        <pt x="1363" y="1687" on="0"/>
      </contour>
      <contour>
        <pt x="1198" y="603" on="1"/>
        <pt x="1147" y="1130" on="1"/>
        <pt x="793" y="603" on="1"/>
      </contour>
    </TTGlyph>
    <TTGlyph name="Atilde" xMin="130" yMin="0" xMax="1837" yMax="1884">
      <contour>
        <pt x="1640" y="1884" on="1"/>
        <pt x="1837" y="1854" on="1"/>
        <pt x="1816" y="1812" on="1"/>
        <pt x="1812" y="1804" on="0"/>
        <pt x="1804" y="1787" on="1"/>
        <pt x="1787" y="1752" on="0"/>
        <pt x="1768" y="1713" on="0"/>
        <pt x="1727" y="1642" on="0"/>
        <pt x="1692" y="1599" on="0"/>
        <pt x="1636" y="1544" on="0"/>
        <pt x="1580" y="1514" on="0"/>
        <pt x="1503" y="1492" on="0"/>
        <pt x="1461" y="1492" on="1"/>
        <pt x="1405" y="1494" on="0"/>
        <pt x="1313" y="1533" on="0"/>
        <pt x="1257" y="1586" on="0"/>
        <pt x="1214" y="1638" on="0"/>
        <pt x="1178" y="1674" on="0"/>
        <pt x="1163" y="1674" on="1"/>
        <pt x="1150" y="1674" on="0"/>
        <pt x="1125" y="1655" on="0"/>
        <pt x="1096" y="1609" on="0"/>
        <pt x="1080" y="1580" on="0"/>
        <pt x="1063" y="1545" on="1"/>
        <pt x="1056" y="1532" on="0"/>
        <pt x="1053" y="1525" on="1"/>
        <pt x="1034" y="1487" on="1"/>
        <pt x="834" y="1513" on="1"/>
        <pt x="855" y="1556" on="1"/>
        <pt x="859" y="1563" on="0"/>
        <pt x="887" y="1621" on="0"/>
        <pt x="900" y="1646" on="0"/>
        <pt x="932" y="1703" on="0"/>
        <pt x="954" y="1733" on="0"/>
        <pt x="993" y="1783" on="0"/>
        <pt x="1026" y="1810" on="0"/>
        <pt x="1074" y="1845" on="0"/>
        <pt x="1122" y="1863" on="0"/>
        <pt x="1182" y="1876" on="0"/>
        <pt x="1214" y="1876" on="1"/>
        <pt x="1270" y="1874" on="0"/>
        <pt x="1362" y="1835" on="0"/>
        <pt x="1418" y="1782" on="0"/>
        <pt x="1461" y="1731" on="0"/>
        <pt x="1497" y="1695" on="0"/>
        <pt x="1512" y="1695" on="1"/>
        <pt x="1520" y="1695" on="0"/>
        <pt x="1536" y="1702" on="0"/>
        <pt x="1552" y="1721" on="0"/>
        <pt x="1564" y="1737" on="0"/>
        <pt x="1582" y="1770" on="0"/>
        <pt x="1593" y="1790" on="0"/>
        <pt x="1615" y="1834" on="0"/>
        <pt x="1620" y="1845" on="1"/>
      </contour>
      <contour>
        <pt x="1198" y="603" on="1"/>
        <pt x="1147" y="1130" on="1"/>
        <pt x="793" y="603" on="1"/>
      </contour>
      <contour>
        <pt x="1100" y="1421" on="1"/>
        <pt x="1376" y="1421" on="1"/>
        <pt x="1531" y="0" on="1"/>
        <pt x="1272" y="0" on="1"/>
        <pt x="1220" y="372" on="1"/>
        <pt x="640" y="372" on="1"/>
        <pt x="374" y="0" on="1"/>
        <pt x="130" y="0" on="1"/>
      </contour>
    </TTGlyph>
    <TTGlyph name="B" xMin="290" yMin="0" xMax="1663" yMax="1421">
      <contour>
        <pt x="1122" y="1209" on="1"/>
        <pt x="889" y="1209" on="1"/>
        <pt x="776" y="815" on="1"/>
        <pt x="995" y="820" on="0"/>
        <pt x="1087" y="836" on="1"/>
        <pt x="1319" y="877" on="0"/>
        <pt x="1363" y="1030" on="1"/>
        <pt x="1370" y="1056" on="0"/>
        <pt x="1370" y="1077" on="1"/>
        <pt x="1370" y="1209" on="0"/>
      </contour>
      <contour>
        <pt x="979" y="655" on="1"/>
        <pt x="971" y="655" on="0"/>
        <pt x="727" y="644" on="1"/>
        <pt x="609" y="232" on="1"/>
        <pt x="833" y="232" on="1"/>
        <pt x="873" y="232" on="0"/>
        <pt x="930" y="233" on="0"/>
        <pt x="1033" y="241" on="0"/>
        <pt x="1109" y="256" on="0"/>
        <pt x="1202" y="286" on="0"/>
        <pt x="1268" y="328" on="0"/>
        <pt x="1323" y="393" on="0"/>
        <pt x="1335" y="434" on="1"/>
        <pt x="1342" y="456" on="0"/>
        <pt x="1342" y="479" on="1"/>
        <pt x="1342" y="562" on="0"/>
        <pt x="1150" y="655" on="0"/>
      </contour>
      <contour>
        <pt x="697" y="1421" on="1"/>
        <pt x="1239" y="1421" on="1"/>
        <pt x="1339" y="1421" on="0"/>
        <pt x="1493" y="1387" on="0"/>
        <pt x="1584" y="1334" on="0"/>
        <pt x="1642" y="1260" on="0"/>
        <pt x="1663" y="1188" on="0"/>
        <pt x="1663" y="1148" on="1"/>
        <pt x="1663" y="1105" on="0"/>
        <pt x="1650" y="1059" on="1"/>
        <pt x="1631" y="991" on="0"/>
        <pt x="1516" y="851" on="0"/>
        <pt x="1446" y="803" on="1"/>
        <pt x="1522" y="768" on="0"/>
        <pt x="1606" y="632" on="0"/>
        <pt x="1606" y="547" on="1"/>
        <pt x="1606" y="498" on="0"/>
        <pt x="1591" y="446" on="1"/>
        <pt x="1582" y="413" on="0"/>
        <pt x="1549" y="344" on="0"/>
        <pt x="1485" y="254" on="0"/>
        <pt x="1401" y="173" on="0"/>
        <pt x="1273" y="93" on="0"/>
        <pt x="1122" y="36" on="0"/>
        <pt x="912" y="0" on="0"/>
        <pt x="793" y="0" on="1"/>
        <pt x="290" y="0" on="1"/>
      </contour>
    </TTGlyph>
    <TTGlyph name="C" xMin="445" yMin="-20" xMax="1930" yMax="1431">
      <contour>
        <pt x="1495" y="1431" on="1"/>
        <pt x="1720" y="1431" on="0"/>
        <pt x="1898" y="1352" on="1"/>
        <pt x="1930" y="1337" on="1"/>
        <pt x="1789" y="1121" on="1"/>
        <pt x="1755" y="1134" on="1"/>
        <pt x="1580" y="1199" on="0"/>
        <pt x="1423" y="1199" on="1"/>
        <pt x="1299" y="1199" on="0"/>
        <pt x="1065" y="1118" on="0"/>
        <pt x="887" y="982" on="0"/>
        <pt x="759" y="806" on="0"/>
        <pt x="732" y="710" on="1"/>
        <pt x="713" y="642" on="0"/>
        <pt x="713" y="584" on="1"/>
        <pt x="713" y="423" on="0"/>
        <pt x="959" y="218" on="0"/>
        <pt x="1183" y="218" on="1"/>
        <pt x="1347" y="218" on="0"/>
        <pt x="1527" y="276" on="1"/>
        <pt x="1568" y="289" on="1"/>
        <pt x="1593" y="89" on="1"/>
        <pt x="1551" y="73" on="1"/>
        <pt x="1308" y="-20" on="0"/>
        <pt x="1066" y="-20" on="1"/>
        <pt x="764" y="-20" on="0"/>
        <pt x="445" y="261" on="0"/>
        <pt x="445" y="492" on="1"/>
        <pt x="445" y="596" on="0"/>
        <pt x="478" y="709" on="1"/>
        <pt x="522" y="863" on="0"/>
        <pt x="708" y="1127" on="0"/>
        <pt x="968" y="1321" on="0"/>
        <pt x="1307" y="1431" on="0"/>
      </contour>
    </TTGlyph>
    <TTGlyph name="Cacute" xMin="445" yMin="-20" xMax="1930" yMax="1992">
      <contour>
        <pt x="1769" y="1992" on="1"/>
        <pt x="1837" y="1797" on="1"/>
        <pt x="1091" y="1461" on="1"/>
        <pt x="1029" y="1639" on="1"/>
      </contour>
      <contour>
        <pt x="478" y="709" on="1"/>
        <pt x="522" y="863" on="0"/>
        <pt x="708" y="1127" on="0"/>
        <pt x="968" y="1321" on="0"/>
        <pt x="1307" y="1431" on="0"/>
        <pt x="1495" y="1431" on="1"/>
        <pt x="1720" y="1431" on="0"/>
        <pt x="1898" y="1352" on="1"/>
        <pt x="1930" y="1337" on="1"/>
        <pt x="1789" y="1121" on="1"/>
        <pt x="1755" y="1134" on="1"/>
        <pt x="1580" y="1199" on="0"/>
        <pt x="1423" y="1199" on="1"/>
        <pt x="1299" y="1199" on="0"/>
        <pt x="1065" y="1118" on="0"/>
        <pt x="887" y="982" on="0"/>
        <pt x="759" y="806" on="0"/>
        <pt x="732" y="710" on="1"/>
        <pt x="713" y="642" on="0"/>
        <pt x="713" y="584" on="1"/>
        <pt x="713" y="423" on="0"/>
        <pt x="959" y="218" on="0"/>
        <pt x="1183" y="218" on="1"/>
        <pt x="1347" y="218" on="0"/>
        <pt x="1527" y="276" on="1"/>
        <pt x="1568" y="289" on="1"/>
        <pt x="1593" y="89" on="1"/>
        <pt x="1551" y="73" on="1"/>
        <pt x="1308" y="-20" on="0"/>
        <pt x="1066" y="-20" on="1"/>
        <pt x="764" y="-20" on="0"/>
        <pt x="445" y="261" on="0"/>
        <pt x="445" y="492" on="1"/>
        <pt x="445" y="596" on="0"/>
      </contour>
    </TTGlyph>
    <TTGlyph name="Ccaron" xMin="445" yMin="-20" xMax="1930" yMax="1950">
      <contour>
        <pt x="478" y="709" on="1"/>
        <pt x="522" y="863" on="0"/>
        <pt x="708" y="1127" on="0"/>
        <pt x="968" y="1321" on="0"/>
        <pt x="1307" y="1431" on="0"/>
        <pt x="1495" y="1431" on="1"/>
        <pt x="1720" y="1431" on="0"/>
        <pt x="1898" y="1352" on="1"/>
        <pt x="1930" y="1337" on="1"/>
        <pt x="1789" y="1121" on="1"/>
        <pt x="1755" y="1134" on="1"/>
        <pt x="1580" y="1199" on="0"/>
        <pt x="1423" y="1199" on="1"/>
        <pt x="1299" y="1199" on="0"/>
        <pt x="1065" y="1118" on="0"/>
        <pt x="887" y="982" on="0"/>
        <pt x="759" y="806" on="0"/>
        <pt x="732" y="710" on="1"/>
        <pt x="713" y="642" on="0"/>
        <pt x="713" y="584" on="1"/>
        <pt x="713" y="423" on="0"/>
        <pt x="959" y="218" on="0"/>
        <pt x="1183" y="218" on="1"/>
        <pt x="1347" y="218" on="0"/>
        <pt x="1527" y="276" on="1"/>
        <pt x="1568" y="289" on="1"/>
        <pt x="1593" y="89" on="1"/>
        <pt x="1551" y="73" on="1"/>
        <pt x="1308" y="-20" on="0"/>
        <pt x="1066" y="-20" on="1"/>
        <pt x="764" y="-20" on="0"/>
        <pt x="445" y="261" on="0"/>
        <pt x="445" y="492" on="1"/>
        <pt x="445" y="596" on="0"/>
      </contour>
      <contour>
        <pt x="1395" y="1457" on="1"/>
        <pt x="1147" y="1805" on="1"/>
        <pt x="1358" y="1950" on="1"/>
        <pt x="1497" y="1756" on="1"/>
        <pt x="1749" y="1947" on="1"/>
        <pt x="1874" y="1814" on="1"/>
      </contour>
    </TTGlyph>
    <TTGlyph name="Ccedilla" xMin="447" yMin="-506" xMax="1930" yMax="1431">
      <contour>
        <pt x="892" y="-317" on="1"/>
        <pt x="950" y="-317" on="0"/>
        <pt x="959" y="-286" on="1"/>
        <pt x="960" y="-284" on="0"/>
        <pt x="960" y="-281" on="1"/>
        <pt x="960" y="-260" on="0"/>
        <pt x="886" y="-236" on="1"/>
        <pt x="868" y="-230" on="0"/>
        <pt x="757" y="-199" on="1"/>
        <pt x="717" y="-188" on="1"/>
        <pt x="834" y="9" on="1"/>
        <pt x="643" y="58" on="0"/>
        <pt x="447" y="313" on="0"/>
        <pt x="447" y="493" on="1"/>
        <pt x="447" y="601" on="0"/>
        <pt x="479" y="710" on="1"/>
        <pt x="523" y="864" on="0"/>
        <pt x="711" y="1128" on="0"/>
        <pt x="972" y="1321" on="0"/>
        <pt x="1311" y="1431" on="0"/>
        <pt x="1497" y="1431" on="1"/>
        <pt x="1720" y="1431" on="0"/>
        <pt x="1898" y="1352" on="1"/>
        <pt x="1930" y="1337" on="1"/>
        <pt x="1789" y="1121" on="1"/>
        <pt x="1755" y="1134" on="1"/>
        <pt x="1581" y="1199" on="0"/>
        <pt x="1426" y="1199" on="1"/>
        <pt x="1303" y="1199" on="0"/>
        <pt x="1071" y="1118" on="0"/>
        <pt x="894" y="982" on="0"/>
        <pt x="766" y="806" on="0"/>
        <pt x="739" y="710" on="1"/>
        <pt x="720" y="642" on="0"/>
        <pt x="720" y="584" on="1"/>
        <pt x="720" y="423" on="0"/>
        <pt x="964" y="218" on="0"/>
        <pt x="1185" y="218" on="1"/>
        <pt x="1347" y="218" on="0"/>
        <pt x="1527" y="276" on="1"/>
        <pt x="1568" y="289" on="1"/>
        <pt x="1593" y="89" on="1"/>
        <pt x="1551" y="73" on="1"/>
        <pt x="1314" y="-18" on="0"/>
        <pt x="1073" y="-20" on="1"/>
        <pt x="1048" y="-66" on="1"/>
        <pt x="1186" y="-113" on="0"/>
        <pt x="1186" y="-225" on="1"/>
        <pt x="1186" y="-327" on="0"/>
        <pt x="973" y="-506" on="0"/>
        <pt x="832" y="-506" on="1"/>
        <pt x="787" y="-506" on="0"/>
        <pt x="704" y="-489" on="0"/>
        <pt x="572" y="-451" on="1"/>
        <pt x="532" y="-440" on="1"/>
        <pt x="643" y="-257" on="1"/>
        <pt x="683" y="-269" on="1"/>
        <pt x="842" y="-317" on="0"/>
      </contour>
    </TTGlyph>
    <TTGlyph name="Ccircumflex" xMin="445" yMin="-20" xMax="1930" yMax="1951">
      <contour>
        <pt x="478" y="709" on="1"/>
        <pt x="522" y="863" on="0"/>
        <pt x="708" y="1127" on="0"/>
        <pt x="968" y="1321" on="0"/>
        <pt x="1307" y="1431" on="0"/>
        <pt x="1495" y="1431" on="1"/>
        <pt x="1720" y="1431" on="0"/>
        <pt x="1898" y="1352" on="1"/>
        <pt x="1930" y="1337" on="1"/>
        <pt x="1789" y="1121" on="1"/>
        <pt x="1755" y="1134" on="1"/>
        <pt x="1580" y="1199" on="0"/>
        <pt x="1423" y="1199" on="1"/>
        <pt x="1299" y="1199" on="0"/>
        <pt x="1065" y="1118" on="0"/>
        <pt x="887" y="982" on="0"/>
        <pt x="759" y="806" on="0"/>
        <pt x="732" y="710" on="1"/>
        <pt x="713" y="642" on="0"/>
        <pt x="713" y="584" on="1"/>
        <pt x="713" y="423" on="0"/>
        <pt x="959" y="218" on="0"/>
        <pt x="1183" y="218" on="1"/>
        <pt x="1347" y="218" on="0"/>
        <pt x="1527" y="276" on="1"/>
        <pt x="1568" y="289" on="1"/>
        <pt x="1593" y="89" on="1"/>
        <pt x="1551" y="73" on="1"/>
        <pt x="1308" y="-20" on="0"/>
        <pt x="1066" y="-20" on="1"/>
        <pt x="764" y="-20" on="0"/>
        <pt x="445" y="261" on="0"/>
        <pt x="445" y="492" on="1"/>
        <pt x="445" y="596" on="0"/>
      </contour>
      <contour>
        <pt x="1539" y="1951" on="1"/>
        <pt x="1788" y="1603" on="1"/>
        <pt x="1576" y="1458" on="1"/>
        <pt x="1438" y="1652" on="1"/>
        <pt x="1185" y="1461" on="1"/>
        <pt x="1056" y="1594" on="1"/>
      </contour>
    </TTGlyph>
    <TTGlyph name="Cdotaccent" xMin="445" yMin="-20" xMax="1930" yMax="1829">
      <contour>
        <pt x="1305" y="1829" on="1"/>
        <pt x="1630" y="1829" on="1"/>
        <pt x="1547" y="1537" on="1"/>
        <pt x="1222" y="1537" on="1"/>
      </contour>
      <contour>
        <pt x="478" y="709" on="1"/>
        <pt x="522" y="863" on="0"/>
        <pt x="708" y="1127" on="0"/>
        <pt x="968" y="1321" on="0"/>
        <pt x="1307" y="1431" on="0"/>
        <pt x="1495" y="1431" on="1"/>
        <pt x="1720" y="1431" on="0"/>
        <pt x="1898" y="1352" on="1"/>
        <pt x="1930" y="1337" on="1"/>
        <pt x="1789" y="1121" on="1"/>
        <pt x="1755" y="1134" on="1"/>
        <pt x="1580" y="1199" on="0"/>
        <pt x="1423" y="1199" on="1"/>
        <pt x="1299" y="1199" on="0"/>
        <pt x="1065" y="1118" on="0"/>
        <pt x="887" y="982" on="0"/>
        <pt x="759" y="806" on="0"/>
        <pt x="732" y="710" on="1"/>
        <pt x="713" y="642" on="0"/>
        <pt x="713" y="584" on="1"/>
        <pt x="713" y="423" on="0"/>
        <pt x="959" y="218" on="0"/>
        <pt x="1183" y="218" on="1"/>
        <pt x="1347" y="218" on="0"/>
        <pt x="1527" y="276" on="1"/>
        <pt x="1568" y="289" on="1"/>
        <pt x="1593" y="89" on="1"/>
        <pt x="1551" y="73" on="1"/>
        <pt x="1308" y="-20" on="0"/>
        <pt x="1066" y="-20" on="1"/>
        <pt x="764" y="-20" on="0"/>
        <pt x="445" y="261" on="0"/>
        <pt x="445" y="492" on="1"/>
        <pt x="445" y="596" on="0"/>
      </contour>
    </TTGlyph>
    <TTGlyph name="D" xMin="298" yMin="0" xMax="1859" yMax="1421">
      <contour>
        <pt x="1150" y="1189" on="1"/>
        <pt x="891" y="1189" on="1"/>
        <pt x="617" y="232" on="1"/>
        <pt x="800" y="232" on="1"/>
        <pt x="869" y="232" on="0"/>
        <pt x="961" y="236" on="0"/>
        <pt x="1112" y="260" on="0"/>
        <pt x="1228" y="303" on="0"/>
        <pt x="1364" y="390" on="0"/>
        <pt x="1419" y="452" on="1"/>
        <pt x="1520" y="567" on="0"/>
        <pt x="1563" y="719" on="1"/>
        <pt x="1585" y="798" on="0"/>
        <pt x="1585" y="864" on="1"/>
        <pt x="1585" y="937" on="0"/>
        <pt x="1534" y="1054" on="0"/>
        <pt x="1447" y="1128" on="0"/>
        <pt x="1345" y="1173" on="0"/>
        <pt x="1286" y="1182" on="1"/>
        <pt x="1238" y="1189" on="0"/>
      </contour>
      <contour>
        <pt x="1209" y="1421" on="1"/>
        <pt x="1355" y="1421" on="0"/>
        <pt x="1582" y="1372" on="0"/>
        <pt x="1727" y="1289" on="0"/>
        <pt x="1821" y="1170" on="0"/>
        <pt x="1859" y="1040" on="0"/>
        <pt x="1859" y="964" on="1"/>
        <pt x="1859" y="868" on="0"/>
        <pt x="1826" y="752" on="1"/>
        <pt x="1800" y="660" on="0"/>
        <pt x="1721" y="489" on="0"/>
        <pt x="1593" y="312" on="0"/>
        <pt x="1434" y="171" on="0"/>
        <pt x="1211" y="58" on="0"/>
        <pt x="1080" y="31" on="1"/>
        <pt x="1013" y="17" on="0"/>
        <pt x="855" y="2" on="0"/>
        <pt x="755" y="0" on="0"/>
        <pt x="666" y="0" on="1"/>
        <pt x="298" y="0" on="1"/>
        <pt x="705" y="1421" on="1"/>
      </contour>
    </TTGlyph>
    <TTGlyph name="Dcaron" xMin="290" yMin="0" xMax="1851" yMax="1951">
      <contour>
        <pt x="1309" y="1458" on="1"/>
        <pt x="1097" y="1806" on="1"/>
        <pt x="1290" y="1951" on="1"/>
        <pt x="1410" y="1757" on="1"/>
        <pt x="1642" y="1948" on="1"/>
        <pt x="1754" y="1818" on="1"/>
      </contour>
      <contour>
        <pt x="1142" y="1189" on="1"/>
        <pt x="883" y="1189" on="1"/>
        <pt x="609" y="232" on="1"/>
        <pt x="792" y="232" on="1"/>
        <pt x="861" y="232" on="0"/>
        <pt x="953" y="236" on="0"/>
        <pt x="1104" y="260" on="0"/>
        <pt x="1220" y="303" on="0"/>
        <pt x="1356" y="390" on="0"/>
        <pt x="1411" y="452" on="1"/>
        <pt x="1512" y="567" on="0"/>
        <pt x="1555" y="719" on="1"/>
        <pt x="1577" y="798" on="0"/>
        <pt x="1577" y="864" on="1"/>
        <pt x="1577" y="937" on="0"/>
        <pt x="1526" y="1054" on="0"/>
        <pt x="1439" y="1128" on="0"/>
        <pt x="1337" y="1173" on="0"/>
        <pt x="1278" y="1182" on="1"/>
        <pt x="1230" y="1189" on="0"/>
      </contour>
      <contour>
        <pt x="1201" y="1421" on="1"/>
        <pt x="1347" y="1421" on="0"/>
        <pt x="1574" y="1372" on="0"/>
        <pt x="1719" y="1289" on="0"/>
        <pt x="1813" y="1170" on="0"/>
        <pt x="1851" y="1040" on="0"/>
        <pt x="1851" y="964" on="1"/>
        <pt x="1851" y="868" on="0"/>
        <pt x="1818" y="752" on="1"/>
        <pt x="1792" y="660" on="0"/>
        <pt x="1713" y="490" on="0"/>
        <pt x="1586" y="313" on="0"/>
        <pt x="1427" y="172" on="0"/>
        <pt x="1203" y="59" on="0"/>
        <pt x="1072" y="31" on="1"/>
        <pt x="923" y="0" on="0"/>
        <pt x="658" y="0" on="1"/>
        <pt x="290" y="0" on="1"/>
        <pt x="697" y="1421" on="1"/>
      </contour>
    </TTGlyph>
    <TTGlyph name="Dcroat" xMin="294" yMin="0" xMax="1904" yMax="1421">
      <contour>
        <pt x="1165" y="1189" on="1"/>
        <pt x="928" y="1189" on="1"/>
        <pt x="830" y="849" on="1"/>
        <pt x="1091" y="849" on="1"/>
        <pt x="1025" y="617" on="1"/>
        <pt x="764" y="617" on="1"/>
        <pt x="654" y="232" on="1"/>
        <pt x="820" y="232" on="1"/>
        <pt x="885" y="232" on="0"/>
        <pt x="990" y="238" on="0"/>
        <pt x="1136" y="260" on="0"/>
        <pt x="1255" y="299" on="0"/>
        <pt x="1388" y="373" on="0"/>
        <pt x="1490" y="473" on="0"/>
        <pt x="1580" y="624" on="0"/>
        <pt x="1607" y="719" on="1"/>
        <pt x="1628" y="792" on="0"/>
        <pt x="1628" y="861" on="1"/>
        <pt x="1628" y="927" on="0"/>
        <pt x="1584" y="1038" on="0"/>
        <pt x="1484" y="1134" on="0"/>
        <pt x="1296" y="1189" on="0"/>
      </contour>
      <contour>
        <pt x="742" y="1421" on="1"/>
        <pt x="1218" y="1421" on="1"/>
        <pt x="1257" y="1421" on="0"/>
        <pt x="1328" y="1418" on="0"/>
        <pt x="1435" y="1408" on="0"/>
        <pt x="1528" y="1390" on="0"/>
        <pt x="1637" y="1356" on="0"/>
        <pt x="1726" y="1310" on="0"/>
        <pt x="1811" y="1240" on="0"/>
        <pt x="1869" y="1153" on="0"/>
        <pt x="1904" y="1035" on="0"/>
        <pt x="1904" y="965" on="1"/>
        <pt x="1904" y="867" on="0"/>
        <pt x="1871" y="752" on="1"/>
        <pt x="1656" y="0" on="0"/>
        <pt x="747" y="0" on="1"/>
        <pt x="335" y="0" on="1"/>
        <pt x="512" y="617" on="1"/>
        <pt x="294" y="617" on="1"/>
        <pt x="360" y="849" on="1"/>
        <pt x="578" y="849" on="1"/>
      </contour>
    </TTGlyph>
    <TTGlyph name="E" xMin="290" yMin="0" xMax="1694" yMax="1421">
      <contour>
        <pt x="290" y="0" on="1"/>
        <pt x="697" y="1421" on="1"/>
        <pt x="1694" y="1421" on="1"/>
        <pt x="1628" y="1189" on="1"/>
        <pt x="884" y="1189" on="1"/>
        <pt x="786" y="848" on="1"/>
        <pt x="1475" y="848" on="1"/>
        <pt x="1409" y="616" on="1"/>
        <pt x="720" y="616" on="1"/>
        <pt x="610" y="232" on="1"/>
        <pt x="1354" y="232" on="1"/>
        <pt x="1287" y="0" on="1"/>
      </contour>
    </TTGlyph>
    <TTGlyph name="Eacute" xMin="290" yMin="0" xMax="1709" yMax="1965">
      <contour>
        <pt x="697" y="1421" on="1"/>
        <pt x="1694" y="1421" on="1"/>
        <pt x="1628" y="1189" on="1"/>
        <pt x="884" y="1189" on="1"/>
        <pt x="786" y="848" on="1"/>
        <pt x="1475" y="848" on="1"/>
        <pt x="1409" y="616" on="1"/>
        <pt x="720" y="616" on="1"/>
        <pt x="610" y="232" on="1"/>
        <pt x="1354" y="232" on="1"/>
        <pt x="1287" y="0" on="1"/>
        <pt x="290" y="0" on="1"/>
      </contour>
      <contour>
        <pt x="1653" y="1965" on="1"/>
        <pt x="1709" y="1770" on="1"/>
        <pt x="947" y="1434" on="1"/>
        <pt x="896" y="1612" on="1"/>
      </contour>
    </TTGlyph>
    <TTGlyph name="Ebreve" xMin="290" yMin="0" xMax="1807" yMax="1897">
      <contour>
        <pt x="1661" y="1897" on="1"/>
        <pt x="1807" y="1774" on="1"/>
        <pt x="1771" y="1739" on="1"/>
        <pt x="1634" y="1608" on="0"/>
        <pt x="1335" y="1477" on="0"/>
        <pt x="1192" y="1477" on="1"/>
        <pt x="1035" y="1477" on="0"/>
        <pt x="850" y="1628" on="0"/>
        <pt x="839" y="1761" on="1"/>
        <pt x="836" y="1794" on="1"/>
        <pt x="1060" y="1897" on="1"/>
        <pt x="1067" y="1859" on="1"/>
        <pt x="1088" y="1782" on="0"/>
        <pt x="1198" y="1695" on="0"/>
        <pt x="1276" y="1695" on="1"/>
        <pt x="1437" y="1695" on="0"/>
        <pt x="1628" y="1866" on="1"/>
      </contour>
      <contour>
        <pt x="290" y="0" on="1"/>
        <pt x="697" y="1421" on="1"/>
        <pt x="1694" y="1421" on="1"/>
        <pt x="1628" y="1189" on="1"/>
        <pt x="884" y="1189" on="1"/>
        <pt x="786" y="848" on="1"/>
        <pt x="1475" y="848" on="1"/>
        <pt x="1409" y="616" on="1"/>
        <pt x="720" y="616" on="1"/>
        <pt x="610" y="232" on="1"/>
        <pt x="1354" y="232" on="1"/>
        <pt x="1287" y="0" on="1"/>
      </contour>
    </TTGlyph>
    <TTGlyph name="Ecaron" xMin="290" yMin="0" xMax="1694" yMax="1950">
      <contour>
        <pt x="290" y="0" on="1"/>
        <pt x="697" y="1421" on="1"/>
        <pt x="1694" y="1421" on="1"/>
        <pt x="1628" y="1189" on="1"/>
        <pt x="884" y="1189" on="1"/>
        <pt x="786" y="848" on="1"/>
        <pt x="1475" y="848" on="1"/>
        <pt x="1409" y="616" on="1"/>
        <pt x="720" y="616" on="1"/>
        <pt x="610" y="232" on="1"/>
        <pt x="1354" y="232" on="1"/>
        <pt x="1287" y="0" on="1"/>
      </contour>
      <contour>
        <pt x="1190" y="1457" on="1"/>
        <pt x="940" y="1805" on="1"/>
        <pt x="1139" y="1950" on="1"/>
        <pt x="1293" y="1756" on="1"/>
        <pt x="1560" y="1947" on="1"/>
        <pt x="1678" y="1814" on="1"/>
      </contour>
    </TTGlyph>
    <TTGlyph name="Ecircumflex" xMin="290" yMin="0" xMax="1694" yMax="1951">
      <contour>
        <pt x="697" y="1421" on="1"/>
        <pt x="1694" y="1421" on="1"/>
        <pt x="1628" y="1189" on="1"/>
        <pt x="884" y="1189" on="1"/>
        <pt x="786" y="848" on="1"/>
        <pt x="1475" y="848" on="1"/>
        <pt x="1409" y="616" on="1"/>
        <pt x="720" y="616" on="1"/>
        <pt x="610" y="232" on="1"/>
        <pt x="1354" y="232" on="1"/>
        <pt x="1287" y="0" on="1"/>
        <pt x="290" y="0" on="1"/>
      </contour>
      <contour>
        <pt x="1365" y="1951" on="1"/>
        <pt x="1615" y="1602" on="1"/>
        <pt x="1413" y="1458" on="1"/>
        <pt x="1262" y="1652" on="1"/>
        <pt x="995" y="1461" on="1"/>
        <pt x="877" y="1594" on="1"/>
      </contour>
    </TTGlyph>
    <TTGlyph name="Edieresis" xMin="290" yMin="0" xMax="1731" yMax="1898">
      <contour>
        <pt x="697" y="1421" on="1"/>
        <pt x="1694" y="1421" on="1"/>
        <pt x="1628" y="1189" on="1"/>
        <pt x="884" y="1189" on="1"/>
        <pt x="786" y="848" on="1"/>
        <pt x="1475" y="848" on="1"/>
        <pt x="1409" y="616" on="1"/>
        <pt x="720" y="616" on="1"/>
        <pt x="610" y="232" on="1"/>
        <pt x="1354" y="232" on="1"/>
        <pt x="1287" y="0" on="1"/>
        <pt x="290" y="0" on="1"/>
      </contour>
      <contour>
        <pt x="934" y="1898" on="1"/>
        <pt x="1224" y="1898" on="1"/>
        <pt x="1148" y="1631" on="1"/>
        <pt x="858" y="1631" on="1"/>
      </contour>
      <contour>
        <pt x="1441" y="1898" on="1"/>
        <pt x="1731" y="1898" on="1"/>
        <pt x="1655" y="1631" on="1"/>
        <pt x="1365" y="1631" on="1"/>
      </contour>
    </TTGlyph>
    <TTGlyph name="Edotaccent" xMin="290" yMin="0" xMax="1694" yMax="1829">
      <contour>
        <pt x="290" y="0" on="1"/>
        <pt x="697" y="1421" on="1"/>
        <pt x="1694" y="1421" on="1"/>
        <pt x="1628" y="1189" on="1"/>
        <pt x="884" y="1189" on="1"/>
        <pt x="786" y="848" on="1"/>
        <pt x="1475" y="848" on="1"/>
        <pt x="1409" y="616" on="1"/>
        <pt x="720" y="616" on="1"/>
        <pt x="610" y="232" on="1"/>
        <pt x="1354" y="232" on="1"/>
        <pt x="1287" y="0" on="1"/>
      </contour>
      <contour>
        <pt x="1127" y="1829" on="1"/>
        <pt x="1475" y="1829" on="1"/>
        <pt x="1392" y="1537" on="1"/>
        <pt x="1044" y="1537" on="1"/>
      </contour>
    </TTGlyph>
    <TTGlyph name="Egrave" xMin="290" yMin="0" xMax="1694" yMax="1965">
      <contour>
        <pt x="697" y="1421" on="1"/>
        <pt x="1694" y="1421" on="1"/>
        <pt x="1628" y="1189" on="1"/>
        <pt x="884" y="1189" on="1"/>
        <pt x="786" y="848" on="1"/>
        <pt x="1475" y="848" on="1"/>
        <pt x="1409" y="616" on="1"/>
        <pt x="720" y="616" on="1"/>
        <pt x="610" y="232" on="1"/>
        <pt x="1354" y="232" on="1"/>
        <pt x="1287" y="0" on="1"/>
        <pt x="290" y="0" on="1"/>
      </contour>
      <contour>
        <pt x="1069" y="1965" on="1"/>
        <pt x="1624" y="1612" on="1"/>
        <pt x="1469" y="1434" on="1"/>
        <pt x="901" y="1770" on="1"/>
      </contour>
    </TTGlyph>
    <TTGlyph name="Emacron" xMin="290" yMin="0" xMax="1744" yMax="1697">
      <contour>
        <pt x="290" y="0" on="1"/>
        <pt x="697" y="1421" on="1"/>
        <pt x="1694" y="1421" on="1"/>
        <pt x="1628" y="1189" on="1"/>
        <pt x="884" y="1189" on="1"/>
        <pt x="786" y="848" on="1"/>
        <pt x="1475" y="848" on="1"/>
        <pt x="1409" y="616" on="1"/>
        <pt x="720" y="616" on="1"/>
        <pt x="610" y="232" on="1"/>
        <pt x="1354" y="232" on="1"/>
        <pt x="1287" y="0" on="1"/>
      </contour>
      <contour>
        <pt x="847" y="1697" on="1"/>
        <pt x="1744" y="1697" on="1"/>
        <pt x="1683" y="1486" on="1"/>
        <pt x="786" y="1486" on="1"/>
      </contour>
    </TTGlyph>
    <TTGlyph name="Eng" xMin="290" yMin="-365" xMax="1908" yMax="1483">
      <contour>
        <pt x="1357" y="29" on="1"/>
        <pt x="1591" y="845" on="1"/>
        <pt x="1623" y="958" on="0"/>
        <pt x="1623" y="1023" on="1"/>
        <pt x="1623" y="1232" on="0"/>
        <pt x="1360" y="1232" on="1"/>
        <pt x="1189" y="1232" on="0"/>
        <pt x="871" y="1119" on="1"/>
        <pt x="550" y="0" on="1"/>
        <pt x="290" y="0" on="1"/>
        <pt x="697" y="1421" on="1"/>
        <pt x="875" y="1421" on="1"/>
        <pt x="896" y="1341" on="1"/>
        <pt x="1291" y="1483" on="0"/>
        <pt x="1507" y="1483" on="1"/>
        <pt x="1706" y="1483" on="0"/>
        <pt x="1908" y="1303" on="0"/>
        <pt x="1908" y="1150" on="1"/>
        <pt x="1908" y="1112" on="0"/>
        <pt x="1902" y="1072" on="1"/>
        <pt x="1893" y="1010" on="0"/>
        <pt x="1865" y="916" on="1"/>
        <pt x="1604" y="6" on="1"/>
        <pt x="1580" y="-77" on="0"/>
        <pt x="1500" y="-207" on="0"/>
        <pt x="1406" y="-290" on="0"/>
        <pt x="1293" y="-343" on="0"/>
        <pt x="1183" y="-365" on="0"/>
        <pt x="1124" y="-365" on="1"/>
        <pt x="1012" y="-365" on="0"/>
        <pt x="874" y="-329" on="1"/>
        <pt x="835" y="-319" on="1"/>
        <pt x="937" y="-119" on="1"/>
        <pt x="979" y="-127" on="1"/>
        <pt x="1078" y="-146" on="0"/>
        <pt x="1136" y="-146" on="1"/>
        <pt x="1184" y="-146" on="0"/>
        <pt x="1261" y="-119" on="0"/>
        <pt x="1304" y="-84" on="0"/>
        <pt x="1338" y="-28" on="0"/>
        <pt x="1350" y="5" on="0"/>
      </contour>
    </TTGlyph>
    <TTGlyph name="Eogonek" xMin="290" yMin="-543" xMax="1694" yMax="1421">
      <contour>
        <pt x="697" y="1421" on="1"/>
        <pt x="1694" y="1421" on="1"/>
        <pt x="1628" y="1189" on="1"/>
        <pt x="884" y="1189" on="1"/>
        <pt x="786" y="848" on="1"/>
        <pt x="1475" y="848" on="1"/>
        <pt x="1409" y="616" on="1"/>
        <pt x="720" y="616" on="1"/>
        <pt x="610" y="232" on="1"/>
        <pt x="1354" y="232" on="1"/>
        <pt x="1301" y="48" on="1"/>
        <pt x="1280" y="36" on="1"/>
        <pt x="1242" y="14" on="0"/>
        <pt x="1121" y="-55" on="0"/>
        <pt x="1056" y="-93" on="0"/>
        <pt x="970" y="-148" on="0"/>
        <pt x="923" y="-189" on="0"/>
        <pt x="883" y="-238" on="0"/>
        <pt x="876" y="-263" on="1"/>
        <pt x="873" y="-274" on="0"/>
        <pt x="873" y="-282" on="1"/>
        <pt x="873" y="-328" on="0"/>
        <pt x="936" y="-328" on="1"/>
        <pt x="997" y="-328" on="0"/>
        <pt x="1095" y="-275" on="1"/>
        <pt x="1139" y="-252" on="1"/>
        <pt x="1179" y="-412" on="1"/>
        <pt x="1144" y="-433" on="1"/>
        <pt x="962" y="-543" on="0"/>
        <pt x="816" y="-543" on="1"/>
        <pt x="708" y="-543" on="0"/>
        <pt x="585" y="-444" on="0"/>
        <pt x="585" y="-363" on="1"/>
        <pt x="585" y="-278" on="0"/>
        <pt x="726" y="-85" on="0"/>
        <pt x="864" y="0" on="1"/>
        <pt x="290" y="0" on="1"/>
      </contour>
    </TTGlyph>
    <TTGlyph name="Eth" xMin="294" yMin="0" xMax="1904" yMax="1421">
      <contour>
        <pt x="742" y="1421" on="1"/>
        <pt x="1218" y="1421" on="1"/>
        <pt x="1257" y="1421" on="0"/>
        <pt x="1328" y="1418" on="0"/>
        <pt x="1435" y="1408" on="0"/>
        <pt x="1528" y="1390" on="0"/>
        <pt x="1637" y="1356" on="0"/>
        <pt x="1726" y="1310" on="0"/>
        <pt x="1811" y="1240" on="0"/>
        <pt x="1869" y="1153" on="0"/>
        <pt x="1904" y="1035" on="0"/>
        <pt x="1904" y="965" on="1"/>
        <pt x="1904" y="867" on="0"/>
        <pt x="1871" y="752" on="1"/>
        <pt x="1656" y="0" on="0"/>
        <pt x="747" y="0" on="1"/>
        <pt x="335" y="0" on="1"/>
        <pt x="512" y="617" on="1"/>
        <pt x="294" y="617" on="1"/>
        <pt x="360" y="849" on="1"/>
        <pt x="578" y="849" on="1"/>
      </contour>
      <contour>
        <pt x="1165" y="1189" on="1"/>
        <pt x="928" y="1189" on="1"/>
        <pt x="830" y="849" on="1"/>
        <pt x="1091" y="849" on="1"/>
        <pt x="1025" y="617" on="1"/>
        <pt x="764" y="617" on="1"/>
        <pt x="654" y="232" on="1"/>
        <pt x="820" y="232" on="1"/>
        <pt x="885" y="232" on="0"/>
        <pt x="990" y="238" on="0"/>
        <pt x="1136" y="260" on="0"/>
        <pt x="1255" y="299" on="0"/>
        <pt x="1388" y="373" on="0"/>
        <pt x="1490" y="473" on="0"/>
        <pt x="1580" y="624" on="0"/>
        <pt x="1607" y="719" on="1"/>
        <pt x="1628" y="792" on="0"/>
        <pt x="1628" y="861" on="1"/>
        <pt x="1628" y="927" on="0"/>
        <pt x="1584" y="1038" on="0"/>
        <pt x="1484" y="1134" on="0"/>
        <pt x="1296" y="1189" on="0"/>
      </contour>
    </TTGlyph>
    <TTGlyph name="Euro" xMin="142" yMin="-61" xMax="1684" yMax="1472">
      <contour>
        <pt x="373" y="463" on="1"/>
        <pt x="142" y="463" on="1"/>
        <pt x="203" y="675" on="1"/>
        <pt x="405" y="675" on="1"/>
        <pt x="413" y="718" on="0"/>
        <pt x="446" y="807" on="1"/>
        <pt x="304" y="807" on="1"/>
        <pt x="365" y="1019" on="1"/>
        <pt x="552" y="1019" on="1"/>
        <pt x="685" y="1229" on="0"/>
        <pt x="1088" y="1472" on="0"/>
        <pt x="1312" y="1472" on="1"/>
        <pt x="1493" y="1472" on="0"/>
        <pt x="1653" y="1393" on="1"/>
        <pt x="1684" y="1378" on="1"/>
        <pt x="1549" y="1160" on="1"/>
        <pt x="1513" y="1176" on="1"/>
        <pt x="1365" y="1240" on="0"/>
        <pt x="1243" y="1240" on="1"/>
        <pt x="1126" y="1240" on="0"/>
        <pt x="903" y="1122" on="0"/>
        <pt x="815" y="1019" on="1"/>
        <pt x="1241" y="1019" on="1"/>
        <pt x="1180" y="807" on="1"/>
        <pt x="683" y="807" on="1"/>
        <pt x="650" y="731" on="0"/>
        <pt x="640" y="675" on="1"/>
        <pt x="1079" y="675" on="1"/>
        <pt x="1018" y="463" on="1"/>
        <pt x="628" y="463" on="1"/>
        <pt x="647" y="334" on="0"/>
        <pt x="820" y="177" on="0"/>
        <pt x="969" y="177" on="1"/>
        <pt x="1097" y="177" on="0"/>
        <pt x="1260" y="234" on="1"/>
        <pt x="1303" y="249" on="1"/>
        <pt x="1320" y="49" on="1"/>
        <pt x="1282" y="33" on="1"/>
        <pt x="1060" y="-61" on="0"/>
        <pt x="863" y="-61" on="1"/>
        <pt x="631" y="-61" on="0"/>
        <pt x="373" y="211" on="0"/>
        <pt x="373" y="440" on="1"/>
      </contour>
    </TTGlyph>
    <TTGlyph name="F" xMin="290" yMin="0" xMax="1684" yMax="1421">
      <contour>
        <pt x="884" y="1189" on="1"/>
        <pt x="786" y="848" on="1"/>
        <pt x="1460" y="848" on="1"/>
        <pt x="1394" y="616" on="1"/>
        <pt x="720" y="616" on="1"/>
        <pt x="543" y="0" on="1"/>
        <pt x="290" y="0" on="1"/>
        <pt x="697" y="1421" on="1"/>
        <pt x="1684" y="1421" on="1"/>
        <pt x="1618" y="1189" on="1"/>
      </contour>
    </TTGlyph>
    <TTGlyph name="G" xMin="387" yMin="-20" xMax="1923" yMax="1432">
      <contour>
        <pt x="1664" y="206" on="1"/>
        <pt x="1391" y="-20" on="0"/>
        <pt x="1007" y="-20" on="1"/>
        <pt x="875" y="-20" on="0"/>
        <pt x="664" y="35" on="0"/>
        <pt x="523" y="129" on="0"/>
        <pt x="429" y="261" on="0"/>
        <pt x="387" y="410" on="0"/>
        <pt x="387" y="495" on="1"/>
        <pt x="387" y="599" on="0"/>
        <pt x="418" y="709" on="1"/>
        <pt x="450" y="822" on="0"/>
        <pt x="573" y="1032" on="0"/>
        <pt x="757" y="1216" on="0"/>
        <pt x="981" y="1353" on="0"/>
        <pt x="1266" y="1432" on="0"/>
        <pt x="1421" y="1432" on="1"/>
        <pt x="1703" y="1432" on="0"/>
        <pt x="1893" y="1306" on="1"/>
        <pt x="1923" y="1286" on="1"/>
        <pt x="1761" y="1088" on="1"/>
        <pt x="1730" y="1107" on="1"/>
        <pt x="1668" y="1143" on="0"/>
        <pt x="1472" y="1200" on="0"/>
        <pt x="1364" y="1200" on="1"/>
        <pt x="1221" y="1200" on="0"/>
        <pt x="940" y="1089" on="0"/>
        <pt x="716" y="865" on="0"/>
        <pt x="674" y="719" on="1"/>
        <pt x="654" y="652" on="0"/>
        <pt x="654" y="584" on="1"/>
        <pt x="654" y="416" on="0"/>
        <pt x="906" y="213" on="0"/>
        <pt x="1118" y="213" on="1"/>
        <pt x="1302" y="213" on="0"/>
        <pt x="1443" y="296" on="1"/>
        <pt x="1521" y="569" on="1"/>
        <pt x="1076" y="569" on="1"/>
        <pt x="1140" y="791" on="1"/>
        <pt x="1832" y="791" on="1"/>
      </contour>
    </TTGlyph>
    <TTGlyph name="Gbreve" xMin="385" yMin="-20" xMax="1981" yMax="1897">
      <contour>
        <pt x="1015" y="1794" on="1"/>
        <pt x="1256" y="1897" on="1"/>
        <pt x="1266" y="1859" on="1"/>
        <pt x="1270" y="1843" on="0"/>
        <pt x="1281" y="1812" on="0"/>
        <pt x="1311" y="1760" on="0"/>
        <pt x="1349" y="1723" on="0"/>
        <pt x="1416" y="1695" on="0"/>
        <pt x="1456" y="1695" on="1"/>
        <pt x="1534" y="1695" on="0"/>
        <pt x="1717" y="1797" on="0"/>
        <pt x="1794" y="1866" on="1"/>
        <pt x="1829" y="1897" on="1"/>
        <pt x="1981" y="1774" on="1"/>
        <pt x="1945" y="1739" on="1"/>
        <pt x="1829" y="1628" on="0"/>
        <pt x="1522" y="1475" on="0"/>
        <pt x="1376" y="1475" on="1"/>
        <pt x="1293" y="1475" on="0"/>
        <pt x="1159" y="1525" on="0"/>
        <pt x="1074" y="1608" on="0"/>
        <pt x="1025" y="1707" on="0"/>
        <pt x="1019" y="1761" on="1"/>
      </contour>
      <contour>
        <pt x="1664" y="206" on="1"/>
        <pt x="1391" y="-20" on="0"/>
        <pt x="1007" y="-20" on="1"/>
        <pt x="847" y="-20" on="0"/>
        <pt x="603" y="59" on="0"/>
        <pt x="457" y="200" on="0"/>
        <pt x="385" y="380" on="0"/>
        <pt x="385" y="487" on="1"/>
        <pt x="385" y="587" on="0"/>
        <pt x="416" y="697" on="1"/>
        <pt x="448" y="809" on="0"/>
        <pt x="569" y="1020" on="0"/>
        <pt x="753" y="1209" on="0"/>
        <pt x="977" y="1350" on="0"/>
        <pt x="1265" y="1432" on="0"/>
        <pt x="1421" y="1432" on="1"/>
        <pt x="1703" y="1432" on="0"/>
        <pt x="1893" y="1306" on="1"/>
        <pt x="1923" y="1286" on="1"/>
        <pt x="1761" y="1088" on="1"/>
        <pt x="1730" y="1107" on="1"/>
        <pt x="1668" y="1143" on="0"/>
        <pt x="1472" y="1200" on="0"/>
        <pt x="1364" y="1200" on="1"/>
        <pt x="1221" y="1200" on="0"/>
        <pt x="940" y="1089" on="0"/>
        <pt x="716" y="865" on="0"/>
        <pt x="674" y="719" on="1"/>
        <pt x="654" y="652" on="0"/>
        <pt x="654" y="584" on="1"/>
        <pt x="654" y="416" on="0"/>
        <pt x="906" y="213" on="0"/>
        <pt x="1118" y="213" on="1"/>
        <pt x="1302" y="213" on="0"/>
        <pt x="1443" y="296" on="1"/>
        <pt x="1521" y="569" on="1"/>
        <pt x="1076" y="569" on="1"/>
        <pt x="1140" y="791" on="1"/>
        <pt x="1832" y="791" on="1"/>
      </contour>
    </TTGlyph>
    <TTGlyph name="Gcircumflex" xMin="387" yMin="-20" xMax="1923" yMax="1951">
      <contour>
        <pt x="1664" y="206" on="1"/>
        <pt x="1391" y="-20" on="0"/>
        <pt x="1007" y="-20" on="1"/>
        <pt x="875" y="-20" on="0"/>
        <pt x="664" y="35" on="0"/>
        <pt x="523" y="129" on="0"/>
        <pt x="429" y="261" on="0"/>
        <pt x="387" y="410" on="0"/>
        <pt x="387" y="495" on="1"/>
        <pt x="387" y="599" on="0"/>
        <pt x="418" y="709" on="1"/>
        <pt x="459" y="851" on="0"/>
        <pt x="633" y="1107" on="0"/>
        <pt x="884" y="1311" on="0"/>
        <pt x="1228" y="1432" on="0"/>
        <pt x="1421" y="1432" on="1"/>
        <pt x="1703" y="1432" on="0"/>
        <pt x="1893" y="1306" on="1"/>
        <pt x="1923" y="1286" on="1"/>
        <pt x="1761" y="1088" on="1"/>
        <pt x="1730" y="1107" on="1"/>
        <pt x="1668" y="1143" on="0"/>
        <pt x="1472" y="1200" on="0"/>
        <pt x="1364" y="1200" on="1"/>
        <pt x="1221" y="1200" on="0"/>
        <pt x="940" y="1089" on="0"/>
        <pt x="716" y="865" on="0"/>
        <pt x="674" y="719" on="1"/>
        <pt x="654" y="652" on="0"/>
        <pt x="654" y="584" on="1"/>
        <pt x="654" y="416" on="0"/>
        <pt x="906" y="213" on="0"/>
        <pt x="1118" y="213" on="1"/>
        <pt x="1302" y="213" on="0"/>
        <pt x="1443" y="296" on="1"/>
        <pt x="1521" y="569" on="1"/>
        <pt x="1076" y="569" on="1"/>
        <pt x="1140" y="791" on="1"/>
        <pt x="1832" y="791" on="1"/>
      </contour>
      <contour>
        <pt x="1521" y="1951" on="1"/>
        <pt x="1765" y="1603" on="1"/>
        <pt x="1555" y="1458" on="1"/>
        <pt x="1421" y="1652" on="1"/>
        <pt x="1169" y="1461" on="1"/>
        <pt x="1042" y="1594" on="1"/>
      </contour>
    </TTGlyph>
    <TTGlyph name="Gcommaaccent" xMin="387" yMin="-531" xMax="1923" yMax="1432">
      <contour>
        <pt x="1664" y="206" on="1"/>
        <pt x="1391" y="-20" on="0"/>
        <pt x="1007" y="-20" on="1"/>
        <pt x="875" y="-20" on="0"/>
        <pt x="664" y="35" on="0"/>
        <pt x="523" y="129" on="0"/>
        <pt x="429" y="261" on="0"/>
        <pt x="387" y="410" on="0"/>
        <pt x="387" y="495" on="1"/>
        <pt x="387" y="599" on="0"/>
        <pt x="418" y="709" on="1"/>
        <pt x="450" y="822" on="0"/>
        <pt x="573" y="1032" on="0"/>
        <pt x="757" y="1216" on="0"/>
        <pt x="981" y="1353" on="0"/>
        <pt x="1266" y="1432" on="0"/>
        <pt x="1421" y="1432" on="1"/>
        <pt x="1703" y="1432" on="0"/>
        <pt x="1893" y="1306" on="1"/>
        <pt x="1923" y="1286" on="1"/>
        <pt x="1761" y="1088" on="1"/>
        <pt x="1730" y="1107" on="1"/>
        <pt x="1668" y="1143" on="0"/>
        <pt x="1472" y="1200" on="0"/>
        <pt x="1364" y="1200" on="1"/>
        <pt x="1221" y="1200" on="0"/>
        <pt x="940" y="1089" on="0"/>
        <pt x="716" y="865" on="0"/>
        <pt x="674" y="719" on="1"/>
        <pt x="654" y="652" on="0"/>
        <pt x="654" y="584" on="1"/>
        <pt x="654" y="416" on="0"/>
        <pt x="906" y="213" on="0"/>
        <pt x="1118" y="213" on="1"/>
        <pt x="1302" y="213" on="0"/>
        <pt x="1443" y="296" on="1"/>
        <pt x="1521" y="569" on="1"/>
        <pt x="1076" y="569" on="1"/>
        <pt x="1140" y="791" on="1"/>
        <pt x="1832" y="791" on="1"/>
      </contour>
      <contour>
        <pt x="926" y="-59" on="1"/>
        <pt x="1222" y="-59" on="1"/>
        <pt x="876" y="-531" on="1"/>
        <pt x="581" y="-531" on="1"/>
      </contour>
    </TTGlyph>
    <TTGlyph name="Gdotaccent" xMin="387" yMin="-20" xMax="1923" yMax="1829">
      <contour>
        <pt x="1355" y="1829" on="1"/>
        <pt x="1676" y="1829" on="1"/>
        <pt x="1593" y="1537" on="1"/>
        <pt x="1272" y="1537" on="1"/>
      </contour>
      <contour>
        <pt x="1664" y="206" on="1"/>
        <pt x="1391" y="-20" on="0"/>
        <pt x="1007" y="-20" on="1"/>
        <pt x="875" y="-20" on="0"/>
        <pt x="664" y="35" on="0"/>
        <pt x="523" y="129" on="0"/>
        <pt x="429" y="261" on="0"/>
        <pt x="387" y="410" on="0"/>
        <pt x="387" y="495" on="1"/>
        <pt x="387" y="599" on="0"/>
        <pt x="418" y="709" on="1"/>
        <pt x="459" y="851" on="0"/>
        <pt x="633" y="1107" on="0"/>
        <pt x="884" y="1311" on="0"/>
        <pt x="1228" y="1432" on="0"/>
        <pt x="1421" y="1432" on="1"/>
        <pt x="1703" y="1432" on="0"/>
        <pt x="1893" y="1306" on="1"/>
        <pt x="1923" y="1286" on="1"/>
        <pt x="1761" y="1088" on="1"/>
        <pt x="1730" y="1107" on="1"/>
        <pt x="1668" y="1143" on="0"/>
        <pt x="1472" y="1200" on="0"/>
        <pt x="1364" y="1200" on="1"/>
        <pt x="1221" y="1200" on="0"/>
        <pt x="940" y="1089" on="0"/>
        <pt x="716" y="865" on="0"/>
        <pt x="674" y="719" on="1"/>
        <pt x="654" y="652" on="0"/>
        <pt x="654" y="584" on="1"/>
        <pt x="654" y="416" on="0"/>
        <pt x="906" y="213" on="0"/>
        <pt x="1118" y="213" on="1"/>
        <pt x="1302" y="213" on="0"/>
        <pt x="1443" y="296" on="1"/>
        <pt x="1521" y="569" on="1"/>
        <pt x="1076" y="569" on="1"/>
        <pt x="1140" y="791" on="1"/>
        <pt x="1832" y="791" on="1"/>
      </contour>
    </TTGlyph>
    <TTGlyph name="H" xMin="290" yMin="0" xMax="1961" yMax="1421">
      <contour>
        <pt x="1709" y="1421" on="1"/>
        <pt x="1961" y="1421" on="1"/>
        <pt x="1554" y="0" on="1"/>
        <pt x="1302" y="0" on="1"/>
        <pt x="1479" y="617" on="1"/>
        <pt x="719" y="617" on="1"/>
        <pt x="542" y="0" on="1"/>
        <pt x="290" y="0" on="1"/>
        <pt x="697" y="1421" on="1"/>
        <pt x="949" y="1421" on="1"/>
        <pt x="785" y="849" on="1"/>
        <pt x="1545" y="849" on="1"/>
      </contour>
    </TTGlyph>
    <TTGlyph name="Hbar" xMin="290" yMin="0" xMax="2071" yMax="1421">
      <contour>
        <pt x="1709" y="1421" on="1"/>
        <pt x="1961" y="1421" on="1"/>
        <pt x="1921" y="1279" on="1"/>
        <pt x="2071" y="1279" on="1"/>
        <pt x="2011" y="1071" on="1"/>
        <pt x="1861" y="1071" on="1"/>
        <pt x="1554" y="0" on="1"/>
        <pt x="1302" y="0" on="1"/>
        <pt x="1479" y="617" on="1"/>
        <pt x="719" y="617" on="1"/>
        <pt x="542" y="0" on="1"/>
        <pt x="290" y="0" on="1"/>
        <pt x="597" y="1071" on="1"/>
        <pt x="447" y="1071" on="1"/>
        <pt x="507" y="1279" on="1"/>
        <pt x="657" y="1279" on="1"/>
        <pt x="697" y="1421" on="1"/>
        <pt x="949" y="1421" on="1"/>
        <pt x="906" y="1271" on="1"/>
        <pt x="1666" y="1271" on="1"/>
      </contour>
      <contour>
        <pt x="1545" y="849" on="1"/>
        <pt x="1615" y="1092" on="1"/>
        <pt x="855" y="1092" on="1"/>
        <pt x="785" y="849" on="1"/>
      </contour>
    </TTGlyph>
    <TTGlyph name="Hcircumflex" xMin="290" yMin="0" xMax="1961" yMax="1956">
      <contour>
        <pt x="1709" y="1421" on="1"/>
        <pt x="1961" y="1421" on="1"/>
        <pt x="1554" y="0" on="1"/>
        <pt x="1302" y="0" on="1"/>
        <pt x="1479" y="617" on="1"/>
        <pt x="719" y="617" on="1"/>
        <pt x="542" y="0" on="1"/>
        <pt x="290" y="0" on="1"/>
        <pt x="697" y="1421" on="1"/>
        <pt x="949" y="1421" on="1"/>
        <pt x="785" y="849" on="1"/>
        <pt x="1545" y="849" on="1"/>
      </contour>
      <contour>
        <pt x="1506" y="1956" on="1"/>
        <pt x="1756" y="1608" on="1"/>
        <pt x="1544" y="1463" on="1"/>
        <pt x="1404" y="1657" on="1"/>
        <pt x="1150" y="1466" on="1"/>
        <pt x="1022" y="1599" on="1"/>
      </contour>
    </TTGlyph>
    <TTGlyph name="I" xMin="320" yMin="0" xMax="979" yMax="1421">
      <contour>
        <pt x="727" y="1421" on="1"/>
        <pt x="979" y="1421" on="1"/>
        <pt x="572" y="0" on="1"/>
        <pt x="320" y="0" on="1"/>
      </contour>
    </TTGlyph>
    <TTGlyph name="IJ" xMin="320" yMin="-17" xMax="2133" yMax="1421">
      <contour>
        <pt x="727" y="1421" on="1"/>
        <pt x="979" y="1421" on="1"/>
        <pt x="572" y="0" on="1"/>
        <pt x="320" y="0" on="1"/>
      </contour>
      <contour>
        <pt x="1881" y="1421" on="1"/>
        <pt x="2133" y="1421" on="1"/>
        <pt x="1873" y="511" on="1"/>
        <pt x="1858" y="457" on="0"/>
        <pt x="1822" y="365" on="0"/>
        <pt x="1761" y="254" on="0"/>
        <pt x="1687" y="165" on="0"/>
        <pt x="1576" y="77" on="0"/>
        <pt x="1445" y="19" on="0"/>
        <pt x="1265" y="-17" on="0"/>
        <pt x="1161" y="-17" on="1"/>
        <pt x="1053" y="-17" on="0"/>
        <pt x="962" y="8" on="1"/>
        <pt x="927" y="18" on="1"/>
        <pt x="1033" y="240" on="1"/>
        <pt x="1072" y="230" on="1"/>
        <pt x="1130" y="215" on="0"/>
        <pt x="1200" y="215" on="1"/>
        <pt x="1266" y="215" on="0"/>
        <pt x="1380" y="240" on="0"/>
        <pt x="1459" y="277" on="0"/>
        <pt x="1526" y="333" on="0"/>
        <pt x="1566" y="383" on="0"/>
        <pt x="1599" y="448" on="0"/>
        <pt x="1614" y="488" on="0"/>
        <pt x="1621" y="513" on="1"/>
      </contour>
    </TTGlyph>
    <TTGlyph name="Iacute" xMin="416" yMin="0" xMax="1396" yMax="1946">
      <contour>
        <pt x="823" y="1421" on="1"/>
        <pt x="1075" y="1421" on="1"/>
        <pt x="668" y="0" on="1"/>
        <pt x="416" y="0" on="1"/>
      </contour>
      <contour>
        <pt x="1341" y="1946" on="1"/>
        <pt x="1396" y="1751" on="1"/>
        <pt x="634" y="1414" on="1"/>
        <pt x="584" y="1593" on="1"/>
      </contour>
    </TTGlyph>
    <TTGlyph name="Ibreve" xMin="328" yMin="0" xMax="1397" yMax="1894">
      <contour>
        <pt x="600" y="1791" on="1"/>
        <pt x="821" y="1894" on="1"/>
        <pt x="829" y="1856" on="1"/>
        <pt x="830" y="1851" on="0"/>
        <pt x="832" y="1801" on="0"/>
        <pt x="841" y="1763" on="0"/>
        <pt x="862" y="1718" on="0"/>
        <pt x="911" y="1692" on="0"/>
        <pt x="947" y="1692" on="1"/>
        <pt x="964" y="1692" on="0"/>
        <pt x="998" y="1698" on="0"/>
        <pt x="1033" y="1713" on="0"/>
        <pt x="1059" y="1725" on="0"/>
        <pt x="1097" y="1753" on="0"/>
        <pt x="1117" y="1767" on="0"/>
        <pt x="1157" y="1804" on="0"/>
        <pt x="1171" y="1817" on="0"/>
        <pt x="1214" y="1859" on="0"/>
        <pt x="1219" y="1863" on="1"/>
        <pt x="1252" y="1894" on="1"/>
        <pt x="1397" y="1771" on="1"/>
        <pt x="1361" y="1736" on="1"/>
        <pt x="1233" y="1613" on="0"/>
        <pt x="994" y="1472" on="0"/>
        <pt x="868" y="1472" on="1"/>
        <pt x="808" y="1472" on="0"/>
        <pt x="715" y="1506" on="0"/>
        <pt x="659" y="1559" on="0"/>
        <pt x="622" y="1638" on="0"/>
        <pt x="606" y="1712" on="0"/>
        <pt x="602" y="1758" on="1"/>
      </contour>
      <contour>
        <pt x="735" y="1421" on="1"/>
        <pt x="987" y="1421" on="1"/>
        <pt x="580" y="0" on="1"/>
        <pt x="328" y="0" on="1"/>
      </contour>
    </TTGlyph>
    <TTGlyph name="Icircumflex" xMin="338" yMin="0" xMax="1251" yMax="1943">
      <contour>
        <pt x="745" y="1421" on="1"/>
        <pt x="997" y="1421" on="1"/>
        <pt x="590" y="0" on="1"/>
        <pt x="338" y="0" on="1"/>
      </contour>
      <contour>
        <pt x="1039" y="1943" on="1"/>
        <pt x="1251" y="1594" on="1"/>
        <pt x="1056" y="1450" on="1"/>
        <pt x="938" y="1644" on="1"/>
        <pt x="707" y="1453" on="1"/>
        <pt x="595" y="1586" on="1"/>
      </contour>
    </TTGlyph>
    <TTGlyph name="Idieresis" xMin="290" yMin="0" xMax="1267" yMax="1824">
      <contour>
        <pt x="697" y="1421" on="1"/>
        <pt x="949" y="1421" on="1"/>
        <pt x="542" y="0" on="1"/>
        <pt x="290" y="0" on="1"/>
      </contour>
      <contour>
        <pt x="611" y="1824" on="1"/>
        <pt x="878" y="1824" on="1"/>
        <pt x="801" y="1557" on="1"/>
        <pt x="534" y="1557" on="1"/>
      </contour>
      <contour>
        <pt x="1000" y="1824" on="1"/>
        <pt x="1267" y="1824" on="1"/>
        <pt x="1190" y="1557" on="1"/>
        <pt x="923" y="1557" on="1"/>
      </contour>
    </TTGlyph>
    <TTGlyph name="Idotaccent" xMin="320" yMin="0" xMax="1114" yMax="1829">
      <contour>
        <pt x="822" y="1829" on="1"/>
        <pt x="1114" y="1829" on="1"/>
        <pt x="1031" y="1537" on="1"/>
        <pt x="739" y="1537" on="1"/>
      </contour>
      <contour>
        <pt x="727" y="1421" on="1"/>
        <pt x="979" y="1421" on="1"/>
        <pt x="572" y="0" on="1"/>
        <pt x="320" y="0" on="1"/>
      </contour>
    </TTGlyph>
    <TTGlyph name="Igrave" xMin="335" yMin="0" xMax="1279" yMax="1943">
      <contour>
        <pt x="742" y="1421" on="1"/>
        <pt x="994" y="1421" on="1"/>
        <pt x="587" y="0" on="1"/>
        <pt x="335" y="0" on="1"/>
      </contour>
      <contour>
        <pt x="806" y="1943" on="1"/>
        <pt x="1279" y="1590" on="1"/>
        <pt x="1124" y="1414" on="1"/>
        <pt x="637" y="1748" on="1"/>
      </contour>
    </TTGlyph>
    <TTGlyph name="Imacron" xMin="320" yMin="0" xMax="1179" yMax="1697">
      <contour>
        <pt x="687" y="1697" on="1"/>
        <pt x="1179" y="1697" on="1"/>
        <pt x="1118" y="1486" on="1"/>
        <pt x="626" y="1486" on="1"/>
      </contour>
      <contour>
        <pt x="727" y="1421" on="1"/>
        <pt x="979" y="1421" on="1"/>
        <pt x="572" y="0" on="1"/>
        <pt x="320" y="0" on="1"/>
      </contour>
    </TTGlyph>
    <TTGlyph name="Iogonek" xMin="-66" yMin="-544" xMax="979" yMax="1421">
      <contour>
        <pt x="118" y="-544" on="1"/>
        <pt x="30" y="-544" on="0"/>
        <pt x="-66" y="-452" on="0"/>
        <pt x="-66" y="-376" on="1"/>
        <pt x="-66" y="-260" on="0"/>
        <pt x="149" y="4" on="0"/>
        <pt x="348" y="96" on="1"/>
        <pt x="727" y="1421" on="1"/>
        <pt x="979" y="1421" on="1"/>
        <pt x="585" y="46" on="1"/>
        <pt x="561" y="35" on="1"/>
        <pt x="455" y="-15" on="0"/>
        <pt x="300" y="-113" on="0"/>
        <pt x="223" y="-190" on="0"/>
        <pt x="188" y="-241" on="0"/>
        <pt x="182" y="-262" on="1"/>
        <pt x="178" y="-276" on="0"/>
        <pt x="178" y="-286" on="1"/>
        <pt x="178" y="-330" on="0"/>
        <pt x="229" y="-330" on="1"/>
        <pt x="279" y="-330" on="0"/>
        <pt x="386" y="-276" on="1"/>
        <pt x="429" y="-254" on="1"/>
        <pt x="469" y="-413" on="1"/>
        <pt x="434" y="-434" on="1"/>
        <pt x="252" y="-544" on="0"/>
      </contour>
    </TTGlyph>
    <TTGlyph name="Itilde" xMin="329" yMin="0" xMax="1349" yMax="1874">
      <contour>
        <pt x="989" y="1468" on="1"/>
        <pt x="947" y="1468" on="0"/>
        <pt x="885" y="1508" on="0"/>
        <pt x="854" y="1564" on="0"/>
        <pt x="832" y="1620" on="0"/>
        <pt x="813" y="1660" on="0"/>
        <pt x="801" y="1660" on="1"/>
        <pt x="792" y="1660" on="0"/>
        <pt x="769" y="1626" on="0"/>
        <pt x="722" y="1541" on="1"/>
        <pt x="705" y="1511" on="0"/>
        <pt x="695" y="1493" on="1"/>
        <pt x="526" y="1542" on="1"/>
        <pt x="535" y="1558" on="0"/>
        <pt x="571" y="1625" on="0"/>
        <pt x="591" y="1661" on="0"/>
        <pt x="627" y="1721" on="0"/>
        <pt x="655" y="1756" on="0"/>
        <pt x="696" y="1802" on="0"/>
        <pt x="736" y="1829" on="0"/>
        <pt x="785" y="1855" on="0"/>
        <pt x="842" y="1866" on="0"/>
        <pt x="874" y="1866" on="1"/>
        <pt x="911" y="1866" on="0"/>
        <pt x="968" y="1839" on="0"/>
        <pt x="1000" y="1797" on="0"/>
        <pt x="1024" y="1750" on="0"/>
        <pt x="1037" y="1708" on="0"/>
        <pt x="1054" y="1681" on="0"/>
        <pt x="1063" y="1681" on="1"/>
        <pt x="1070" y="1681" on="0"/>
        <pt x="1087" y="1707" on="0"/>
        <pt x="1122" y="1769" on="1"/>
        <pt x="1156" y="1830" on="0"/>
        <pt x="1181" y="1874" on="1"/>
        <pt x="1349" y="1823" on="1"/>
        <pt x="1344" y="1813" on="0"/>
        <pt x="1295" y="1722" on="0"/>
        <pt x="1276" y="1689" on="0"/>
        <pt x="1225" y="1608" on="0"/>
        <pt x="1193" y="1572" on="0"/>
        <pt x="1137" y="1515" on="0"/>
        <pt x="1088" y="1489" on="0"/>
        <pt x="1023" y="1468" on="0"/>
      </contour>
      <contour>
        <pt x="329" y="0" on="1"/>
        <pt x="736" y="1421" on="1"/>
        <pt x="988" y="1421" on="1"/>
        <pt x="581" y="0" on="1"/>
      </contour>
    </TTGlyph>
    <TTGlyph name="J" xMin="115" yMin="-17" xMax="1321" yMax="1421">
      <contour>
        <pt x="1069" y="1421" on="1"/>
        <pt x="1321" y="1421" on="1"/>
        <pt x="1061" y="511" on="1"/>
        <pt x="1046" y="457" on="0"/>
        <pt x="1010" y="365" on="0"/>
        <pt x="949" y="254" on="0"/>
        <pt x="875" y="165" on="0"/>
        <pt x="764" y="77" on="0"/>
        <pt x="633" y="19" on="0"/>
        <pt x="453" y="-17" on="0"/>
        <pt x="349" y="-17" on="1"/>
        <pt x="241" y="-17" on="0"/>
        <pt x="150" y="8" on="1"/>
        <pt x="115" y="18" on="1"/>
        <pt x="221" y="240" on="1"/>
        <pt x="260" y="230" on="1"/>
        <pt x="318" y="215" on="0"/>
        <pt x="388" y="215" on="1"/>
        <pt x="454" y="215" on="0"/>
        <pt x="568" y="240" on="0"/>
        <pt x="647" y="277" on="0"/>
        <pt x="714" y="333" on="0"/>
        <pt x="754" y="383" on="0"/>
        <pt x="787" y="448" on="0"/>
        <pt x="802" y="488" on="0"/>
        <pt x="809" y="513" on="1"/>
      </contour>
    </TTGlyph>
    <TTGlyph name="Jcircumflex" xMin="115" yMin="-17" xMax="1565" yMax="1951">
      <contour>
        <pt x="1069" y="1421" on="1"/>
        <pt x="1321" y="1421" on="1"/>
        <pt x="1061" y="511" on="1"/>
        <pt x="1046" y="457" on="0"/>
        <pt x="1010" y="365" on="0"/>
        <pt x="949" y="254" on="0"/>
        <pt x="875" y="165" on="0"/>
        <pt x="764" y="77" on="0"/>
        <pt x="633" y="19" on="0"/>
        <pt x="453" y="-17" on="0"/>
        <pt x="349" y="-17" on="1"/>
        <pt x="241" y="-17" on="0"/>
        <pt x="150" y="8" on="1"/>
        <pt x="115" y="18" on="1"/>
        <pt x="221" y="240" on="1"/>
        <pt x="260" y="230" on="1"/>
        <pt x="318" y="215" on="0"/>
        <pt x="388" y="215" on="1"/>
        <pt x="454" y="215" on="0"/>
        <pt x="568" y="240" on="0"/>
        <pt x="647" y="277" on="0"/>
        <pt x="714" y="333" on="0"/>
        <pt x="754" y="383" on="0"/>
        <pt x="787" y="448" on="0"/>
        <pt x="802" y="488" on="0"/>
        <pt x="809" y="513" on="1"/>
      </contour>
      <contour>
        <pt x="1352" y="1951" on="1"/>
        <pt x="1565" y="1603" on="1"/>
        <pt x="1371" y="1458" on="1"/>
        <pt x="1252" y="1652" on="1"/>
        <pt x="1020" y="1461" on="1"/>
        <pt x="908" y="1594" on="1"/>
      </contour>
    </TTGlyph>
    <TTGlyph name="K" xMin="290" yMin="0" xMax="1920" yMax="1421">
      <contour>
        <pt x="763" y="770" on="1"/>
        <pt x="1597" y="1421" on="1"/>
        <pt x="1920" y="1421" on="1"/>
        <pt x="1042" y="741" on="1"/>
        <pt x="1549" y="0" on="1"/>
        <pt x="1222" y="0" on="1"/>
        <pt x="739" y="688" on="1"/>
        <pt x="542" y="0" on="1"/>
        <pt x="290" y="0" on="1"/>
        <pt x="697" y="1421" on="1"/>
        <pt x="949" y="1421" on="1"/>
      </contour>
    </TTGlyph>
    <TTGlyph name="Kcommaaccent" xMin="290" yMin="-512" xMax="1920" yMax="1421">
      <contour>
        <pt x="290" y="0" on="1"/>
        <pt x="697" y="1421" on="1"/>
        <pt x="949" y="1421" on="1"/>
        <pt x="763" y="770" on="1"/>
        <pt x="1597" y="1421" on="1"/>
        <pt x="1920" y="1421" on="1"/>
        <pt x="1042" y="741" on="1"/>
        <pt x="1549" y="0" on="1"/>
        <pt x="1222" y="0" on="1"/>
        <pt x="739" y="688" on="1"/>
        <pt x="542" y="0" on="1"/>
      </contour>
      <contour>
        <pt x="323" y="-512" on="1"/>
        <pt x="667" y="-40" on="1"/>
        <pt x="972" y="-40" on="1"/>
        <pt x="619" y="-512" on="1"/>
      </contour>
    </TTGlyph>
    <TTGlyph name="L" xMin="290" yMin="0" xMax="1328" yMax="1421">
      <contour>
        <pt x="697" y="1421" on="1"/>
        <pt x="949" y="1421" on="1"/>
        <pt x="608" y="231" on="1"/>
        <pt x="1328" y="231" on="1"/>
        <pt x="1262" y="0" on="1"/>
        <pt x="290" y="0" on="1"/>
      </contour>
    </TTGlyph>
    <TTGlyph name="Lacute" xMin="304" yMin="0" xMax="1565" yMax="1992">
      <contour>
        <pt x="711" y="1421" on="1"/>
        <pt x="963" y="1421" on="1"/>
        <pt x="628" y="231" on="1"/>
        <pt x="1342" y="231" on="1"/>
        <pt x="1276" y="0" on="1"/>
        <pt x="304" y="0" on="1"/>
      </contour>
      <contour>
        <pt x="1491" y="1992" on="1"/>
        <pt x="1565" y="1797" on="1"/>
        <pt x="804" y="1461" on="1"/>
        <pt x="753" y="1639" on="1"/>
      </contour>
    </TTGlyph>
    <TTGlyph name="Lcaron" xMin="290" yMin="0" xMax="1605" yMax="1421">
      <contour>
        <pt x="1336" y="1421" on="1"/>
        <pt x="1605" y="1421" on="1"/>
        <pt x="1278" y="949" on="1"/>
        <pt x="1010" y="949" on="1"/>
      </contour>
      <contour>
        <pt x="697" y="1421" on="1"/>
        <pt x="949" y="1421" on="1"/>
        <pt x="608" y="231" on="1"/>
        <pt x="1328" y="231" on="1"/>
        <pt x="1262" y="0" on="1"/>
        <pt x="290" y="0" on="1"/>
      </contour>
    </TTGlyph>
    <TTGlyph name="Lcommaaccent" xMin="141" yMin="-512" xMax="1348" yMax="1421">
      <contour>
        <pt x="717" y="1421" on="1"/>
        <pt x="969" y="1421" on="1"/>
        <pt x="633" y="231" on="1"/>
        <pt x="1348" y="231" on="1"/>
        <pt x="1282" y="0" on="1"/>
        <pt x="310" y="0" on="1"/>
      </contour>
      <contour>
        <pt x="468" y="-40" on="1"/>
        <pt x="778" y="-40" on="1"/>
        <pt x="414" y="-512" on="1"/>
        <pt x="141" y="-512" on="1"/>
      </contour>
    </TTGlyph>
    <TTGlyph name="Ldot" xMin="290" yMin="0" xMax="1328" yMax="1421">
      <contour>
        <pt x="697" y="1421" on="1"/>
        <pt x="949" y="1421" on="1"/>
        <pt x="608" y="231" on="1"/>
        <pt x="1328" y="231" on="1"/>
        <pt x="1262" y="0" on="1"/>
        <pt x="290" y="0" on="1"/>
      </contour>
      <contour>
        <pt x="956" y="864" on="1"/>
        <pt x="1301" y="864" on="1"/>
        <pt x="1217" y="572" on="1"/>
        <pt x="872" y="572" on="1"/>
      </contour>
    </TTGlyph>
    <TTGlyph name="Lslash" xMin="266" yMin="0" xMax="1328" yMax="1421">
      <contour>
        <pt x="697" y="1421" on="1"/>
        <pt x="949" y="1421" on="1"/>
        <pt x="799" y="897" on="1"/>
        <pt x="1156" y="1047" on="1"/>
        <pt x="1080" y="780" on="1"/>
        <pt x="749" y="641" on="1"/>
        <pt x="631" y="231" on="1"/>
        <pt x="1328" y="231" on="1"/>
        <pt x="1262" y="0" on="1"/>
        <pt x="290" y="0" on="1"/>
        <pt x="432" y="496" on="1"/>
        <pt x="266" y="418" on="1"/>
        <pt x="338" y="670" on="1"/>
        <pt x="504" y="748" on="1"/>
      </contour>
    </TTGlyph>
    <TTGlyph name="M" xMin="290" yMin="0" xMax="2245" yMax="1421">
      <contour>
        <pt x="697" y="1421" on="1"/>
        <pt x="1003" y="1421" on="1"/>
        <pt x="1241" y="605" on="1"/>
        <pt x="1954" y="1421" on="1"/>
        <pt x="2245" y="1421" on="1"/>
        <pt x="1838" y="0" on="1"/>
        <pt x="1586" y="0" on="1"/>
        <pt x="1891" y="1063" on="1"/>
        <pt x="1299" y="407" on="1"/>
        <pt x="1061" y="407" on="1"/>
        <pt x="847" y="1063" on="1"/>
        <pt x="542" y="0" on="1"/>
        <pt x="290" y="0" on="1"/>
      </contour>
    </TTGlyph>
    <TTGlyph name="N" xMin="290" yMin="0" xMax="2020" yMax="1421">
      <contour>
        <pt x="697" y="1421" on="1"/>
        <pt x="975" y="1421" on="1"/>
        <pt x="1455" y="329" on="1"/>
        <pt x="1768" y="1421" on="1"/>
        <pt x="2020" y="1421" on="1"/>
        <pt x="1613" y="0" on="1"/>
        <pt x="1332" y="0" on="1"/>
        <pt x="856" y="1094" on="1"/>
        <pt x="542" y="0" on="1"/>
        <pt x="290" y="0" on="1"/>
      </contour>
    </TTGlyph>
    <TTGlyph name="Nacute" xMin="290" yMin="0" xMax="2020" yMax="1992">
      <contour>
        <pt x="697" y="1421" on="1"/>
        <pt x="975" y="1421" on="1"/>
        <pt x="1455" y="329" on="1"/>
        <pt x="1768" y="1421" on="1"/>
        <pt x="2020" y="1421" on="1"/>
        <pt x="1613" y="0" on="1"/>
        <pt x="1332" y="0" on="1"/>
        <pt x="856" y="1094" on="1"/>
        <pt x="542" y="0" on="1"/>
        <pt x="290" y="0" on="1"/>
      </contour>
      <contour>
        <pt x="1785" y="1992" on="1"/>
        <pt x="1853" y="1797" on="1"/>
        <pt x="1107" y="1461" on="1"/>
        <pt x="1044" y="1639" on="1"/>
      </contour>
    </TTGlyph>
    <TTGlyph name="Ncaron" xMin="290" yMin="0" xMax="2020" yMax="1950">
      <contour>
        <pt x="697" y="1421" on="1"/>
        <pt x="975" y="1421" on="1"/>
        <pt x="1455" y="329" on="1"/>
        <pt x="1768" y="1421" on="1"/>
        <pt x="2020" y="1421" on="1"/>
        <pt x="1613" y="0" on="1"/>
        <pt x="1332" y="0" on="1"/>
        <pt x="856" y="1094" on="1"/>
        <pt x="542" y="0" on="1"/>
        <pt x="290" y="0" on="1"/>
      </contour>
      <contour>
        <pt x="1408" y="1457" on="1"/>
        <pt x="1159" y="1806" on="1"/>
        <pt x="1372" y="1950" on="1"/>
        <pt x="1510" y="1756" on="1"/>
        <pt x="1762" y="1947" on="1"/>
        <pt x="1890" y="1814" on="1"/>
      </contour>
    </TTGlyph>
    <TTGlyph name="Ncommaaccent" xMin="290" yMin="-512" xMax="2020" yMax="1421">
      <contour>
        <pt x="787" y="-40" on="1"/>
        <pt x="1087" y="-40" on="1"/>
        <pt x="737" y="-512" on="1"/>
        <pt x="438" y="-512" on="1"/>
      </contour>
      <contour>
        <pt x="697" y="1421" on="1"/>
        <pt x="975" y="1421" on="1"/>
        <pt x="1455" y="329" on="1"/>
        <pt x="1768" y="1421" on="1"/>
        <pt x="2020" y="1421" on="1"/>
        <pt x="1613" y="0" on="1"/>
        <pt x="1332" y="0" on="1"/>
        <pt x="856" y="1094" on="1"/>
        <pt x="542" y="0" on="1"/>
        <pt x="290" y="0" on="1"/>
      </contour>
    </TTGlyph>
    <TTGlyph name="Ntilde" xMin="290" yMin="0" xMax="2020" yMax="1884">
      <contour>
        <pt x="1770" y="1884" on="1"/>
        <pt x="1967" y="1854" on="1"/>
        <pt x="1946" y="1812" on="1"/>
        <pt x="1942" y="1804" on="0"/>
        <pt x="1934" y="1787" on="1"/>
        <pt x="1917" y="1752" on="0"/>
        <pt x="1898" y="1713" on="0"/>
        <pt x="1857" y="1642" on="0"/>
        <pt x="1822" y="1599" on="0"/>
        <pt x="1766" y="1544" on="0"/>
        <pt x="1710" y="1514" on="0"/>
        <pt x="1633" y="1492" on="0"/>
        <pt x="1591" y="1492" on="1"/>
        <pt x="1535" y="1494" on="0"/>
        <pt x="1443" y="1533" on="0"/>
        <pt x="1387" y="1586" on="0"/>
        <pt x="1344" y="1638" on="0"/>
        <pt x="1308" y="1674" on="0"/>
        <pt x="1293" y="1674" on="1"/>
        <pt x="1280" y="1674" on="0"/>
        <pt x="1255" y="1655" on="0"/>
        <pt x="1226" y="1609" on="0"/>
        <pt x="1210" y="1580" on="0"/>
        <pt x="1193" y="1545" on="1"/>
        <pt x="1186" y="1532" on="0"/>
        <pt x="1183" y="1525" on="1"/>
        <pt x="1164" y="1487" on="1"/>
        <pt x="964" y="1513" on="1"/>
        <pt x="985" y="1556" on="1"/>
        <pt x="989" y="1563" on="0"/>
        <pt x="1017" y="1621" on="0"/>
        <pt x="1030" y="1646" on="0"/>
        <pt x="1062" y="1703" on="0"/>
        <pt x="1084" y="1733" on="0"/>
        <pt x="1123" y="1783" on="0"/>
        <pt x="1156" y="1810" on="0"/>
        <pt x="1204" y="1845" on="0"/>
        <pt x="1252" y="1863" on="0"/>
        <pt x="1312" y="1876" on="0"/>
        <pt x="1344" y="1876" on="1"/>
        <pt x="1400" y="1874" on="0"/>
        <pt x="1492" y="1835" on="0"/>
        <pt x="1548" y="1782" on="0"/>
        <pt x="1591" y="1731" on="0"/>
        <pt x="1627" y="1695" on="0"/>
        <pt x="1642" y="1695" on="1"/>
        <pt x="1650" y="1695" on="0"/>
        <pt x="1666" y="1702" on="0"/>
        <pt x="1682" y="1721" on="0"/>
        <pt x="1694" y="1737" on="0"/>
        <pt x="1712" y="1770" on="0"/>
        <pt x="1723" y="1790" on="0"/>
        <pt x="1745" y="1834" on="0"/>
        <pt x="1750" y="1845" on="1"/>
      </contour>
      <contour>
        <pt x="697" y="1421" on="1"/>
        <pt x="975" y="1421" on="1"/>
        <pt x="1455" y="329" on="1"/>
        <pt x="1768" y="1421" on="1"/>
        <pt x="2020" y="1421" on="1"/>
        <pt x="1613" y="0" on="1"/>
        <pt x="1332" y="0" on="1"/>
        <pt x="856" y="1094" on="1"/>
        <pt x="542" y="0" on="1"/>
        <pt x="290" y="0" on="1"/>
      </contour>
    </TTGlyph>
    <TTGlyph name="O" xMin="383" yMin="-15" xMax="1957" yMax="1436">
      <contour>
        <pt x="1378" y="1436" on="1"/>
        <pt x="1646" y="1436" on="0"/>
        <pt x="1957" y="1176" on="0"/>
        <pt x="1957" y="947" on="1"/>
        <pt x="1957" y="843" on="0"/>
        <pt x="1923" y="726" on="1"/>
        <pt x="1861" y="508" on="0"/>
        <pt x="1574" y="171" on="0"/>
        <pt x="1177" y="-15" on="0"/>
        <pt x="954" y="-15" on="1"/>
        <pt x="833" y="-15" on="0"/>
        <pt x="627" y="47" on="0"/>
        <pt x="471" y="167" on="0"/>
        <pt x="383" y="357" on="0"/>
        <pt x="383" y="477" on="1"/>
        <pt x="383" y="584" on="0"/>
        <pt x="418" y="707" on="1"/>
        <pt x="481" y="926" on="0"/>
        <pt x="768" y="1259" on="0"/>
        <pt x="1159" y="1436" on="0"/>
      </contour>
      <contour>
        <pt x="1302" y="1205" on="1"/>
        <pt x="1211" y="1205" on="0"/>
        <pt x="1027" y="1148" on="0"/>
        <pt x="854" y="1036" on="0"/>
        <pt x="716" y="847" on="0"/>
        <pt x="681" y="727" on="1"/>
        <pt x="656" y="640" on="0"/>
        <pt x="656" y="564" on="1"/>
        <pt x="656" y="402" on="0"/>
        <pt x="863" y="216" on="0"/>
        <pt x="1035" y="216" on="1"/>
        <pt x="1124" y="216" on="0"/>
        <pt x="1308" y="274" on="0"/>
        <pt x="1482" y="388" on="0"/>
        <pt x="1624" y="584" on="0"/>
        <pt x="1660" y="709" on="1"/>
        <pt x="1685" y="796" on="0"/>
        <pt x="1685" y="869" on="1"/>
        <pt x="1685" y="954" on="0"/>
        <pt x="1620" y="1087" on="0"/>
        <pt x="1511" y="1165" on="0"/>
        <pt x="1377" y="1205" on="0"/>
      </contour>
    </TTGlyph>
    <TTGlyph name="OE" xMin="379" yMin="0" xMax="2409" yMax="1421">
      <contour>
        <pt x="1157" y="232" on="1"/>
        <pt x="1431" y="1189" on="1"/>
        <pt x="1414" y="1189" on="1"/>
        <pt x="1289" y="1189" on="0"/>
        <pt x="1217" y="1180" on="1"/>
        <pt x="1013" y="1153" on="0"/>
        <pt x="725" y="902" on="0"/>
        <pt x="668" y="702" on="1"/>
        <pt x="645" y="622" on="0"/>
        <pt x="645" y="554" on="1"/>
        <pt x="645" y="444" on="0"/>
        <pt x="747" y="308" on="0"/>
        <pt x="820" y="273" on="1"/>
        <pt x="874" y="247" on="0"/>
        <pt x="985" y="232" on="0"/>
        <pt x="1066" y="232" on="1"/>
      </contour>
      <contour>
        <pt x="753" y="1223" on="1"/>
        <pt x="845" y="1291" on="0"/>
        <pt x="1051" y="1377" on="0"/>
        <pt x="1279" y="1412" on="0"/>
        <pt x="1435" y="1421" on="0"/>
        <pt x="1553" y="1421" on="1"/>
        <pt x="2409" y="1421" on="1"/>
        <pt x="2343" y="1189" on="1"/>
        <pt x="1700" y="1189" on="1"/>
        <pt x="1602" y="848" on="1"/>
        <pt x="2190" y="848" on="1"/>
        <pt x="2124" y="616" on="1"/>
        <pt x="1536" y="616" on="1"/>
        <pt x="1426" y="232" on="1"/>
        <pt x="2069" y="232" on="1"/>
        <pt x="2002" y="0" on="1"/>
        <pt x="1051" y="0" on="1"/>
        <pt x="917" y="0" on="0"/>
        <pt x="716" y="22" on="0"/>
        <pt x="631" y="58" on="1"/>
        <pt x="510" y="110" on="0"/>
        <pt x="379" y="312" on="0"/>
        <pt x="379" y="459" on="1"/>
        <pt x="379" y="571" on="0"/>
        <pt x="417" y="703" on="1"/>
        <pt x="513" y="1039" on="0"/>
      </contour>
    </TTGlyph>
    <TTGlyph name="Oacute" xMin="383" yMin="-15" xMax="1957" yMax="1946">
      <contour>
        <pt x="1378" y="1436" on="1"/>
        <pt x="1646" y="1436" on="0"/>
        <pt x="1957" y="1176" on="0"/>
        <pt x="1957" y="947" on="1"/>
        <pt x="1957" y="843" on="0"/>
        <pt x="1923" y="726" on="1"/>
        <pt x="1861" y="508" on="0"/>
        <pt x="1574" y="171" on="0"/>
        <pt x="1177" y="-15" on="0"/>
        <pt x="954" y="-15" on="1"/>
        <pt x="833" y="-15" on="0"/>
        <pt x="627" y="47" on="0"/>
        <pt x="471" y="167" on="0"/>
        <pt x="383" y="357" on="0"/>
        <pt x="383" y="477" on="1"/>
        <pt x="383" y="584" on="0"/>
        <pt x="418" y="707" on="1"/>
        <pt x="481" y="926" on="0"/>
        <pt x="768" y="1259" on="0"/>
        <pt x="1159" y="1436" on="0"/>
      </contour>
      <contour>
        <pt x="1660" y="709" on="1"/>
        <pt x="1685" y="796" on="0"/>
        <pt x="1685" y="869" on="1"/>
        <pt x="1685" y="954" on="0"/>
        <pt x="1621" y="1087" on="0"/>
        <pt x="1510" y="1165" on="0"/>
        <pt x="1375" y="1205" on="0"/>
        <pt x="1299" y="1205" on="1"/>
        <pt x="1211" y="1205" on="0"/>
        <pt x="1029" y="1148" on="0"/>
        <pt x="855" y="1037" on="0"/>
        <pt x="715" y="848" on="0"/>
        <pt x="681" y="727" on="1"/>
        <pt x="656" y="640" on="0"/>
        <pt x="656" y="564" on="1"/>
        <pt x="656" y="402" on="0"/>
        <pt x="863" y="216" on="0"/>
        <pt x="1035" y="216" on="1"/>
        <pt x="1124" y="216" on="0"/>
        <pt x="1308" y="274" on="0"/>
        <pt x="1482" y="388" on="0"/>
        <pt x="1624" y="584" on="0"/>
      </contour>
      <contour>
        <pt x="1783" y="1946" on="1"/>
        <pt x="1848" y="1751" on="1"/>
        <pt x="1116" y="1414" on="1"/>
        <pt x="1057" y="1593" on="1"/>
      </contour>
    </TTGlyph>
    <TTGlyph name="Obreve" xMin="383" yMin="-15" xMax="1997" yMax="1897">
      <contour>
        <pt x="1032" y="1794" on="1"/>
        <pt x="1271" y="1897" on="1"/>
        <pt x="1280" y="1859" on="1"/>
        <pt x="1284" y="1843" on="0"/>
        <pt x="1295" y="1812" on="0"/>
        <pt x="1324" y="1760" on="0"/>
        <pt x="1362" y="1723" on="0"/>
        <pt x="1427" y="1695" on="0"/>
        <pt x="1467" y="1695" on="1"/>
        <pt x="1545" y="1695" on="0"/>
        <pt x="1726" y="1797" on="0"/>
        <pt x="1802" y="1866" on="1"/>
        <pt x="1836" y="1897" on="1"/>
        <pt x="1997" y="1774" on="1"/>
        <pt x="1960" y="1739" on="1"/>
        <pt x="1834" y="1625" on="0"/>
        <pt x="1528" y="1475" on="0"/>
        <pt x="1387" y="1475" on="1"/>
        <pt x="1305" y="1475" on="0"/>
        <pt x="1172" y="1525" on="0"/>
        <pt x="1090" y="1608" on="0"/>
        <pt x="1042" y="1707" on="0"/>
        <pt x="1036" y="1761" on="1"/>
      </contour>
      <contour>
        <pt x="1660" y="709" on="1"/>
        <pt x="1685" y="796" on="0"/>
        <pt x="1685" y="869" on="1"/>
        <pt x="1685" y="954" on="0"/>
        <pt x="1621" y="1086" on="0"/>
        <pt x="1511" y="1165" on="0"/>
        <pt x="1376" y="1205" on="0"/>
        <pt x="1299" y="1205" on="1"/>
        <pt x="1211" y="1205" on="0"/>
        <pt x="1029" y="1148" on="0"/>
        <pt x="855" y="1037" on="0"/>
        <pt x="715" y="848" on="0"/>
        <pt x="681" y="727" on="1"/>
        <pt x="656" y="640" on="0"/>
        <pt x="656" y="564" on="1"/>
        <pt x="656" y="402" on="0"/>
        <pt x="863" y="216" on="0"/>
        <pt x="1035" y="216" on="1"/>
        <pt x="1124" y="216" on="0"/>
        <pt x="1308" y="274" on="0"/>
        <pt x="1482" y="388" on="0"/>
        <pt x="1624" y="584" on="0"/>
      </contour>
      <contour>
        <pt x="1378" y="1436" on="1"/>
        <pt x="1646" y="1436" on="0"/>
        <pt x="1957" y="1176" on="0"/>
        <pt x="1957" y="947" on="1"/>
        <pt x="1957" y="843" on="0"/>
        <pt x="1923" y="726" on="1"/>
        <pt x="1861" y="508" on="0"/>
        <pt x="1574" y="171" on="0"/>
        <pt x="1177" y="-15" on="0"/>
        <pt x="954" y="-15" on="1"/>
        <pt x="833" y="-15" on="0"/>
        <pt x="627" y="47" on="0"/>
        <pt x="471" y="167" on="0"/>
        <pt x="383" y="357" on="0"/>
        <pt x="383" y="477" on="1"/>
        <pt x="383" y="584" on="0"/>
        <pt x="418" y="707" on="1"/>
        <pt x="481" y="926" on="0"/>
        <pt x="768" y="1259" on="0"/>
        <pt x="1159" y="1436" on="0"/>
      </contour>
    </TTGlyph>
    <TTGlyph name="Ocircumflex" xMin="383" yMin="-15" xMax="1957" yMax="1943">
      <contour>
        <pt x="1378" y="1436" on="1"/>
        <pt x="1646" y="1436" on="0"/>
        <pt x="1957" y="1176" on="0"/>
        <pt x="1957" y="947" on="1"/>
        <pt x="1957" y="843" on="0"/>
        <pt x="1923" y="726" on="1"/>
        <pt x="1861" y="508" on="0"/>
        <pt x="1574" y="171" on="0"/>
        <pt x="1177" y="-15" on="0"/>
        <pt x="954" y="-15" on="1"/>
        <pt x="833" y="-15" on="0"/>
        <pt x="627" y="47" on="0"/>
        <pt x="471" y="167" on="0"/>
        <pt x="383" y="357" on="0"/>
        <pt x="383" y="477" on="1"/>
        <pt x="383" y="584" on="0"/>
        <pt x="418" y="707" on="1"/>
        <pt x="481" y="926" on="0"/>
        <pt x="768" y="1259" on="0"/>
        <pt x="1159" y="1436" on="0"/>
      </contour>
      <contour>
        <pt x="1660" y="709" on="1"/>
        <pt x="1685" y="796" on="0"/>
        <pt x="1685" y="869" on="1"/>
        <pt x="1685" y="954" on="0"/>
        <pt x="1621" y="1087" on="0"/>
        <pt x="1510" y="1165" on="0"/>
        <pt x="1375" y="1205" on="0"/>
        <pt x="1299" y="1205" on="1"/>
        <pt x="1211" y="1205" on="0"/>
        <pt x="1029" y="1148" on="0"/>
        <pt x="855" y="1037" on="0"/>
        <pt x="715" y="848" on="0"/>
        <pt x="681" y="727" on="1"/>
        <pt x="656" y="640" on="0"/>
        <pt x="656" y="564" on="1"/>
        <pt x="656" y="402" on="0"/>
        <pt x="863" y="216" on="0"/>
        <pt x="1035" y="216" on="1"/>
        <pt x="1124" y="216" on="0"/>
        <pt x="1308" y="274" on="0"/>
        <pt x="1482" y="388" on="0"/>
        <pt x="1624" y="584" on="0"/>
      </contour>
      <contour>
        <pt x="1555" y="1943" on="1"/>
        <pt x="1794" y="1595" on="1"/>
        <pt x="1587" y="1450" on="1"/>
        <pt x="1453" y="1644" on="1"/>
        <pt x="1205" y="1453" on="1"/>
        <pt x="1080" y="1586" on="1"/>
      </contour>
    </TTGlyph>
    <TTGlyph name="Odieresis" xMin="383" yMin="-15" xMax="1957" yMax="1898">
      <contour>
        <pt x="1378" y="1436" on="1"/>
        <pt x="1646" y="1436" on="0"/>
        <pt x="1957" y="1176" on="0"/>
        <pt x="1957" y="947" on="1"/>
        <pt x="1957" y="843" on="0"/>
        <pt x="1923" y="726" on="1"/>
        <pt x="1861" y="508" on="0"/>
        <pt x="1574" y="171" on="0"/>
        <pt x="1177" y="-15" on="0"/>
        <pt x="954" y="-15" on="1"/>
        <pt x="833" y="-15" on="0"/>
        <pt x="627" y="47" on="0"/>
        <pt x="471" y="167" on="0"/>
        <pt x="383" y="357" on="0"/>
        <pt x="383" y="477" on="1"/>
        <pt x="383" y="584" on="0"/>
        <pt x="418" y="707" on="1"/>
        <pt x="481" y="926" on="0"/>
        <pt x="768" y="1259" on="0"/>
        <pt x="1159" y="1436" on="0"/>
      </contour>
      <contour>
        <pt x="1660" y="709" on="1"/>
        <pt x="1685" y="796" on="0"/>
        <pt x="1685" y="869" on="1"/>
        <pt x="1685" y="954" on="0"/>
        <pt x="1621" y="1087" on="0"/>
        <pt x="1510" y="1165" on="0"/>
        <pt x="1375" y="1205" on="0"/>
        <pt x="1299" y="1205" on="1"/>
        <pt x="1211" y="1205" on="0"/>
        <pt x="1029" y="1148" on="0"/>
        <pt x="855" y="1037" on="0"/>
        <pt x="715" y="848" on="0"/>
        <pt x="681" y="727" on="1"/>
        <pt x="656" y="640" on="0"/>
        <pt x="656" y="564" on="1"/>
        <pt x="656" y="402" on="0"/>
        <pt x="863" y="216" on="0"/>
        <pt x="1035" y="216" on="1"/>
        <pt x="1124" y="216" on="0"/>
        <pt x="1308" y="274" on="0"/>
        <pt x="1482" y="388" on="0"/>
        <pt x="1624" y="584" on="0"/>
      </contour>
      <contour>
        <pt x="1130" y="1898" on="1"/>
        <pt x="1421" y="1898" on="1"/>
        <pt x="1345" y="1631" on="1"/>
        <pt x="1054" y="1631" on="1"/>
      </contour>
      <contour>
        <pt x="1619" y="1898" on="1"/>
        <pt x="1910" y="1898" on="1"/>
        <pt x="1834" y="1631" on="1"/>
        <pt x="1543" y="1631" on="1"/>
      </contour>
    </TTGlyph>
    <TTGlyph name="Ograve" xMin="383" yMin="-15" xMax="1957" yMax="1948">
      <contour>
        <pt x="1378" y="1436" on="1"/>
        <pt x="1646" y="1436" on="0"/>
        <pt x="1957" y="1176" on="0"/>
        <pt x="1957" y="947" on="1"/>
        <pt x="1957" y="843" on="0"/>
        <pt x="1923" y="726" on="1"/>
        <pt x="1861" y="508" on="0"/>
        <pt x="1574" y="171" on="0"/>
        <pt x="1177" y="-15" on="0"/>
        <pt x="954" y="-15" on="1"/>
        <pt x="833" y="-15" on="0"/>
        <pt x="627" y="47" on="0"/>
        <pt x="471" y="167" on="0"/>
        <pt x="383" y="357" on="0"/>
        <pt x="383" y="477" on="1"/>
        <pt x="383" y="584" on="0"/>
        <pt x="418" y="707" on="1"/>
        <pt x="481" y="926" on="0"/>
        <pt x="768" y="1259" on="0"/>
        <pt x="1159" y="1436" on="0"/>
      </contour>
      <contour>
        <pt x="1660" y="709" on="1"/>
        <pt x="1685" y="796" on="0"/>
        <pt x="1685" y="869" on="1"/>
        <pt x="1685" y="954" on="0"/>
        <pt x="1621" y="1087" on="0"/>
        <pt x="1510" y="1165" on="0"/>
        <pt x="1375" y="1205" on="0"/>
        <pt x="1299" y="1205" on="1"/>
        <pt x="1211" y="1205" on="0"/>
        <pt x="1029" y="1148" on="0"/>
        <pt x="855" y="1037" on="0"/>
        <pt x="715" y="848" on="0"/>
        <pt x="681" y="727" on="1"/>
        <pt x="656" y="640" on="0"/>
        <pt x="656" y="564" on="1"/>
        <pt x="656" y="402" on="0"/>
        <pt x="863" y="216" on="0"/>
        <pt x="1035" y="216" on="1"/>
        <pt x="1124" y="216" on="0"/>
        <pt x="1308" y="274" on="0"/>
        <pt x="1482" y="388" on="0"/>
        <pt x="1624" y="584" on="0"/>
      </contour>
      <contour>
        <pt x="1349" y="1948" on="1"/>
        <pt x="1872" y="1595" on="1"/>
        <pt x="1708" y="1417" on="1"/>
        <pt x="1171" y="1753" on="1"/>
      </contour>
    </TTGlyph>
    <TTGlyph name="Ohungarumlaut" xMin="383" yMin="-15" xMax="2229" yMax="2011">
      <contour>
        <pt x="2153" y="2011" on="1"/>
        <pt x="2229" y="1827" on="1"/>
        <pt x="1539" y="1441" on="1"/>
        <pt x="1458" y="1609" on="1"/>
      </contour>
      <contour>
        <pt x="1597" y="2011" on="1"/>
        <pt x="1684" y="1827" on="1"/>
        <pt x="973" y="1441" on="1"/>
        <pt x="894" y="1609" on="1"/>
      </contour>
      <contour>
        <pt x="1660" y="709" on="1"/>
        <pt x="1685" y="796" on="0"/>
        <pt x="1685" y="869" on="1"/>
        <pt x="1685" y="954" on="0"/>
        <pt x="1621" y="1086" on="0"/>
        <pt x="1511" y="1165" on="0"/>
        <pt x="1376" y="1205" on="0"/>
        <pt x="1299" y="1205" on="1"/>
        <pt x="1211" y="1205" on="0"/>
        <pt x="1029" y="1148" on="0"/>
        <pt x="855" y="1037" on="0"/>
        <pt x="715" y="848" on="0"/>
        <pt x="681" y="727" on="1"/>
        <pt x="656" y="640" on="0"/>
        <pt x="656" y="564" on="1"/>
        <pt x="656" y="402" on="0"/>
        <pt x="863" y="216" on="0"/>
        <pt x="1035" y="216" on="1"/>
        <pt x="1124" y="216" on="0"/>
        <pt x="1308" y="274" on="0"/>
        <pt x="1482" y="388" on="0"/>
        <pt x="1624" y="584" on="0"/>
      </contour>
      <contour>
        <pt x="1378" y="1436" on="1"/>
        <pt x="1646" y="1436" on="0"/>
        <pt x="1957" y="1176" on="0"/>
        <pt x="1957" y="947" on="1"/>
        <pt x="1957" y="843" on="0"/>
        <pt x="1923" y="726" on="1"/>
        <pt x="1861" y="508" on="0"/>
        <pt x="1574" y="171" on="0"/>
        <pt x="1177" y="-15" on="0"/>
        <pt x="954" y="-15" on="1"/>
        <pt x="833" y="-15" on="0"/>
        <pt x="627" y="47" on="0"/>
        <pt x="471" y="167" on="0"/>
        <pt x="383" y="357" on="0"/>
        <pt x="383" y="477" on="1"/>
        <pt x="383" y="584" on="0"/>
        <pt x="418" y="707" on="1"/>
        <pt x="481" y="926" on="0"/>
        <pt x="768" y="1259" on="0"/>
        <pt x="1159" y="1436" on="0"/>
      </contour>
    </TTGlyph>
    <TTGlyph name="Omacron" xMin="383" yMin="-15" xMax="1957" yMax="1697">
      <contour>
        <pt x="1660" y="709" on="1"/>
        <pt x="1685" y="796" on="0"/>
        <pt x="1685" y="869" on="1"/>
        <pt x="1685" y="954" on="0"/>
        <pt x="1621" y="1086" on="0"/>
        <pt x="1511" y="1165" on="0"/>
        <pt x="1376" y="1205" on="0"/>
        <pt x="1299" y="1205" on="1"/>
        <pt x="1211" y="1205" on="0"/>
        <pt x="1029" y="1148" on="0"/>
        <pt x="855" y="1037" on="0"/>
        <pt x="715" y="848" on="0"/>
        <pt x="681" y="727" on="1"/>
        <pt x="656" y="640" on="0"/>
        <pt x="656" y="564" on="1"/>
        <pt x="656" y="402" on="0"/>
        <pt x="863" y="216" on="0"/>
        <pt x="1035" y="216" on="1"/>
        <pt x="1124" y="216" on="0"/>
        <pt x="1308" y="274" on="0"/>
        <pt x="1482" y="388" on="0"/>
        <pt x="1624" y="584" on="0"/>
      </contour>
      <contour>
        <pt x="1378" y="1436" on="1"/>
        <pt x="1646" y="1436" on="0"/>
        <pt x="1957" y="1176" on="0"/>
        <pt x="1957" y="947" on="1"/>
        <pt x="1957" y="843" on="0"/>
        <pt x="1923" y="726" on="1"/>
        <pt x="1861" y="508" on="0"/>
        <pt x="1574" y="171" on="0"/>
        <pt x="1177" y="-15" on="0"/>
        <pt x="954" y="-15" on="1"/>
        <pt x="833" y="-15" on="0"/>
        <pt x="627" y="47" on="0"/>
        <pt x="471" y="167" on="0"/>
        <pt x="383" y="357" on="0"/>
        <pt x="383" y="477" on="1"/>
        <pt x="383" y="584" on="0"/>
        <pt x="418" y="707" on="1"/>
        <pt x="481" y="926" on="0"/>
        <pt x="768" y="1259" on="0"/>
        <pt x="1159" y="1436" on="0"/>
      </contour>
      <contour>
        <pt x="1025" y="1697" on="1"/>
        <pt x="1920" y="1697" on="1"/>
        <pt x="1859" y="1486" on="1"/>
        <pt x="964" y="1486" on="1"/>
      </contour>
    </TTGlyph>
    <TTGlyph name="Oslash" xMin="196" yMin="-15" xMax="2174" yMax="1436">
      <contour>
        <pt x="1322" y="1205" on="1"/>
        <pt x="1231" y="1205" on="0"/>
        <pt x="1047" y="1148" on="0"/>
        <pt x="874" y="1036" on="0"/>
        <pt x="736" y="847" on="0"/>
        <pt x="701" y="727" on="1"/>
        <pt x="676" y="640" on="0"/>
        <pt x="676" y="563" on="1"/>
        <pt x="676" y="511" on="0"/>
        <pt x="689" y="461" on="1"/>
        <pt x="1622" y="1093" on="1"/>
        <pt x="1514" y="1205" on="0"/>
      </contour>
      <contour>
        <pt x="2102" y="1417" on="1"/>
        <pt x="2174" y="1289" on="1"/>
        <pt x="1944" y="1134" on="1"/>
        <pt x="1977" y="1046" on="0"/>
        <pt x="1977" y="946" on="1"/>
        <pt x="1977" y="843" on="0"/>
        <pt x="1943" y="726" on="1"/>
        <pt x="1881" y="508" on="0"/>
        <pt x="1594" y="171" on="0"/>
        <pt x="1197" y="-15" on="0"/>
        <pt x="974" y="-15" on="1"/>
        <pt x="827" y="-15" on="0"/>
        <pt x="586" y="75" on="0"/>
        <pt x="510" y="163" on="1"/>
        <pt x="267" y="-1" on="1"/>
        <pt x="196" y="128" on="1"/>
        <pt x="435" y="289" on="1"/>
        <pt x="403" y="371" on="0"/>
        <pt x="403" y="476" on="1"/>
        <pt x="403" y="584" on="0"/>
        <pt x="438" y="707" on="1"/>
        <pt x="501" y="926" on="0"/>
        <pt x="788" y="1259" on="0"/>
        <pt x="1179" y="1436" on="0"/>
        <pt x="1398" y="1436" on="1"/>
        <pt x="1715" y="1436" on="0"/>
        <pt x="1869" y="1259" on="1"/>
      </contour>
      <contour>
        <pt x="1693" y="964" on="1"/>
        <pt x="758" y="331" on="1"/>
        <pt x="862" y="216" on="0"/>
        <pt x="1055" y="216" on="1"/>
        <pt x="1144" y="216" on="0"/>
        <pt x="1328" y="274" on="0"/>
        <pt x="1502" y="388" on="0"/>
        <pt x="1644" y="584" on="0"/>
        <pt x="1680" y="709" on="1"/>
        <pt x="1705" y="796" on="0"/>
        <pt x="1705" y="869" on="1"/>
        <pt x="1705" y="920" on="0"/>
      </contour>
    </TTGlyph>
    <TTGlyph name="Otilde" xMin="383" yMin="-15" xMax="1979" yMax="1884">
      <contour>
        <pt x="1782" y="1884" on="1"/>
        <pt x="1979" y="1854" on="1"/>
        <pt x="1958" y="1812" on="1"/>
        <pt x="1954" y="1804" on="0"/>
        <pt x="1946" y="1787" on="1"/>
        <pt x="1929" y="1752" on="0"/>
        <pt x="1910" y="1713" on="0"/>
        <pt x="1869" y="1642" on="0"/>
        <pt x="1834" y="1599" on="0"/>
        <pt x="1778" y="1544" on="0"/>
        <pt x="1722" y="1514" on="0"/>
        <pt x="1645" y="1492" on="0"/>
        <pt x="1603" y="1492" on="1"/>
        <pt x="1547" y="1494" on="0"/>
        <pt x="1455" y="1533" on="0"/>
        <pt x="1399" y="1586" on="0"/>
        <pt x="1356" y="1638" on="0"/>
        <pt x="1320" y="1674" on="0"/>
        <pt x="1305" y="1674" on="1"/>
        <pt x="1292" y="1674" on="0"/>
        <pt x="1267" y="1655" on="0"/>
        <pt x="1238" y="1609" on="0"/>
        <pt x="1222" y="1580" on="0"/>
        <pt x="1205" y="1545" on="1"/>
        <pt x="1198" y="1532" on="0"/>
        <pt x="1195" y="1525" on="1"/>
        <pt x="1176" y="1487" on="1"/>
        <pt x="976" y="1513" on="1"/>
        <pt x="997" y="1556" on="1"/>
        <pt x="1001" y="1563" on="0"/>
        <pt x="1029" y="1621" on="0"/>
        <pt x="1042" y="1646" on="0"/>
        <pt x="1074" y="1703" on="0"/>
        <pt x="1096" y="1733" on="0"/>
        <pt x="1135" y="1783" on="0"/>
        <pt x="1168" y="1810" on="0"/>
        <pt x="1216" y="1845" on="0"/>
        <pt x="1264" y="1863" on="0"/>
        <pt x="1324" y="1876" on="0"/>
        <pt x="1356" y="1876" on="1"/>
        <pt x="1412" y="1874" on="0"/>
        <pt x="1504" y="1835" on="0"/>
        <pt x="1560" y="1782" on="0"/>
        <pt x="1603" y="1731" on="0"/>
        <pt x="1639" y="1695" on="0"/>
        <pt x="1654" y="1695" on="1"/>
        <pt x="1662" y="1695" on="0"/>
        <pt x="1678" y="1702" on="0"/>
        <pt x="1694" y="1721" on="0"/>
        <pt x="1706" y="1737" on="0"/>
        <pt x="1724" y="1770" on="0"/>
        <pt x="1735" y="1790" on="0"/>
        <pt x="1757" y="1834" on="0"/>
        <pt x="1762" y="1845" on="1"/>
      </contour>
      <contour>
        <pt x="1660" y="709" on="1"/>
        <pt x="1685" y="796" on="0"/>
        <pt x="1685" y="869" on="1"/>
        <pt x="1685" y="954" on="0"/>
        <pt x="1621" y="1086" on="0"/>
        <pt x="1511" y="1165" on="0"/>
        <pt x="1376" y="1205" on="0"/>
        <pt x="1299" y="1205" on="1"/>
        <pt x="1211" y="1205" on="0"/>
        <pt x="1029" y="1148" on="0"/>
        <pt x="855" y="1037" on="0"/>
        <pt x="715" y="848" on="0"/>
        <pt x="681" y="727" on="1"/>
        <pt x="656" y="640" on="0"/>
        <pt x="656" y="564" on="1"/>
        <pt x="656" y="402" on="0"/>
        <pt x="863" y="216" on="0"/>
        <pt x="1035" y="216" on="1"/>
        <pt x="1124" y="216" on="0"/>
        <pt x="1308" y="274" on="0"/>
        <pt x="1482" y="388" on="0"/>
        <pt x="1624" y="584" on="0"/>
      </contour>
      <contour>
        <pt x="1378" y="1436" on="1"/>
        <pt x="1646" y="1436" on="0"/>
        <pt x="1957" y="1176" on="0"/>
        <pt x="1957" y="947" on="1"/>
        <pt x="1957" y="843" on="0"/>
        <pt x="1923" y="726" on="1"/>
        <pt x="1861" y="508" on="0"/>
        <pt x="1574" y="171" on="0"/>
        <pt x="1177" y="-15" on="0"/>
        <pt x="954" y="-15" on="1"/>
        <pt x="833" y="-15" on="0"/>
        <pt x="627" y="47" on="0"/>
        <pt x="471" y="167" on="0"/>
        <pt x="383" y="357" on="0"/>
        <pt x="383" y="477" on="1"/>
        <pt x="383" y="584" on="0"/>
        <pt x="418" y="707" on="1"/>
        <pt x="481" y="926" on="0"/>
        <pt x="768" y="1259" on="0"/>
        <pt x="1159" y="1436" on="0"/>
      </contour>
    </TTGlyph>
    <TTGlyph name="P" xMin="290" yMin="0" xMax="1709" yMax="1421">
      <contour>
        <pt x="697" y="1421" on="1"/>
        <pt x="1207" y="1421" on="1"/>
        <pt x="1258" y="1421" on="0"/>
        <pt x="1327" y="1419" on="0"/>
        <pt x="1441" y="1408" on="0"/>
        <pt x="1521" y="1388" on="0"/>
        <pt x="1613" y="1347" on="0"/>
        <pt x="1670" y="1291" on="0"/>
        <pt x="1709" y="1203" on="0"/>
        <pt x="1709" y="1148" on="1"/>
        <pt x="1709" y="1090" on="0"/>
        <pt x="1689" y="1021" on="1"/>
        <pt x="1663" y="931" on="0"/>
        <pt x="1575" y="786" on="0"/>
        <pt x="1472" y="689" on="0"/>
        <pt x="1334" y="618" on="0"/>
        <pt x="1204" y="578" on="0"/>
        <pt x="1039" y="555" on="0"/>
        <pt x="906" y="548" on="0"/>
        <pt x="822" y="548" on="1"/>
        <pt x="780" y="548" on="0"/>
        <pt x="700" y="552" on="1"/>
        <pt x="542" y="0" on="1"/>
        <pt x="290" y="0" on="1"/>
      </contour>
      <contour>
        <pt x="883" y="1189" on="1"/>
        <pt x="767" y="784" on="1"/>
        <pt x="844" y="779" on="0"/>
        <pt x="906" y="779" on="1"/>
        <pt x="989" y="779" on="0"/>
        <pt x="1106" y="786" on="0"/>
        <pt x="1242" y="811" on="0"/>
        <pt x="1333" y="856" on="0"/>
        <pt x="1408" y="937" on="0"/>
        <pt x="1424" y="994" on="1"/>
        <pt x="1432" y="1021" on="0"/>
        <pt x="1432" y="1048" on="1"/>
        <pt x="1432" y="1084" on="0"/>
        <pt x="1394" y="1137" on="0"/>
        <pt x="1335" y="1167" on="0"/>
        <pt x="1240" y="1184" on="0"/>
        <pt x="1151" y="1189" on="0"/>
        <pt x="1090" y="1189" on="1"/>
      </contour>
    </TTGlyph>
    <TTGlyph name="Q" xMin="382" yMin="-73" xMax="1953" yMax="1436">
      <contour>
        <pt x="1378" y="1436" on="1"/>
        <pt x="1529" y="1436" on="0"/>
        <pt x="1756" y="1357" on="0"/>
        <pt x="1889" y="1217" on="0"/>
        <pt x="1953" y="1041" on="0"/>
        <pt x="1953" y="936" on="1"/>
        <pt x="1953" y="758" on="0"/>
        <pt x="1786" y="383" on="0"/>
        <pt x="1649" y="248" on="1"/>
        <pt x="1784" y="75" on="1"/>
        <pt x="1594" y="-73" on="1"/>
        <pt x="1446" y="109" on="1"/>
        <pt x="1220" y="-15" on="0"/>
        <pt x="964" y="-15" on="1"/>
        <pt x="697" y="-15" on="0"/>
        <pt x="382" y="244" on="0"/>
        <pt x="382" y="477" on="1"/>
        <pt x="382" y="585" on="0"/>
        <pt x="417" y="705" on="1"/>
        <pt x="513" y="1038" on="0"/>
        <pt x="1044" y="1436" on="0"/>
      </contour>
      <contour>
        <pt x="1297" y="1205" on="1"/>
        <pt x="1209" y="1205" on="0"/>
        <pt x="1029" y="1149" on="0"/>
        <pt x="856" y="1038" on="0"/>
        <pt x="715" y="846" on="0"/>
        <pt x="680" y="723" on="1"/>
        <pt x="655" y="636" on="0"/>
        <pt x="655" y="561" on="1"/>
        <pt x="655" y="396" on="0"/>
        <pt x="876" y="216" on="0"/>
        <pt x="1052" y="216" on="1"/>
        <pt x="1183" y="216" on="0"/>
        <pt x="1303" y="269" on="1"/>
        <pt x="1046" y="538" on="1"/>
        <pt x="1268" y="693" on="1"/>
        <pt x="1512" y="422" on="1"/>
        <pt x="1604" y="528" on="0"/>
        <pt x="1650" y="687" on="1"/>
        <pt x="1679" y="788" on="0"/>
        <pt x="1679" y="871" on="1"/>
        <pt x="1679" y="946" on="0"/>
        <pt x="1631" y="1066" on="0"/>
        <pt x="1555" y="1139" on="0"/>
        <pt x="1452" y="1186" on="0"/>
        <pt x="1351" y="1205" on="0"/>
      </contour>
    </TTGlyph>
    <TTGlyph name="R" xMin="290" yMin="0" xMax="1704" yMax="1421">
      <contour>
        <pt x="1682" y="1014" on="1"/>
        <pt x="1641" y="870" on="0"/>
        <pt x="1426" y="643" on="0"/>
        <pt x="1250" y="594" on="1"/>
        <pt x="1509" y="0" on="1"/>
        <pt x="1181" y="0" on="1"/>
        <pt x="941" y="551" on="1"/>
        <pt x="700" y="551" on="1"/>
        <pt x="542" y="0" on="1"/>
        <pt x="290" y="0" on="1"/>
        <pt x="697" y="1421" on="1"/>
        <pt x="1302" y="1421" on="1"/>
        <pt x="1704" y="1421" on="0"/>
        <pt x="1704" y="1155" on="1"/>
        <pt x="1704" y="1093" on="0"/>
      </contour>
      <contour>
        <pt x="883" y="1190" on="1"/>
        <pt x="767" y="783" on="1"/>
        <pt x="999" y="783" on="1"/>
        <pt x="1076" y="783" on="0"/>
        <pt x="1190" y="797" on="0"/>
        <pt x="1311" y="838" on="0"/>
        <pt x="1393" y="925" on="0"/>
        <pt x="1412" y="991" on="1"/>
        <pt x="1421" y="1022" on="0"/>
        <pt x="1421" y="1049" on="1"/>
        <pt x="1421" y="1190" on="0"/>
        <pt x="1162" y="1190" on="1"/>
      </contour>
    </TTGlyph>
    <TTGlyph name="Racute" xMin="290" yMin="0" xMax="1704" yMax="1992">
      <contour>
        <pt x="1683" y="1014" on="1"/>
        <pt x="1642" y="870" on="0"/>
        <pt x="1427" y="643" on="0"/>
        <pt x="1251" y="594" on="1"/>
        <pt x="1510" y="0" on="1"/>
        <pt x="1182" y="0" on="1"/>
        <pt x="942" y="552" on="1"/>
        <pt x="934" y="552" on="0"/>
        <pt x="902" y="551" on="0"/>
        <pt x="893" y="551" on="1"/>
        <pt x="701" y="551" on="1"/>
        <pt x="543" y="0" on="1"/>
        <pt x="290" y="0" on="1"/>
        <pt x="697" y="1421" on="1"/>
        <pt x="1303" y="1421" on="1"/>
        <pt x="1361" y="1421" on="0"/>
        <pt x="1442" y="1415" on="0"/>
        <pt x="1547" y="1395" on="0"/>
        <pt x="1630" y="1347" on="0"/>
        <pt x="1658" y="1310" on="1"/>
        <pt x="1704" y="1244" on="0"/>
        <pt x="1704" y="1150" on="1"/>
        <pt x="1704" y="1086" on="0"/>
      </contour>
      <contour>
        <pt x="884" y="1190" on="1"/>
        <pt x="768" y="783" on="1"/>
        <pt x="1000" y="783" on="1"/>
        <pt x="1133" y="783" on="0"/>
        <pt x="1304" y="827" on="0"/>
        <pt x="1363" y="897" on="1"/>
        <pt x="1421" y="965" on="0"/>
        <pt x="1421" y="1042" on="1"/>
        <pt x="1421" y="1093" on="0"/>
        <pt x="1353" y="1169" on="0"/>
        <pt x="1279" y="1182" on="1"/>
        <pt x="1235" y="1190" on="0"/>
        <pt x="1132" y="1190" on="1"/>
      </contour>
      <contour>
        <pt x="1622" y="1992" on="1"/>
        <pt x="1692" y="1797" on="1"/>
        <pt x="937" y="1461" on="1"/>
        <pt x="886" y="1639" on="1"/>
      </contour>
    </TTGlyph>
    <TTGlyph name="Rcaron" xMin="290" yMin="0" xMax="1704" yMax="1950">
      <contour>
        <pt x="1683" y="1014" on="1"/>
        <pt x="1642" y="870" on="0"/>
        <pt x="1427" y="643" on="0"/>
        <pt x="1251" y="594" on="1"/>
        <pt x="1510" y="0" on="1"/>
        <pt x="1182" y="0" on="1"/>
        <pt x="942" y="552" on="1"/>
        <pt x="934" y="552" on="0"/>
        <pt x="902" y="551" on="0"/>
        <pt x="893" y="551" on="1"/>
        <pt x="701" y="551" on="1"/>
        <pt x="543" y="0" on="1"/>
        <pt x="290" y="0" on="1"/>
        <pt x="697" y="1421" on="1"/>
        <pt x="1303" y="1421" on="1"/>
        <pt x="1361" y="1421" on="0"/>
        <pt x="1442" y="1415" on="0"/>
        <pt x="1547" y="1395" on="0"/>
        <pt x="1630" y="1347" on="0"/>
        <pt x="1658" y="1310" on="1"/>
        <pt x="1704" y="1244" on="0"/>
        <pt x="1704" y="1150" on="1"/>
        <pt x="1704" y="1086" on="0"/>
      </contour>
      <contour>
        <pt x="884" y="1190" on="1"/>
        <pt x="768" y="783" on="1"/>
        <pt x="1000" y="783" on="1"/>
        <pt x="1133" y="783" on="0"/>
        <pt x="1304" y="827" on="0"/>
        <pt x="1363" y="897" on="1"/>
        <pt x="1421" y="965" on="0"/>
        <pt x="1421" y="1042" on="1"/>
        <pt x="1421" y="1093" on="0"/>
        <pt x="1353" y="1169" on="0"/>
        <pt x="1279" y="1182" on="1"/>
        <pt x="1235" y="1190" on="0"/>
        <pt x="1132" y="1190" on="1"/>
      </contour>
      <contour>
        <pt x="1184" y="1457" on="1"/>
        <pt x="945" y="1805" on="1"/>
        <pt x="1143" y="1950" on="1"/>
        <pt x="1286" y="1756" on="1"/>
        <pt x="1543" y="1947" on="1"/>
        <pt x="1675" y="1814" on="1"/>
      </contour>
    </TTGlyph>
    <TTGlyph name="Rcommaaccent" xMin="143" yMin="-512" xMax="1708" yMax="1421">
      <contour>
        <pt x="470" y="-40" on="1"/>
        <pt x="767" y="-40" on="1"/>
        <pt x="413" y="-512" on="1"/>
        <pt x="143" y="-512" on="1"/>
      </contour>
      <contour>
        <pt x="888" y="1190" on="1"/>
        <pt x="772" y="783" on="1"/>
        <pt x="1004" y="783" on="1"/>
        <pt x="1137" y="783" on="0"/>
        <pt x="1307" y="827" on="0"/>
        <pt x="1366" y="897" on="1"/>
        <pt x="1425" y="968" on="0"/>
        <pt x="1425" y="1043" on="1"/>
        <pt x="1425" y="1094" on="0"/>
        <pt x="1357" y="1169" on="0"/>
        <pt x="1283" y="1182" on="1"/>
        <pt x="1239" y="1190" on="0"/>
        <pt x="1136" y="1190" on="1"/>
      </contour>
      <contour>
        <pt x="1687" y="1014" on="1"/>
        <pt x="1646" y="870" on="0"/>
        <pt x="1431" y="643" on="0"/>
        <pt x="1255" y="594" on="1"/>
        <pt x="1514" y="0" on="1"/>
        <pt x="1186" y="0" on="1"/>
        <pt x="946" y="552" on="1"/>
        <pt x="938" y="552" on="0"/>
        <pt x="906" y="551" on="0"/>
        <pt x="897" y="551" on="1"/>
        <pt x="705" y="551" on="1"/>
        <pt x="547" y="0" on="1"/>
        <pt x="294" y="0" on="1"/>
        <pt x="701" y="1421" on="1"/>
        <pt x="1306" y="1421" on="1"/>
        <pt x="1364" y="1421" on="0"/>
        <pt x="1445" y="1415" on="0"/>
        <pt x="1551" y="1395" on="0"/>
        <pt x="1634" y="1347" on="0"/>
        <pt x="1662" y="1310" on="1"/>
        <pt x="1708" y="1244" on="0"/>
        <pt x="1708" y="1150" on="1"/>
        <pt x="1708" y="1086" on="0"/>
      </contour>
    </TTGlyph>
    <TTGlyph name="S" xMin="267" yMin="-20" xMax="1752" yMax="1434">
      <contour>
        <pt x="1338" y="1434" on="1"/>
        <pt x="1537" y="1434" on="0"/>
        <pt x="1714" y="1375" on="1"/>
        <pt x="1752" y="1363" on="1"/>
        <pt x="1603" y="1131" on="1"/>
        <pt x="1568" y="1142" on="1"/>
        <pt x="1400" y="1192" on="0"/>
        <pt x="1106" y="1192" on="0"/>
        <pt x="870" y="1096" on="0"/>
        <pt x="848" y="1021" on="1"/>
        <pt x="844" y="1008" on="0"/>
        <pt x="844" y="994" on="1"/>
        <pt x="844" y="955" on="0"/>
        <pt x="919" y="892" on="0"/>
        <pt x="1040" y="847" on="0"/>
        <pt x="1186" y="803" on="0"/>
        <pt x="1331" y="747" on="0"/>
        <pt x="1452" y="677" on="0"/>
        <pt x="1527" y="567" on="0"/>
        <pt x="1527" y="498" on="1"/>
        <pt x="1527" y="459" on="0"/>
        <pt x="1513" y="409" on="1"/>
        <pt x="1496" y="349" on="0"/>
        <pt x="1421" y="232" on="0"/>
        <pt x="1292" y="118" on="0"/>
        <pt x="1125" y="33" on="0"/>
        <pt x="888" y="-20" on="0"/>
        <pt x="614" y="-20" on="0"/>
        <pt x="410" y="31" on="0"/>
        <pt x="300" y="79" on="1"/>
        <pt x="267" y="93" on="1"/>
        <pt x="421" y="335" on="1"/>
        <pt x="456" y="320" on="1"/>
        <pt x="684" y="230" on="0"/>
        <pt x="847" y="230" on="1"/>
        <pt x="1001" y="230" on="0"/>
        <pt x="1219" y="324" on="0"/>
        <pt x="1241" y="401" on="1"/>
        <pt x="1246" y="421" on="0"/>
        <pt x="1246" y="434" on="1"/>
        <pt x="1246" y="477" on="0"/>
        <pt x="1170" y="543" on="0"/>
        <pt x="1048" y="589" on="0"/>
        <pt x="902" y="631" on="0"/>
        <pt x="755" y="684" on="0"/>
        <pt x="633" y="750" on="0"/>
        <pt x="557" y="856" on="0"/>
        <pt x="557" y="924" on="1"/>
        <pt x="557" y="965" on="0"/>
        <pt x="570" y="1010" on="1"/>
        <pt x="622" y="1190" on="0"/>
        <pt x="1044" y="1434" on="0"/>
      </contour>
    </TTGlyph>
    <TTGlyph name="Sacute" xMin="267" yMin="-20" xMax="1752" yMax="1992">
      <contour>
        <pt x="1644" y="1992" on="1"/>
        <pt x="1709" y="1797" on="1"/>
        <pt x="954" y="1461" on="1"/>
        <pt x="896" y="1639" on="1"/>
      </contour>
      <contour>
        <pt x="1338" y="1434" on="1"/>
        <pt x="1537" y="1434" on="0"/>
        <pt x="1714" y="1375" on="1"/>
        <pt x="1752" y="1363" on="1"/>
        <pt x="1603" y="1131" on="1"/>
        <pt x="1568" y="1142" on="1"/>
        <pt x="1400" y="1192" on="0"/>
        <pt x="1106" y="1192" on="0"/>
        <pt x="870" y="1096" on="0"/>
        <pt x="848" y="1021" on="1"/>
        <pt x="844" y="1008" on="0"/>
        <pt x="844" y="994" on="1"/>
        <pt x="844" y="955" on="0"/>
        <pt x="919" y="892" on="0"/>
        <pt x="1040" y="847" on="0"/>
        <pt x="1186" y="803" on="0"/>
        <pt x="1331" y="747" on="0"/>
        <pt x="1452" y="677" on="0"/>
        <pt x="1527" y="567" on="0"/>
        <pt x="1527" y="498" on="1"/>
        <pt x="1527" y="459" on="0"/>
        <pt x="1513" y="409" on="1"/>
        <pt x="1496" y="349" on="0"/>
        <pt x="1421" y="232" on="0"/>
        <pt x="1292" y="118" on="0"/>
        <pt x="1125" y="33" on="0"/>
        <pt x="888" y="-20" on="0"/>
        <pt x="614" y="-20" on="0"/>
        <pt x="410" y="31" on="0"/>
        <pt x="300" y="79" on="1"/>
        <pt x="267" y="93" on="1"/>
        <pt x="421" y="335" on="1"/>
        <pt x="456" y="320" on="1"/>
        <pt x="684" y="230" on="0"/>
        <pt x="847" y="230" on="1"/>
        <pt x="1001" y="230" on="0"/>
        <pt x="1219" y="324" on="0"/>
        <pt x="1241" y="401" on="1"/>
        <pt x="1246" y="421" on="0"/>
        <pt x="1246" y="434" on="1"/>
        <pt x="1246" y="477" on="0"/>
        <pt x="1170" y="543" on="0"/>
        <pt x="1048" y="589" on="0"/>
        <pt x="902" y="631" on="0"/>
        <pt x="755" y="684" on="0"/>
        <pt x="633" y="750" on="0"/>
        <pt x="557" y="856" on="0"/>
        <pt x="557" y="924" on="1"/>
        <pt x="557" y="965" on="0"/>
        <pt x="570" y="1010" on="1"/>
        <pt x="622" y="1190" on="0"/>
        <pt x="1044" y="1434" on="0"/>
      </contour>
    </TTGlyph>
    <TTGlyph name="Scaron" xMin="267" yMin="-20" xMax="1752" yMax="1950">
      <contour>
        <pt x="1251" y="1457" on="1"/>
        <pt x="996" y="1805" on="1"/>
        <pt x="1210" y="1950" on="1"/>
        <pt x="1353" y="1756" on="1"/>
        <pt x="1610" y="1947" on="1"/>
        <pt x="1734" y="1814" on="1"/>
      </contour>
      <contour>
        <pt x="1338" y="1434" on="1"/>
        <pt x="1537" y="1434" on="0"/>
        <pt x="1714" y="1375" on="1"/>
        <pt x="1752" y="1363" on="1"/>
        <pt x="1603" y="1131" on="1"/>
        <pt x="1568" y="1142" on="1"/>
        <pt x="1400" y="1192" on="0"/>
        <pt x="1106" y="1192" on="0"/>
        <pt x="870" y="1096" on="0"/>
        <pt x="848" y="1021" on="1"/>
        <pt x="844" y="1008" on="0"/>
        <pt x="844" y="994" on="1"/>
        <pt x="844" y="955" on="0"/>
        <pt x="919" y="892" on="0"/>
        <pt x="1040" y="847" on="0"/>
        <pt x="1186" y="803" on="0"/>
        <pt x="1331" y="747" on="0"/>
        <pt x="1452" y="677" on="0"/>
        <pt x="1527" y="567" on="0"/>
        <pt x="1527" y="498" on="1"/>
        <pt x="1527" y="459" on="0"/>
        <pt x="1513" y="409" on="1"/>
        <pt x="1496" y="349" on="0"/>
        <pt x="1421" y="232" on="0"/>
        <pt x="1292" y="118" on="0"/>
        <pt x="1125" y="33" on="0"/>
        <pt x="888" y="-20" on="0"/>
        <pt x="614" y="-20" on="0"/>
        <pt x="410" y="31" on="0"/>
        <pt x="300" y="79" on="1"/>
        <pt x="267" y="93" on="1"/>
        <pt x="421" y="335" on="1"/>
        <pt x="456" y="320" on="1"/>
        <pt x="684" y="230" on="0"/>
        <pt x="847" y="230" on="1"/>
        <pt x="1001" y="230" on="0"/>
        <pt x="1219" y="324" on="0"/>
        <pt x="1241" y="401" on="1"/>
        <pt x="1246" y="421" on="0"/>
        <pt x="1246" y="434" on="1"/>
        <pt x="1246" y="477" on="0"/>
        <pt x="1170" y="543" on="0"/>
        <pt x="1048" y="589" on="0"/>
        <pt x="902" y="631" on="0"/>
        <pt x="755" y="684" on="0"/>
        <pt x="633" y="750" on="0"/>
        <pt x="557" y="856" on="0"/>
        <pt x="557" y="924" on="1"/>
        <pt x="557" y="965" on="0"/>
        <pt x="570" y="1010" on="1"/>
        <pt x="622" y="1190" on="0"/>
        <pt x="1044" y="1434" on="0"/>
      </contour>
    </TTGlyph>
    <TTGlyph name="Scedilla" xMin="267" yMin="-506" xMax="1752" yMax="1434">
      <contour>
        <pt x="747" y="-317" on="1"/>
        <pt x="809" y="-317" on="0"/>
        <pt x="817" y="-286" on="1"/>
        <pt x="817" y="-285" on="0"/>
        <pt x="818" y="-282" on="0"/>
        <pt x="818" y="-281" on="1"/>
        <pt x="818" y="-264" on="0"/>
        <pt x="742" y="-235" on="0"/>
        <pt x="652" y="-211" on="1"/>
        <pt x="622" y="-203" on="0"/>
        <pt x="606" y="-199" on="1"/>
        <pt x="565" y="-188" on="1"/>
        <pt x="667" y="-18" on="1"/>
        <pt x="560" y="-12" on="0"/>
        <pt x="397" y="36" on="0"/>
        <pt x="300" y="79" on="1"/>
        <pt x="267" y="93" on="1"/>
        <pt x="421" y="335" on="1"/>
        <pt x="456" y="320" on="1"/>
        <pt x="685" y="230" on="0"/>
        <pt x="849" y="230" on="1"/>
        <pt x="1004" y="230" on="0"/>
        <pt x="1222" y="324" on="0"/>
        <pt x="1244" y="401" on="1"/>
        <pt x="1249" y="421" on="0"/>
        <pt x="1249" y="434" on="1"/>
        <pt x="1249" y="477" on="0"/>
        <pt x="1173" y="543" on="0"/>
        <pt x="1051" y="589" on="0"/>
        <pt x="903" y="631" on="0"/>
        <pt x="755" y="684" on="0"/>
        <pt x="633" y="750" on="0"/>
        <pt x="557" y="856" on="0"/>
        <pt x="557" y="924" on="1"/>
        <pt x="557" y="965" on="0"/>
        <pt x="570" y="1010" on="1"/>
        <pt x="622" y="1190" on="0"/>
        <pt x="1047" y="1434" on="0"/>
        <pt x="1340" y="1434" on="1"/>
        <pt x="1537" y="1434" on="0"/>
        <pt x="1714" y="1375" on="1"/>
        <pt x="1752" y="1363" on="1"/>
        <pt x="1602" y="1131" on="1"/>
        <pt x="1568" y="1142" on="1"/>
        <pt x="1402" y="1192" on="0"/>
        <pt x="1255" y="1192" on="1"/>
        <pt x="1109" y="1192" on="0"/>
        <pt x="874" y="1096" on="0"/>
        <pt x="852" y="1021" on="1"/>
        <pt x="848" y="1008" on="0"/>
        <pt x="848" y="994" on="1"/>
        <pt x="848" y="955" on="0"/>
        <pt x="923" y="892" on="0"/>
        <pt x="1043" y="847" on="0"/>
        <pt x="1188" y="803" on="0"/>
        <pt x="1333" y="747" on="0"/>
        <pt x="1453" y="678" on="0"/>
        <pt x="1528" y="568" on="0"/>
        <pt x="1528" y="499" on="1"/>
        <pt x="1528" y="460" on="0"/>
        <pt x="1514" y="410" on="1"/>
        <pt x="1495" y="345" on="0"/>
        <pt x="1409" y="219" on="0"/>
        <pt x="1272" y="100" on="0"/>
        <pt x="1064" y="11" on="0"/>
        <pt x="940" y="-7" on="1"/>
        <pt x="906" y="-66" on="1"/>
        <pt x="1051" y="-114" on="0"/>
        <pt x="1051" y="-227" on="1"/>
        <pt x="1051" y="-329" on="0"/>
        <pt x="833" y="-506" on="0"/>
        <pt x="687" y="-506" on="1"/>
        <pt x="642" y="-506" on="0"/>
        <pt x="557" y="-489" on="0"/>
        <pt x="417" y="-451" on="1"/>
        <pt x="375" y="-440" on="1"/>
        <pt x="488" y="-257" on="1"/>
        <pt x="530" y="-269" on="1"/>
        <pt x="696" y="-317" on="0"/>
      </contour>
    </TTGlyph>
    <TTGlyph name="Scircumflex" xMin="267" yMin="-20" xMax="1752" yMax="1951">
      <contour>
        <pt x="1338" y="1434" on="1"/>
        <pt x="1537" y="1434" on="0"/>
        <pt x="1714" y="1375" on="1"/>
        <pt x="1752" y="1363" on="1"/>
        <pt x="1603" y="1131" on="1"/>
        <pt x="1568" y="1142" on="1"/>
        <pt x="1400" y="1192" on="0"/>
        <pt x="1106" y="1192" on="0"/>
        <pt x="870" y="1096" on="0"/>
        <pt x="848" y="1021" on="1"/>
        <pt x="844" y="1008" on="0"/>
        <pt x="844" y="994" on="1"/>
        <pt x="844" y="955" on="0"/>
        <pt x="919" y="892" on="0"/>
        <pt x="1040" y="847" on="0"/>
        <pt x="1186" y="803" on="0"/>
        <pt x="1331" y="747" on="0"/>
        <pt x="1452" y="677" on="0"/>
        <pt x="1527" y="567" on="0"/>
        <pt x="1527" y="498" on="1"/>
        <pt x="1527" y="459" on="0"/>
        <pt x="1513" y="409" on="1"/>
        <pt x="1496" y="349" on="0"/>
        <pt x="1421" y="232" on="0"/>
        <pt x="1292" y="118" on="0"/>
        <pt x="1125" y="33" on="0"/>
        <pt x="888" y="-20" on="0"/>
        <pt x="614" y="-20" on="0"/>
        <pt x="410" y="31" on="0"/>
        <pt x="300" y="79" on="1"/>
        <pt x="267" y="93" on="1"/>
        <pt x="421" y="335" on="1"/>
        <pt x="456" y="320" on="1"/>
        <pt x="684" y="230" on="0"/>
        <pt x="847" y="230" on="1"/>
        <pt x="1001" y="230" on="0"/>
        <pt x="1219" y="324" on="0"/>
        <pt x="1241" y="401" on="1"/>
        <pt x="1246" y="421" on="0"/>
        <pt x="1246" y="434" on="1"/>
        <pt x="1246" y="477" on="0"/>
        <pt x="1170" y="543" on="0"/>
        <pt x="1048" y="589" on="0"/>
        <pt x="902" y="631" on="0"/>
        <pt x="755" y="684" on="0"/>
        <pt x="633" y="750" on="0"/>
        <pt x="557" y="856" on="0"/>
        <pt x="557" y="924" on="1"/>
        <pt x="557" y="965" on="0"/>
        <pt x="570" y="1010" on="1"/>
        <pt x="622" y="1190" on="0"/>
        <pt x="1044" y="1434" on="0"/>
      </contour>
      <contour>
        <pt x="1366" y="1951" on="1"/>
        <pt x="1622" y="1603" on="1"/>
        <pt x="1408" y="1458" on="1"/>
        <pt x="1265" y="1652" on="1"/>
        <pt x="1007" y="1461" on="1"/>
        <pt x="883" y="1594" on="1"/>
      </contour>
    </TTGlyph>
    <TTGlyph name="T" xMin="426" yMin="0" xMax="1776" yMax="1421">
      <contour>
        <pt x="492" y="1421" on="1"/>
        <pt x="1776" y="1421" on="1"/>
        <pt x="1710" y="1189" on="1"/>
        <pt x="1194" y="1189" on="1"/>
        <pt x="853" y="0" on="1"/>
        <pt x="601" y="0" on="1"/>
        <pt x="942" y="1189" on="1"/>
        <pt x="426" y="1189" on="1"/>
      </contour>
    </TTGlyph>
    <TTGlyph name="Tbar" xMin="389" yMin="0" xMax="1776" yMax="1421">
      <contour>
        <pt x="492" y="1421" on="1"/>
        <pt x="1776" y="1421" on="1"/>
        <pt x="1710" y="1189" on="1"/>
        <pt x="1194" y="1189" on="1"/>
        <pt x="1081" y="794" on="1"/>
        <pt x="1454" y="794" on="1"/>
        <pt x="1387" y="562" on="1"/>
        <pt x="1014" y="562" on="1"/>
        <pt x="853" y="0" on="1"/>
        <pt x="601" y="0" on="1"/>
        <pt x="762" y="562" on="1"/>
        <pt x="389" y="562" on="1"/>
        <pt x="456" y="794" on="1"/>
        <pt x="829" y="794" on="1"/>
        <pt x="942" y="1189" on="1"/>
        <pt x="426" y="1189" on="1"/>
      </contour>
    </TTGlyph>
    <TTGlyph name="Tcaron" xMin="426" yMin="0" xMax="1776" yMax="1950">
      <contour>
        <pt x="492" y="1421" on="1"/>
        <pt x="1776" y="1421" on="1"/>
        <pt x="1710" y="1189" on="1"/>
        <pt x="1194" y="1189" on="1"/>
        <pt x="853" y="0" on="1"/>
        <pt x="601" y="0" on="1"/>
        <pt x="942" y="1189" on="1"/>
        <pt x="426" y="1189" on="1"/>
      </contour>
      <contour>
        <pt x="1158" y="1457" on="1"/>
        <pt x="910" y="1805" on="1"/>
        <pt x="1121" y="1950" on="1"/>
        <pt x="1261" y="1756" on="1"/>
        <pt x="1513" y="1947" on="1"/>
        <pt x="1642" y="1814" on="1"/>
      </contour>
    </TTGlyph>
    <TTGlyph name="Tcommaaccent" xMin="245" yMin="-506" xMax="1776" yMax="1421">
      <contour>
        <pt x="639" y="-316" on="1"/>
        <pt x="692" y="-314" on="0"/>
        <pt x="699" y="-289" on="1"/>
        <pt x="699" y="-288" on="0"/>
        <pt x="700" y="-285" on="0"/>
        <pt x="700" y="-284" on="1"/>
        <pt x="700" y="-277" on="0"/>
        <pt x="690" y="-264" on="0"/>
        <pt x="666" y="-251" on="0"/>
        <pt x="643" y="-241" on="0"/>
        <pt x="602" y="-227" on="0"/>
        <pt x="573" y="-219" on="0"/>
        <pt x="521" y="-203" on="0"/>
        <pt x="507" y="-199" on="1"/>
        <pt x="458" y="-187" on="1"/>
        <pt x="484" y="-149" on="1"/>
        <pt x="500" y="-125" on="0"/>
        <pt x="554" y="-48" on="0"/>
        <pt x="568" y="-28" on="0"/>
        <pt x="599" y="23" on="0"/>
        <pt x="607" y="42" on="0"/>
        <pt x="627" y="91" on="0"/>
        <pt x="639" y="134" on="0"/>
        <pt x="650" y="171" on="1"/>
        <pt x="942" y="1189" on="1"/>
        <pt x="426" y="1189" on="1"/>
        <pt x="492" y="1421" on="1"/>
        <pt x="1776" y="1421" on="1"/>
        <pt x="1710" y="1189" on="1"/>
        <pt x="1194" y="1189" on="1"/>
        <pt x="906" y="184" on="1"/>
        <pt x="881" y="97" on="0"/>
        <pt x="837" y="-8" on="0"/>
        <pt x="796" y="-71" on="1"/>
        <pt x="955" y="-127" on="0"/>
        <pt x="955" y="-230" on="1"/>
        <pt x="955" y="-253" on="0"/>
        <pt x="948" y="-275" on="1"/>
        <pt x="922" y="-364" on="0"/>
        <pt x="709" y="-506" on="0"/>
        <pt x="574" y="-506" on="1"/>
        <pt x="547" y="-506" on="0"/>
        <pt x="489" y="-498" on="0"/>
        <pt x="446" y="-488" on="0"/>
        <pt x="338" y="-461" on="0"/>
        <pt x="296" y="-451" on="1"/>
        <pt x="245" y="-440" on="1"/>
        <pt x="371" y="-257" on="1"/>
        <pt x="422" y="-269" on="1"/>
        <pt x="444" y="-275" on="0"/>
        <pt x="526" y="-296" on="0"/>
        <pt x="553" y="-303" on="0"/>
        <pt x="599" y="-313" on="0"/>
        <pt x="626" y="-316" on="0"/>
      </contour>
    </TTGlyph>
    <TTGlyph name="Thorn" xMin="290" yMin="0" xMax="1642" yMax="1421">
      <contour>
        <pt x="1028" y="967" on="1"/>
        <pt x="915" y="967" on="0"/>
        <pt x="817" y="960" on="1"/>
        <pt x="691" y="521" on="1"/>
        <pt x="794" y="515" on="0"/>
        <pt x="868" y="515" on="1"/>
        <pt x="900" y="515" on="1"/>
        <pt x="956" y="515" on="0"/>
        <pt x="1040" y="520" on="0"/>
        <pt x="1142" y="536" on="0"/>
        <pt x="1219" y="568" on="0"/>
        <pt x="1292" y="619" on="0"/>
        <pt x="1345" y="699" on="0"/>
        <pt x="1360" y="752" on="1"/>
        <pt x="1370" y="785" on="0"/>
        <pt x="1370" y="814" on="1"/>
        <pt x="1370" y="862" on="0"/>
        <pt x="1317" y="925" on="0"/>
        <pt x="1214" y="956" on="0"/>
        <pt x="1104" y="967" on="0"/>
      </contour>
      <contour>
        <pt x="697" y="1421" on="1"/>
        <pt x="949" y="1421" on="1"/>
        <pt x="875" y="1160" on="1"/>
        <pt x="1008" y="1169" on="0"/>
        <pt x="1140" y="1169" on="1"/>
        <pt x="1255" y="1169" on="0"/>
        <pt x="1428" y="1144" on="0"/>
        <pt x="1568" y="1085" on="0"/>
        <pt x="1642" y="976" on="0"/>
        <pt x="1642" y="898" on="1"/>
        <pt x="1642" y="845" on="0"/>
        <pt x="1622" y="773" on="1"/>
        <pt x="1607" y="721" on="0"/>
        <pt x="1561" y="620" on="0"/>
        <pt x="1483" y="508" on="0"/>
        <pt x="1387" y="415" on="0"/>
        <pt x="1248" y="337" on="0"/>
        <pt x="1167" y="317" on="1"/>
        <pt x="1027" y="285" on="0"/>
        <pt x="766" y="285" on="1"/>
        <pt x="694" y="285" on="0"/>
        <pt x="625" y="288" on="1"/>
        <pt x="542" y="0" on="1"/>
        <pt x="290" y="0" on="1"/>
      </contour>
    </TTGlyph>
    <TTGlyph name="U" xMin="396" yMin="-20" xMax="1932" yMax="1421">
      <contour>
        <pt x="903" y="-20" on="1"/>
        <pt x="396" y="-20" on="0"/>
        <pt x="396" y="292" on="1"/>
        <pt x="396" y="315" on="0"/>
        <pt x="401" y="362" on="0"/>
        <pt x="411" y="412" on="0"/>
        <pt x="418" y="442" on="0"/>
        <pt x="432" y="493" on="0"/>
        <pt x="433" y="498" on="1"/>
        <pt x="697" y="1421" on="1"/>
        <pt x="949" y="1421" on="1"/>
        <pt x="691" y="520" on="1"/>
        <pt x="670" y="443" on="0"/>
        <pt x="670" y="401" on="1"/>
        <pt x="670" y="342" on="0"/>
        <pt x="702" y="302" on="1"/>
        <pt x="774" y="209" on="0"/>
        <pt x="969" y="209" on="1"/>
        <pt x="1076" y="209" on="0"/>
        <pt x="1244" y="265" on="0"/>
        <pt x="1335" y="338" on="0"/>
        <pt x="1398" y="435" on="0"/>
        <pt x="1417" y="490" on="0"/>
        <pt x="1423" y="514" on="1"/>
        <pt x="1424" y="519" on="0"/>
        <pt x="1424" y="520" on="1"/>
        <pt x="1682" y="1421" on="1"/>
        <pt x="1932" y="1421" on="1"/>
        <pt x="1674" y="511" on="1"/>
        <pt x="1660" y="464" on="0"/>
        <pt x="1633" y="389" on="0"/>
        <pt x="1573" y="273" on="0"/>
        <pt x="1500" y="184" on="0"/>
        <pt x="1380" y="86" on="0"/>
        <pt x="1234" y="22" on="0"/>
        <pt x="1026" y="-20" on="0"/>
      </contour>
    </TTGlyph>
    <TTGlyph name="Uacute" xMin="399" yMin="-20" xMax="1941" yMax="1976">
      <contour>
        <pt x="697" y="1421" on="1"/>
        <pt x="949" y="1421" on="1"/>
        <pt x="691" y="520" on="1"/>
        <pt x="672" y="451" on="0"/>
        <pt x="672" y="402" on="1"/>
        <pt x="672" y="209" on="0"/>
        <pt x="972" y="209" on="1"/>
        <pt x="1079" y="209" on="0"/>
        <pt x="1242" y="255" on="0"/>
        <pt x="1347" y="344" on="0"/>
        <pt x="1411" y="450" on="0"/>
        <pt x="1431" y="520" on="1"/>
        <pt x="1689" y="1421" on="1"/>
        <pt x="1941" y="1421" on="1"/>
        <pt x="1676" y="495" on="1"/>
        <pt x="1666" y="461" on="0"/>
        <pt x="1651" y="415" on="0"/>
        <pt x="1614" y="328" on="0"/>
        <pt x="1574" y="263" on="0"/>
        <pt x="1505" y="177" on="0"/>
        <pt x="1426" y="115" on="0"/>
        <pt x="1310" y="48" on="0"/>
        <pt x="1176" y="7" on="0"/>
        <pt x="999" y="-20" on="0"/>
        <pt x="898" y="-20" on="1"/>
        <pt x="399" y="-20" on="0"/>
        <pt x="399" y="305" on="1"/>
        <pt x="399" y="384" on="0"/>
        <pt x="432" y="495" on="1"/>
      </contour>
      <contour>
        <pt x="1759" y="1976" on="1"/>
        <pt x="1824" y="1781" on="1"/>
        <pt x="1075" y="1444" on="1"/>
        <pt x="1011" y="1623" on="1"/>
      </contour>
    </TTGlyph>
    <TTGlyph name="Ubreve" xMin="397" yMin="-20" xMax="1941" yMax="1897">
      <contour>
        <pt x="880" y="1794" on="1"/>
        <pt x="1104" y="1897" on="1"/>
        <pt x="1114" y="1859" on="1"/>
        <pt x="1119" y="1842" on="0"/>
        <pt x="1130" y="1813" on="0"/>
        <pt x="1161" y="1760" on="0"/>
        <pt x="1200" y="1723" on="0"/>
        <pt x="1268" y="1695" on="0"/>
        <pt x="1309" y="1695" on="1"/>
        <pt x="1389" y="1695" on="0"/>
        <pt x="1575" y="1797" on="0"/>
        <pt x="1653" y="1866" on="1"/>
        <pt x="1689" y="1897" on="1"/>
        <pt x="1850" y="1774" on="1"/>
        <pt x="1814" y="1739" on="1"/>
        <pt x="1688" y="1626" on="0"/>
        <pt x="1373" y="1475" on="0"/>
        <pt x="1228" y="1475" on="1"/>
        <pt x="1144" y="1475" on="0"/>
        <pt x="1011" y="1525" on="0"/>
        <pt x="931" y="1609" on="0"/>
        <pt x="887" y="1707" on="0"/>
        <pt x="883" y="1761" on="1"/>
      </contour>
      <contour>
        <pt x="906" y="-20" on="1"/>
        <pt x="397" y="-20" on="0"/>
        <pt x="397" y="306" on="1"/>
        <pt x="397" y="383" on="0"/>
        <pt x="431" y="497" on="1"/>
        <pt x="697" y="1421" on="1"/>
        <pt x="949" y="1421" on="1"/>
        <pt x="691" y="520" on="1"/>
        <pt x="669" y="446" on="0"/>
        <pt x="669" y="401" on="1"/>
        <pt x="669" y="343" on="0"/>
        <pt x="702" y="302" on="1"/>
        <pt x="777" y="209" on="0"/>
        <pt x="972" y="209" on="1"/>
        <pt x="1052" y="209" on="0"/>
        <pt x="1188" y="239" on="0"/>
        <pt x="1278" y="285" on="0"/>
        <pt x="1350" y="349" on="0"/>
        <pt x="1389" y="405" on="0"/>
        <pt x="1418" y="469" on="0"/>
        <pt x="1427" y="501" on="0"/>
        <pt x="1430" y="515" on="1"/>
        <pt x="1431" y="519" on="0"/>
        <pt x="1431" y="520" on="1"/>
        <pt x="1689" y="1421" on="1"/>
        <pt x="1941" y="1421" on="1"/>
        <pt x="1713" y="624" on="1"/>
        <pt x="1709" y="610" on="0"/>
        <pt x="1687" y="524" on="0"/>
        <pt x="1671" y="464" on="0"/>
        <pt x="1633" y="364" on="0"/>
        <pt x="1592" y="290" on="0"/>
        <pt x="1522" y="194" on="0"/>
        <pt x="1442" y="125" on="0"/>
        <pt x="1325" y="53" on="0"/>
        <pt x="1190" y="8" on="0"/>
        <pt x="1009" y="-20" on="0"/>
      </contour>
    </TTGlyph>
    <TTGlyph name="Ucircumflex" xMin="399" yMin="-20" xMax="1941" yMax="1943">
      <contour>
        <pt x="697" y="1421" on="1"/>
        <pt x="949" y="1421" on="1"/>
        <pt x="691" y="520" on="1"/>
        <pt x="672" y="451" on="0"/>
        <pt x="672" y="402" on="1"/>
        <pt x="672" y="209" on="0"/>
        <pt x="972" y="209" on="1"/>
        <pt x="1079" y="209" on="0"/>
        <pt x="1242" y="255" on="0"/>
        <pt x="1347" y="344" on="0"/>
        <pt x="1411" y="450" on="0"/>
        <pt x="1431" y="520" on="1"/>
        <pt x="1689" y="1421" on="1"/>
        <pt x="1941" y="1421" on="1"/>
        <pt x="1676" y="495" on="1"/>
        <pt x="1666" y="461" on="0"/>
        <pt x="1651" y="415" on="0"/>
        <pt x="1614" y="328" on="0"/>
        <pt x="1574" y="263" on="0"/>
        <pt x="1505" y="177" on="0"/>
        <pt x="1426" y="115" on="0"/>
        <pt x="1310" y="48" on="0"/>
        <pt x="1176" y="7" on="0"/>
        <pt x="999" y="-20" on="0"/>
        <pt x="898" y="-20" on="1"/>
        <pt x="399" y="-20" on="0"/>
        <pt x="399" y="305" on="1"/>
        <pt x="399" y="384" on="0"/>
        <pt x="432" y="495" on="1"/>
      </contour>
      <contour>
        <pt x="1486" y="1943" on="1"/>
        <pt x="1737" y="1594" on="1"/>
        <pt x="1523" y="1450" on="1"/>
        <pt x="1383" y="1644" on="1"/>
        <pt x="1130" y="1453" on="1"/>
        <pt x="999" y="1586" on="1"/>
      </contour>
    </TTGlyph>
    <TTGlyph name="Udieresis" xMin="399" yMin="-20" xMax="1941" yMax="1898">
      <contour>
        <pt x="697" y="1421" on="1"/>
        <pt x="949" y="1421" on="1"/>
        <pt x="691" y="520" on="1"/>
        <pt x="672" y="451" on="0"/>
        <pt x="672" y="402" on="1"/>
        <pt x="672" y="209" on="0"/>
        <pt x="972" y="209" on="1"/>
        <pt x="1079" y="209" on="0"/>
        <pt x="1242" y="255" on="0"/>
        <pt x="1347" y="344" on="0"/>
        <pt x="1411" y="450" on="0"/>
        <pt x="1431" y="520" on="1"/>
        <pt x="1689" y="1421" on="1"/>
        <pt x="1941" y="1421" on="1"/>
        <pt x="1676" y="495" on="1"/>
        <pt x="1666" y="461" on="0"/>
        <pt x="1651" y="415" on="0"/>
        <pt x="1614" y="328" on="0"/>
        <pt x="1574" y="263" on="0"/>
        <pt x="1505" y="177" on="0"/>
        <pt x="1426" y="115" on="0"/>
        <pt x="1310" y="48" on="0"/>
        <pt x="1176" y="7" on="0"/>
        <pt x="999" y="-20" on="0"/>
        <pt x="898" y="-20" on="1"/>
        <pt x="399" y="-20" on="0"/>
        <pt x="399" y="305" on="1"/>
        <pt x="399" y="384" on="0"/>
        <pt x="432" y="495" on="1"/>
      </contour>
      <contour>
        <pt x="1057" y="1898" on="1"/>
        <pt x="1354" y="1898" on="1"/>
        <pt x="1278" y="1631" on="1"/>
        <pt x="981" y="1631" on="1"/>
      </contour>
      <contour>
        <pt x="1558" y="1898" on="1"/>
        <pt x="1855" y="1898" on="1"/>
        <pt x="1779" y="1631" on="1"/>
        <pt x="1482" y="1631" on="1"/>
      </contour>
    </TTGlyph>
    <TTGlyph name="Ugrave" xMin="399" yMin="-20" xMax="1941" yMax="1973">
      <contour>
        <pt x="697" y="1421" on="1"/>
        <pt x="949" y="1421" on="1"/>
        <pt x="691" y="520" on="1"/>
        <pt x="672" y="451" on="0"/>
        <pt x="672" y="402" on="1"/>
        <pt x="672" y="209" on="0"/>
        <pt x="972" y="209" on="1"/>
        <pt x="1079" y="209" on="0"/>
        <pt x="1242" y="255" on="0"/>
        <pt x="1347" y="344" on="0"/>
        <pt x="1411" y="450" on="0"/>
        <pt x="1431" y="520" on="1"/>
        <pt x="1689" y="1421" on="1"/>
        <pt x="1941" y="1421" on="1"/>
        <pt x="1676" y="495" on="1"/>
        <pt x="1666" y="461" on="0"/>
        <pt x="1651" y="415" on="0"/>
        <pt x="1614" y="328" on="0"/>
        <pt x="1574" y="263" on="0"/>
        <pt x="1505" y="177" on="0"/>
        <pt x="1426" y="115" on="0"/>
        <pt x="1310" y="48" on="0"/>
        <pt x="1176" y="7" on="0"/>
        <pt x="999" y="-20" on="0"/>
        <pt x="898" y="-20" on="1"/>
        <pt x="399" y="-20" on="0"/>
        <pt x="399" y="305" on="1"/>
        <pt x="399" y="384" on="0"/>
        <pt x="432" y="495" on="1"/>
      </contour>
      <contour>
        <pt x="1230" y="1973" on="1"/>
        <pt x="1772" y="1620" on="1"/>
        <pt x="1607" y="1444" on="1"/>
        <pt x="1048" y="1778" on="1"/>
      </contour>
    </TTGlyph>
    <TTGlyph name="Uhungarumlaut" xMin="397" yMin="-20" xMax="2152" yMax="2021">
      <contour>
        <pt x="970" y="1451" on="1"/>
        <pt x="896" y="1635" on="1"/>
        <pt x="1558" y="2021" on="1"/>
        <pt x="1626" y="1853" on="1"/>
      </contour>
      <contour>
        <pt x="2078" y="2021" on="1"/>
        <pt x="2152" y="1837" on="1"/>
        <pt x="1490" y="1451" on="1"/>
        <pt x="1421" y="1619" on="1"/>
      </contour>
      <contour>
        <pt x="906" y="-20" on="1"/>
        <pt x="397" y="-20" on="0"/>
        <pt x="397" y="306" on="1"/>
        <pt x="397" y="383" on="0"/>
        <pt x="431" y="497" on="1"/>
        <pt x="697" y="1421" on="1"/>
        <pt x="949" y="1421" on="1"/>
        <pt x="691" y="520" on="1"/>
        <pt x="669" y="446" on="0"/>
        <pt x="669" y="401" on="1"/>
        <pt x="669" y="343" on="0"/>
        <pt x="702" y="302" on="1"/>
        <pt x="777" y="209" on="0"/>
        <pt x="972" y="209" on="1"/>
        <pt x="1052" y="209" on="0"/>
        <pt x="1188" y="239" on="0"/>
        <pt x="1278" y="285" on="0"/>
        <pt x="1350" y="349" on="0"/>
        <pt x="1389" y="405" on="0"/>
        <pt x="1418" y="469" on="0"/>
        <pt x="1427" y="501" on="0"/>
        <pt x="1430" y="515" on="1"/>
        <pt x="1431" y="519" on="0"/>
        <pt x="1431" y="520" on="1"/>
        <pt x="1689" y="1421" on="1"/>
        <pt x="1941" y="1421" on="1"/>
        <pt x="1713" y="624" on="1"/>
        <pt x="1709" y="610" on="0"/>
        <pt x="1687" y="524" on="0"/>
        <pt x="1671" y="464" on="0"/>
        <pt x="1633" y="364" on="0"/>
        <pt x="1592" y="290" on="0"/>
        <pt x="1522" y="194" on="0"/>
        <pt x="1442" y="125" on="0"/>
        <pt x="1325" y="53" on="0"/>
        <pt x="1190" y="8" on="0"/>
        <pt x="1009" y="-20" on="0"/>
      </contour>
    </TTGlyph>
    <TTGlyph name="Umacron" xMin="397" yMin="-20" xMax="1941" yMax="1697">
      <contour>
        <pt x="906" y="-20" on="1"/>
        <pt x="397" y="-20" on="0"/>
        <pt x="397" y="305" on="1"/>
        <pt x="397" y="381" on="0"/>
        <pt x="431" y="498" on="1"/>
        <pt x="437" y="520" on="0"/>
        <pt x="464" y="606" on="0"/>
        <pt x="469" y="624" on="1"/>
        <pt x="697" y="1421" on="1"/>
        <pt x="949" y="1421" on="1"/>
        <pt x="691" y="520" on="1"/>
        <pt x="669" y="446" on="0"/>
        <pt x="669" y="401" on="1"/>
        <pt x="669" y="343" on="0"/>
        <pt x="702" y="302" on="1"/>
        <pt x="777" y="209" on="0"/>
        <pt x="972" y="209" on="1"/>
        <pt x="1052" y="209" on="0"/>
        <pt x="1188" y="239" on="0"/>
        <pt x="1278" y="285" on="0"/>
        <pt x="1350" y="349" on="0"/>
        <pt x="1389" y="405" on="0"/>
        <pt x="1418" y="469" on="0"/>
        <pt x="1427" y="501" on="0"/>
        <pt x="1430" y="515" on="1"/>
        <pt x="1431" y="519" on="0"/>
        <pt x="1431" y="520" on="1"/>
        <pt x="1689" y="1421" on="1"/>
        <pt x="1941" y="1421" on="1"/>
        <pt x="1713" y="624" on="1"/>
        <pt x="1709" y="610" on="0"/>
        <pt x="1687" y="524" on="0"/>
        <pt x="1671" y="464" on="0"/>
        <pt x="1633" y="364" on="0"/>
        <pt x="1592" y="290" on="0"/>
        <pt x="1522" y="194" on="0"/>
        <pt x="1442" y="125" on="0"/>
        <pt x="1325" y="53" on="0"/>
        <pt x="1190" y="8" on="0"/>
        <pt x="1009" y="-20" on="0"/>
      </contour>
      <contour>
        <pt x="882" y="1697" on="1"/>
        <pt x="1876" y="1697" on="1"/>
        <pt x="1815" y="1486" on="1"/>
        <pt x="821" y="1486" on="1"/>
      </contour>
    </TTGlyph>
    <TTGlyph name="Uogonek" xMin="399" yMin="-545" xMax="1941" yMax="1421">
      <contour>
        <pt x="431" y="497" on="1"/>
        <pt x="697" y="1421" on="1"/>
        <pt x="949" y="1421" on="1"/>
        <pt x="691" y="520" on="1"/>
        <pt x="669" y="446" on="0"/>
        <pt x="669" y="401" on="1"/>
        <pt x="669" y="343" on="0"/>
        <pt x="702" y="302" on="1"/>
        <pt x="777" y="209" on="0"/>
        <pt x="972" y="209" on="1"/>
        <pt x="1052" y="209" on="0"/>
        <pt x="1188" y="239" on="0"/>
        <pt x="1278" y="285" on="0"/>
        <pt x="1350" y="349" on="0"/>
        <pt x="1389" y="405" on="0"/>
        <pt x="1418" y="469" on="0"/>
        <pt x="1427" y="501" on="0"/>
        <pt x="1430" y="515" on="1"/>
        <pt x="1431" y="519" on="0"/>
        <pt x="1431" y="520" on="1"/>
        <pt x="1689" y="1421" on="1"/>
        <pt x="1941" y="1421" on="1"/>
        <pt x="1680" y="506" on="1"/>
        <pt x="1646" y="389" on="0"/>
        <pt x="1565" y="231" on="0"/>
        <pt x="1446" y="122" on="0"/>
        <pt x="1322" y="55" on="0"/>
        <pt x="1220" y="16" on="1"/>
        <pt x="1123" y="-20" on="0"/>
        <pt x="975" y="-108" on="0"/>
        <pt x="897" y="-185" on="0"/>
        <pt x="858" y="-241" on="0"/>
        <pt x="852" y="-261" on="1"/>
        <pt x="849" y="-273" on="0"/>
        <pt x="849" y="-283" on="1"/>
        <pt x="849" y="-330" on="0"/>
        <pt x="907" y="-330" on="1"/>
        <pt x="973" y="-330" on="0"/>
        <pt x="1078" y="-276" on="1"/>
        <pt x="1128" y="-251" on="1"/>
        <pt x="1178" y="-413" on="1"/>
        <pt x="1141" y="-435" on="1"/>
        <pt x="947" y="-545" on="0"/>
        <pt x="787" y="-545" on="1"/>
        <pt x="684" y="-545" on="0"/>
        <pt x="577" y="-450" on="0"/>
        <pt x="577" y="-370" on="1"/>
        <pt x="577" y="-289" on="0"/>
        <pt x="687" y="-100" on="0"/>
        <pt x="790" y="-16" on="1"/>
        <pt x="399" y="16" on="0"/>
        <pt x="399" y="308" on="1"/>
        <pt x="399" y="388" on="0"/>
      </contour>
    </TTGlyph>
    <TTGlyph name="Uring" xMin="397" yMin="-20" xMax="1941" yMax="2007">
      <contour>
        <pt x="1465" y="2007" on="1"/>
        <pt x="1566" y="2007" on="0"/>
        <pt x="1693" y="1895" on="0"/>
        <pt x="1693" y="1808" on="1"/>
        <pt x="1693" y="1775" on="0"/>
        <pt x="1683" y="1742" on="1"/>
        <pt x="1652" y="1632" on="0"/>
        <pt x="1434" y="1476" on="0"/>
        <pt x="1313" y="1476" on="1"/>
        <pt x="1212" y="1476" on="0"/>
        <pt x="1086" y="1588" on="0"/>
        <pt x="1086" y="1675" on="1"/>
        <pt x="1086" y="1709" on="0"/>
        <pt x="1096" y="1742" on="1"/>
        <pt x="1127" y="1851" on="0"/>
        <pt x="1344" y="2007" on="0"/>
      </contour>
      <contour>
        <pt x="1416" y="1834" on="1"/>
        <pt x="1360" y="1834" on="0"/>
        <pt x="1286" y="1758" on="0"/>
        <pt x="1286" y="1715" on="1"/>
        <pt x="1286" y="1686" on="0"/>
        <pt x="1325" y="1649" on="0"/>
        <pt x="1363" y="1649" on="1"/>
        <pt x="1407" y="1649" on="0"/>
        <pt x="1477" y="1708" on="0"/>
        <pt x="1487" y="1742" on="1"/>
        <pt x="1490" y="1754" on="0"/>
        <pt x="1490" y="1765" on="1"/>
        <pt x="1490" y="1794" on="0"/>
        <pt x="1450" y="1834" on="0"/>
      </contour>
      <contour>
        <pt x="906" y="-20" on="1"/>
        <pt x="397" y="-20" on="0"/>
        <pt x="397" y="306" on="1"/>
        <pt x="397" y="383" on="0"/>
        <pt x="431" y="497" on="1"/>
        <pt x="697" y="1421" on="1"/>
        <pt x="949" y="1421" on="1"/>
        <pt x="691" y="520" on="1"/>
        <pt x="669" y="446" on="0"/>
        <pt x="669" y="401" on="1"/>
        <pt x="669" y="343" on="0"/>
        <pt x="702" y="302" on="1"/>
        <pt x="777" y="209" on="0"/>
        <pt x="972" y="209" on="1"/>
        <pt x="1052" y="209" on="0"/>
        <pt x="1188" y="239" on="0"/>
        <pt x="1278" y="285" on="0"/>
        <pt x="1350" y="349" on="0"/>
        <pt x="1389" y="405" on="0"/>
        <pt x="1418" y="469" on="0"/>
        <pt x="1427" y="501" on="0"/>
        <pt x="1430" y="515" on="1"/>
        <pt x="1431" y="519" on="0"/>
        <pt x="1431" y="520" on="1"/>
        <pt x="1689" y="1421" on="1"/>
        <pt x="1941" y="1421" on="1"/>
        <pt x="1713" y="624" on="1"/>
        <pt x="1709" y="610" on="0"/>
        <pt x="1687" y="524" on="0"/>
        <pt x="1671" y="464" on="0"/>
        <pt x="1633" y="364" on="0"/>
        <pt x="1592" y="290" on="0"/>
        <pt x="1522" y="194" on="0"/>
        <pt x="1442" y="125" on="0"/>
        <pt x="1325" y="53" on="0"/>
        <pt x="1190" y="8" on="0"/>
        <pt x="1009" y="-20" on="0"/>
      </contour>
    </TTGlyph>
    <TTGlyph name="Utilde" xMin="397" yMin="-20" xMax="1941" yMax="1876">
      <contour>
        <pt x="906" y="-20" on="1"/>
        <pt x="397" y="-20" on="0"/>
        <pt x="397" y="305" on="1"/>
        <pt x="397" y="381" on="0"/>
        <pt x="431" y="498" on="1"/>
        <pt x="437" y="520" on="0"/>
        <pt x="464" y="606" on="0"/>
        <pt x="469" y="624" on="1"/>
        <pt x="697" y="1421" on="1"/>
        <pt x="949" y="1421" on="1"/>
        <pt x="691" y="520" on="1"/>
        <pt x="669" y="446" on="0"/>
        <pt x="669" y="401" on="1"/>
        <pt x="669" y="343" on="0"/>
        <pt x="702" y="302" on="1"/>
        <pt x="777" y="209" on="0"/>
        <pt x="972" y="209" on="1"/>
        <pt x="1052" y="209" on="0"/>
        <pt x="1188" y="239" on="0"/>
        <pt x="1278" y="285" on="0"/>
        <pt x="1350" y="349" on="0"/>
        <pt x="1389" y="405" on="0"/>
        <pt x="1418" y="469" on="0"/>
        <pt x="1427" y="501" on="0"/>
        <pt x="1430" y="515" on="1"/>
        <pt x="1431" y="519" on="0"/>
        <pt x="1431" y="520" on="1"/>
        <pt x="1689" y="1421" on="1"/>
        <pt x="1941" y="1421" on="1"/>
        <pt x="1713" y="624" on="1"/>
        <pt x="1709" y="610" on="0"/>
        <pt x="1687" y="524" on="0"/>
        <pt x="1671" y="464" on="0"/>
        <pt x="1633" y="364" on="0"/>
        <pt x="1592" y="290" on="0"/>
        <pt x="1522" y="194" on="0"/>
        <pt x="1442" y="125" on="0"/>
        <pt x="1325" y="53" on="0"/>
        <pt x="1190" y="8" on="0"/>
        <pt x="1009" y="-20" on="0"/>
      </contour>
      <contour>
        <pt x="1244" y="1862" on="1"/>
        <pt x="1302" y="1859" on="0"/>
        <pt x="1394" y="1820" on="0"/>
        <pt x="1449" y="1768" on="0"/>
        <pt x="1492" y="1717" on="0"/>
        <pt x="1532" y="1681" on="0"/>
        <pt x="1551" y="1681" on="1"/>
        <pt x="1565" y="1681" on="0"/>
        <pt x="1594" y="1697" on="0"/>
        <pt x="1633" y="1736" on="0"/>
        <pt x="1659" y="1764" on="0"/>
        <pt x="1712" y="1828" on="0"/>
        <pt x="1724" y="1842" on="1"/>
        <pt x="1754" y="1876" on="1"/>
        <pt x="1917" y="1796" on="1"/>
        <pt x="1888" y="1758" on="1"/>
        <pt x="1887" y="1757" on="0"/>
        <pt x="1841" y="1697" on="0"/>
        <pt x="1831" y="1684" on="0"/>
        <pt x="1783" y="1626" on="0"/>
        <pt x="1761" y="1606" on="0"/>
        <pt x="1711" y="1557" on="0"/>
        <pt x="1678" y="1537" on="0"/>
        <pt x="1624" y="1504" on="0"/>
        <pt x="1579" y="1490" on="0"/>
        <pt x="1522" y="1478" on="0"/>
        <pt x="1493" y="1478" on="1"/>
        <pt x="1435" y="1481" on="0"/>
        <pt x="1342" y="1520" on="0"/>
        <pt x="1288" y="1572" on="0"/>
        <pt x="1245" y="1623" on="0"/>
        <pt x="1205" y="1659" on="0"/>
        <pt x="1186" y="1659" on="1"/>
        <pt x="1176" y="1659" on="0"/>
        <pt x="1155" y="1650" on="0"/>
        <pt x="1130" y="1631" on="0"/>
        <pt x="1109" y="1612" on="0"/>
        <pt x="1078" y="1577" on="0"/>
        <pt x="1058" y="1554" on="0"/>
        <pt x="1023" y="1510" on="0"/>
        <pt x="1013" y="1499" on="1"/>
        <pt x="983" y="1464" on="1"/>
        <pt x="825" y="1544" on="1"/>
        <pt x="854" y="1582" on="1"/>
        <pt x="858" y="1587" on="0"/>
        <pt x="898" y="1640" on="0"/>
        <pt x="913" y="1660" on="0"/>
        <pt x="956" y="1711" on="0"/>
        <pt x="981" y="1736" on="0"/>
        <pt x="1028" y="1781" on="0"/>
        <pt x="1063" y="1804" on="0"/>
        <pt x="1114" y="1835" on="0"/>
        <pt x="1160" y="1851" on="0"/>
        <pt x="1216" y="1862" on="0"/>
      </contour>
    </TTGlyph>
    <TTGlyph name="V" xMin="547" yMin="0" xMax="1945" yMax="1421">
      <contour>
        <pt x="547" y="1421" on="1"/>
        <pt x="836" y="1421" on="1"/>
        <pt x="925" y="271" on="1"/>
        <pt x="1671" y="1421" on="1"/>
        <pt x="1945" y="1421" on="1"/>
        <pt x="988" y="0" on="1"/>
        <pt x="689" y="0" on="1"/>
      </contour>
    </TTGlyph>
    <TTGlyph name="W" xMin="547" yMin="0" xMax="2787" yMax="1421">
      <contour>
        <pt x="547" y="1421" on="1"/>
        <pt x="813" y="1421" on="1"/>
        <pt x="827" y="329" on="1"/>
        <pt x="1551" y="1421" on="1"/>
        <pt x="1783" y="1421" on="1"/>
        <pt x="1808" y="329" on="1"/>
        <pt x="2521" y="1421" on="1"/>
        <pt x="2787" y="1421" on="1"/>
        <pt x="1835" y="0" on="1"/>
        <pt x="1594" y="0" on="1"/>
        <pt x="1564" y="1087" on="1"/>
        <pt x="850" y="0" on="1"/>
        <pt x="609" y="0" on="1"/>
      </contour>
    </TTGlyph>
    <TTGlyph name="Wacute" xMin="547" yMin="0" xMax="2777" yMax="1944">
      <contour>
        <pt x="547" y="1421" on="1"/>
        <pt x="815" y="1421" on="1"/>
        <pt x="829" y="329" on="1"/>
        <pt x="1553" y="1421" on="1"/>
        <pt x="1785" y="1421" on="1"/>
        <pt x="1811" y="329" on="1"/>
        <pt x="2523" y="1421" on="1"/>
        <pt x="2777" y="1421" on="1"/>
        <pt x="1837" y="0" on="1"/>
        <pt x="1596" y="0" on="1"/>
        <pt x="1566" y="1087" on="1"/>
        <pt x="852" y="0" on="1"/>
        <pt x="611" y="0" on="1"/>
      </contour>
      <contour>
        <pt x="2041" y="1944" on="1"/>
        <pt x="2111" y="1749" on="1"/>
        <pt x="1388" y="1414" on="1"/>
        <pt x="1323" y="1591" on="1"/>
      </contour>
    </TTGlyph>
    <TTGlyph name="Wcircumflex" xMin="547" yMin="0" xMax="2777" yMax="1955">
      <contour>
        <pt x="547" y="1421" on="1"/>
        <pt x="815" y="1421" on="1"/>
        <pt x="829" y="329" on="1"/>
        <pt x="1553" y="1421" on="1"/>
        <pt x="1785" y="1421" on="1"/>
        <pt x="1811" y="329" on="1"/>
        <pt x="2523" y="1421" on="1"/>
        <pt x="2777" y="1421" on="1"/>
        <pt x="1837" y="0" on="1"/>
        <pt x="1596" y="0" on="1"/>
        <pt x="1566" y="1087" on="1"/>
        <pt x="852" y="0" on="1"/>
        <pt x="611" y="0" on="1"/>
      </contour>
      <contour>
        <pt x="1830" y="1955" on="1"/>
        <pt x="2067" y="1607" on="1"/>
        <pt x="1855" y="1462" on="1"/>
        <pt x="1730" y="1656" on="1"/>
        <pt x="1488" y="1465" on="1"/>
        <pt x="1357" y="1598" on="1"/>
      </contour>
    </TTGlyph>
    <TTGlyph name="Wdieresis" xMin="547" yMin="0" xMax="2777" yMax="1898">
      <contour>
        <pt x="547" y="1421" on="1"/>
        <pt x="815" y="1421" on="1"/>
        <pt x="829" y="329" on="1"/>
        <pt x="1553" y="1421" on="1"/>
        <pt x="1785" y="1421" on="1"/>
        <pt x="1811" y="329" on="1"/>
        <pt x="2523" y="1421" on="1"/>
        <pt x="2777" y="1421" on="1"/>
        <pt x="1837" y="0" on="1"/>
        <pt x="1596" y="0" on="1"/>
        <pt x="1566" y="1087" on="1"/>
        <pt x="852" y="0" on="1"/>
        <pt x="611" y="0" on="1"/>
      </contour>
      <contour>
        <pt x="1410" y="1898" on="1"/>
        <pt x="1708" y="1898" on="1"/>
        <pt x="1632" y="1631" on="1"/>
        <pt x="1334" y="1631" on="1"/>
      </contour>
      <contour>
        <pt x="1891" y="1898" on="1"/>
        <pt x="2187" y="1898" on="1"/>
        <pt x="2111" y="1631" on="1"/>
        <pt x="1815" y="1631" on="1"/>
      </contour>
    </TTGlyph>
    <TTGlyph name="Wgrave" xMin="547" yMin="0" xMax="2777" yMax="1944">
      <contour>
        <pt x="547" y="1421" on="1"/>
        <pt x="815" y="1421" on="1"/>
        <pt x="829" y="329" on="1"/>
        <pt x="1553" y="1421" on="1"/>
        <pt x="1785" y="1421" on="1"/>
        <pt x="1811" y="329" on="1"/>
        <pt x="2523" y="1421" on="1"/>
        <pt x="2777" y="1421" on="1"/>
        <pt x="1837" y="0" on="1"/>
        <pt x="1596" y="0" on="1"/>
        <pt x="1566" y="1087" on="1"/>
        <pt x="852" y="0" on="1"/>
        <pt x="611" y="0" on="1"/>
      </contour>
      <contour>
        <pt x="1639" y="1944" on="1"/>
        <pt x="2155" y="1591" on="1"/>
        <pt x="1989" y="1414" on="1"/>
        <pt x="1459" y="1749" on="1"/>
      </contour>
    </TTGlyph>
    <TTGlyph name="X" xMin="110" yMin="0" xMax="1927" yMax="1421">
      <contour>
        <pt x="1632" y="1421" on="1"/>
        <pt x="1927" y="1421" on="1"/>
        <pt x="1233" y="744" on="1"/>
        <pt x="1575" y="0" on="1"/>
        <pt x="1256" y="0" on="1"/>
        <pt x="1000" y="566" on="1"/>
        <pt x="420" y="0" on="1"/>
        <pt x="110" y="0" on="1"/>
        <pt x="885" y="741" on="1"/>
        <pt x="579" y="1421" on="1"/>
        <pt x="883" y="1421" on="1"/>
        <pt x="1121" y="919" on="1"/>
      </contour>
    </TTGlyph>
    <TTGlyph name="Y" xMin="507" yMin="0" xMax="1861" yMax="1421">
      <contour>
        <pt x="507" y="1421" on="1"/>
        <pt x="805" y="1421" on="1"/>
        <pt x="1027" y="870" on="1"/>
        <pt x="1573" y="1421" on="1"/>
        <pt x="1861" y="1421" on="1"/>
        <pt x="1099" y="664" on="1"/>
        <pt x="909" y="0" on="1"/>
        <pt x="626" y="0" on="1"/>
        <pt x="816" y="664" on="1"/>
      </contour>
    </TTGlyph>
    <TTGlyph name="Yacute" xMin="507" yMin="0" xMax="1861" yMax="1976">
      <contour>
        <pt x="507" y="1421" on="1"/>
        <pt x="805" y="1421" on="1"/>
        <pt x="1027" y="870" on="1"/>
        <pt x="1573" y="1421" on="1"/>
        <pt x="1861" y="1421" on="1"/>
        <pt x="1099" y="664" on="1"/>
        <pt x="909" y="0" on="1"/>
        <pt x="626" y="0" on="1"/>
        <pt x="816" y="664" on="1"/>
      </contour>
      <contour>
        <pt x="1594" y="1976" on="1"/>
        <pt x="1662" y="1781" on="1"/>
        <pt x="913" y="1444" on="1"/>
        <pt x="851" y="1623" on="1"/>
      </contour>
    </TTGlyph>
    <TTGlyph name="Ycircumflex" xMin="507" yMin="0" xMax="1861" yMax="1951">
      <contour>
        <pt x="507" y="1421" on="1"/>
        <pt x="805" y="1421" on="1"/>
        <pt x="1027" y="870" on="1"/>
        <pt x="1573" y="1421" on="1"/>
        <pt x="1861" y="1421" on="1"/>
        <pt x="1099" y="664" on="1"/>
        <pt x="909" y="0" on="1"/>
        <pt x="626" y="0" on="1"/>
        <pt x="816" y="664" on="1"/>
      </contour>
      <contour>
        <pt x="1355" y="1951" on="1"/>
        <pt x="1605" y="1603" on="1"/>
        <pt x="1393" y="1458" on="1"/>
        <pt x="1254" y="1652" on="1"/>
        <pt x="999" y="1461" on="1"/>
        <pt x="870" y="1594" on="1"/>
      </contour>
    </TTGlyph>
    <TTGlyph name="Ydieresis" xMin="507" yMin="0" xMax="1861" yMax="1898">
      <contour>
        <pt x="507" y="1421" on="1"/>
        <pt x="805" y="1421" on="1"/>
        <pt x="1027" y="870" on="1"/>
        <pt x="1573" y="1421" on="1"/>
        <pt x="1861" y="1421" on="1"/>
        <pt x="1099" y="664" on="1"/>
        <pt x="909" y="0" on="1"/>
        <pt x="626" y="0" on="1"/>
        <pt x="816" y="664" on="1"/>
      </contour>
      <contour>
        <pt x="1421" y="1898" on="1"/>
        <pt x="1719" y="1898" on="1"/>
        <pt x="1643" y="1631" on="1"/>
        <pt x="1345" y="1631" on="1"/>
      </contour>
      <contour>
        <pt x="920" y="1898" on="1"/>
        <pt x="1216" y="1898" on="1"/>
        <pt x="1140" y="1631" on="1"/>
        <pt x="844" y="1631" on="1"/>
      </contour>
    </TTGlyph>
    <TTGlyph name="Ygrave" xMin="507" yMin="0" xMax="1861" yMax="1944">
      <contour>
        <pt x="507" y="1421" on="1"/>
        <pt x="805" y="1421" on="1"/>
        <pt x="1027" y="870" on="1"/>
        <pt x="1573" y="1421" on="1"/>
        <pt x="1861" y="1421" on="1"/>
        <pt x="1099" y="664" on="1"/>
        <pt x="909" y="0" on="1"/>
        <pt x="626" y="0" on="1"/>
        <pt x="816" y="664" on="1"/>
      </contour>
      <contour>
        <pt x="1091" y="1944" on="1"/>
        <pt x="1632" y="1591" on="1"/>
        <pt x="1467" y="1414" on="1"/>
        <pt x="911" y="1749" on="1"/>
      </contour>
    </TTGlyph>
    <TTGlyph name="Z" xMin="155" yMin="0" xMax="1842" yMax="1421">
      <contour>
        <pt x="592" y="1421" on="1"/>
        <pt x="1842" y="1421" on="1"/>
        <pt x="1799" y="1268" on="1"/>
        <pt x="584" y="232" on="1"/>
        <pt x="1529" y="232" on="1"/>
        <pt x="1462" y="0" on="1"/>
        <pt x="155" y="0" on="1"/>
        <pt x="199" y="155" on="1"/>
        <pt x="1393" y="1189" on="1"/>
        <pt x="526" y="1189" on="1"/>
      </contour>
    </TTGlyph>
    <TTGlyph name="Zacute" xMin="155" yMin="0" xMax="1842" yMax="1992">
      <contour>
        <pt x="592" y="1421" on="1"/>
        <pt x="1842" y="1421" on="1"/>
        <pt x="1799" y="1268" on="1"/>
        <pt x="584" y="232" on="1"/>
        <pt x="1529" y="232" on="1"/>
        <pt x="1462" y="0" on="1"/>
        <pt x="155" y="0" on="1"/>
        <pt x="199" y="155" on="1"/>
        <pt x="1393" y="1189" on="1"/>
        <pt x="526" y="1189" on="1"/>
      </contour>
      <contour>
        <pt x="1657" y="1992" on="1"/>
        <pt x="1724" y="1797" on="1"/>
        <pt x="980" y="1461" on="1"/>
        <pt x="917" y="1639" on="1"/>
      </contour>
    </TTGlyph>
    <TTGlyph name="Zcaron" xMin="155" yMin="0" xMax="1842" yMax="1950">
      <contour>
        <pt x="592" y="1421" on="1"/>
        <pt x="1842" y="1421" on="1"/>
        <pt x="1799" y="1268" on="1"/>
        <pt x="584" y="232" on="1"/>
        <pt x="1529" y="232" on="1"/>
        <pt x="1462" y="0" on="1"/>
        <pt x="155" y="0" on="1"/>
        <pt x="199" y="155" on="1"/>
        <pt x="1393" y="1189" on="1"/>
        <pt x="526" y="1189" on="1"/>
      </contour>
      <contour>
        <pt x="1215" y="1457" on="1"/>
        <pt x="968" y="1805" on="1"/>
        <pt x="1178" y="1950" on="1"/>
        <pt x="1317" y="1756" on="1"/>
        <pt x="1569" y="1947" on="1"/>
        <pt x="1697" y="1814" on="1"/>
      </contour>
    </TTGlyph>
    <TTGlyph name="Zdotaccent" xMin="155" yMin="0" xMax="1842" yMax="1829">
      <contour>
        <pt x="592" y="1421" on="1"/>
        <pt x="1842" y="1421" on="1"/>
        <pt x="1799" y="1268" on="1"/>
        <pt x="584" y="232" on="1"/>
        <pt x="1529" y="232" on="1"/>
        <pt x="1462" y="0" on="1"/>
        <pt x="155" y="0" on="1"/>
        <pt x="199" y="155" on="1"/>
        <pt x="1393" y="1189" on="1"/>
        <pt x="526" y="1189" on="1"/>
      </contour>
      <contour>
        <pt x="1153" y="1829" on="1"/>
        <pt x="1478" y="1829" on="1"/>
        <pt x="1395" y="1537" on="1"/>
        <pt x="1070" y="1537" on="1"/>
      </contour>
    </TTGlyph>
    <TTGlyph name="a" xMin="188" yMin="-20" xMax="1241" yMax="982">
      <contour>
        <pt x="871" y="982" on="1"/>
        <pt x="1241" y="982" on="0"/>
        <pt x="1241" y="753" on="1"/>
        <pt x="1241" y="702" on="0"/>
        <pt x="1221" y="632" on="1"/>
        <pt x="1039" y="0" on="1"/>
        <pt x="855" y="0" on="1"/>
        <pt x="846" y="65" on="1"/>
        <pt x="691" y="-20" on="0"/>
        <pt x="523" y="-20" on="1"/>
        <pt x="366" y="-20" on="0"/>
        <pt x="188" y="110" on="0"/>
        <pt x="188" y="208" on="1"/>
        <pt x="188" y="239" on="0"/>
        <pt x="196" y="266" on="1"/>
        <pt x="222" y="355" on="0"/>
        <pt x="363" y="477" on="0"/>
        <pt x="581" y="540" on="0"/>
        <pt x="809" y="566" on="0"/>
        <pt x="955" y="568" on="1"/>
        <pt x="964" y="600" on="1"/>
        <pt x="975" y="638" on="0"/>
        <pt x="975" y="662" on="1"/>
        <pt x="975" y="764" on="0"/>
        <pt x="776" y="764" on="1"/>
        <pt x="666" y="764" on="0"/>
        <pt x="472" y="720" on="1"/>
        <pt x="429" y="709" on="1"/>
        <pt x="435" y="906" on="1"/>
        <pt x="473" y="918" on="1"/>
        <pt x="674" y="982" on="0"/>
      </contour>
      <contour>
        <pt x="864" y="251" on="1"/>
        <pt x="902" y="382" on="1"/>
        <pt x="878" y="382" on="1"/>
        <pt x="680" y="382" on="0"/>
        <pt x="476" y="337" on="0"/>
        <pt x="461" y="284" on="1"/>
        <pt x="460" y="281" on="0"/>
        <pt x="460" y="274" on="1"/>
        <pt x="460" y="242" on="0"/>
        <pt x="559" y="191" on="0"/>
        <pt x="637" y="191" on="1"/>
        <pt x="755" y="191" on="0"/>
      </contour>
    </TTGlyph>
    <TTGlyph name="aacute" xMin="188" yMin="-20" xMax="1333" yMax="1567">
      <contour>
        <pt x="1237" y="1567" on="1"/>
        <pt x="1333" y="1386" on="1"/>
        <pt x="723" y="1002" on="1"/>
        <pt x="630" y="1172" on="1"/>
      </contour>
      <contour>
        <pt x="864" y="251" on="1"/>
        <pt x="902" y="384" on="1"/>
        <pt x="878" y="384" on="1"/>
        <pt x="675" y="384" on="0"/>
        <pt x="463" y="338" on="0"/>
        <pt x="448" y="285" on="1"/>
        <pt x="447" y="282" on="0"/>
        <pt x="447" y="275" on="1"/>
        <pt x="447" y="242" on="0"/>
        <pt x="547" y="191" on="0"/>
        <pt x="628" y="191" on="1"/>
        <pt x="752" y="191" on="0"/>
      </contour>
      <contour>
        <pt x="862" y="981" on="1"/>
        <pt x="1239" y="981" on="0"/>
        <pt x="1239" y="751" on="1"/>
        <pt x="1239" y="700" on="0"/>
        <pt x="1219" y="628" on="1"/>
        <pt x="1039" y="0" on="1"/>
        <pt x="855" y="0" on="1"/>
        <pt x="846" y="65" on="1"/>
        <pt x="690" y="-20" on="0"/>
        <pt x="513" y="-20" on="1"/>
        <pt x="361" y="-20" on="0"/>
        <pt x="188" y="111" on="0"/>
        <pt x="188" y="208" on="1"/>
        <pt x="188" y="240" on="0"/>
        <pt x="196" y="267" on="1"/>
        <pt x="217" y="339" on="0"/>
        <pt x="319" y="447" on="0"/>
        <pt x="455" y="512" on="0"/>
        <pt x="647" y="552" on="0"/>
        <pt x="836" y="568" on="0"/>
        <pt x="955" y="569" on="1"/>
        <pt x="965" y="602" on="1"/>
        <pt x="975" y="635" on="0"/>
        <pt x="975" y="662" on="1"/>
        <pt x="975" y="710" on="0"/>
        <pt x="884" y="764" on="0"/>
        <pt x="767" y="764" on="1"/>
        <pt x="645" y="764" on="0"/>
        <pt x="472" y="723" on="1"/>
        <pt x="430" y="713" on="1"/>
        <pt x="435" y="906" on="1"/>
        <pt x="473" y="918" on="1"/>
        <pt x="658" y="981" on="0"/>
      </contour>
    </TTGlyph>
    <TTGlyph name="abreve" xMin="188" yMin="-20" xMax="1502" yMax="1463">
      <contour>
        <pt x="546" y="1349" on="1"/>
        <pt x="770" y="1463" on="1"/>
        <pt x="778" y="1421" on="1"/>
        <pt x="783" y="1398" on="0"/>
        <pt x="802" y="1351" on="0"/>
        <pt x="845" y="1283" on="0"/>
        <pt x="925" y="1240" on="0"/>
        <pt x="977" y="1240" on="1"/>
        <pt x="1061" y="1240" on="0"/>
        <pt x="1255" y="1355" on="0"/>
        <pt x="1328" y="1429" on="1"/>
        <pt x="1362" y="1463" on="1"/>
        <pt x="1502" y="1327" on="1"/>
        <pt x="1465" y="1289" on="1"/>
        <pt x="1346" y="1172" on="0"/>
        <pt x="1045" y="1020" on="0"/>
        <pt x="894" y="1020" on="1"/>
        <pt x="806" y="1020" on="0"/>
        <pt x="672" y="1071" on="0"/>
        <pt x="593" y="1158" on="0"/>
        <pt x="552" y="1259" on="0"/>
        <pt x="548" y="1315" on="1"/>
      </contour>
      <contour>
        <pt x="852" y="251" on="1"/>
        <pt x="890" y="384" on="1"/>
        <pt x="867" y="384" on="1"/>
        <pt x="669" y="384" on="0"/>
        <pt x="463" y="338" on="0"/>
        <pt x="448" y="285" on="1"/>
        <pt x="447" y="282" on="0"/>
        <pt x="447" y="275" on="1"/>
        <pt x="447" y="242" on="0"/>
        <pt x="544" y="191" on="0"/>
        <pt x="623" y="191" on="1"/>
        <pt x="742" y="191" on="0"/>
      </contour>
      <contour>
        <pt x="854" y="981" on="1"/>
        <pt x="962" y="981" on="0"/>
        <pt x="1115" y="947" on="0"/>
        <pt x="1201" y="883" on="0"/>
        <pt x="1239" y="803" on="0"/>
        <pt x="1239" y="751" on="1"/>
        <pt x="1239" y="700" on="0"/>
        <pt x="1219" y="628" on="1"/>
        <pt x="1039" y="0" on="1"/>
        <pt x="855" y="0" on="1"/>
        <pt x="841" y="65" on="1"/>
        <pt x="674" y="-20" on="0"/>
        <pt x="508" y="-20" on="1"/>
        <pt x="360" y="-20" on="0"/>
        <pt x="188" y="111" on="0"/>
        <pt x="188" y="208" on="1"/>
        <pt x="188" y="240" on="0"/>
        <pt x="196" y="267" on="1"/>
        <pt x="213" y="327" on="0"/>
        <pt x="288" y="423" on="0"/>
        <pt x="397" y="487" on="0"/>
        <pt x="525" y="532" on="0"/>
        <pt x="687" y="557" on="0"/>
        <pt x="844" y="568" on="0"/>
        <pt x="939" y="569" on="1"/>
        <pt x="949" y="602" on="1"/>
        <pt x="960" y="640" on="0"/>
        <pt x="960" y="664" on="1"/>
        <pt x="960" y="711" on="0"/>
        <pt x="873" y="764" on="0"/>
        <pt x="761" y="764" on="1"/>
        <pt x="644" y="764" on="0"/>
        <pt x="472" y="723" on="1"/>
        <pt x="430" y="713" on="1"/>
        <pt x="435" y="906" on="1"/>
        <pt x="473" y="918" on="1"/>
        <pt x="658" y="981" on="0"/>
      </contour>
    </TTGlyph>
    <TTGlyph name="acircumflex" xMin="188" yMin="-20" xMax="1294" yMax="1509">
      <contour>
        <pt x="1059" y="1509" on="1"/>
        <pt x="1294" y="1144" on="1"/>
        <pt x="1098" y="992" on="1"/>
        <pt x="952" y="1195" on="1"/>
        <pt x="680" y="995" on="1"/>
        <pt x="566" y="1134" on="1"/>
      </contour>
      <contour>
        <pt x="864" y="251" on="1"/>
        <pt x="902" y="384" on="1"/>
        <pt x="878" y="384" on="1"/>
        <pt x="675" y="384" on="0"/>
        <pt x="463" y="338" on="0"/>
        <pt x="448" y="285" on="1"/>
        <pt x="447" y="282" on="0"/>
        <pt x="447" y="275" on="1"/>
        <pt x="447" y="242" on="0"/>
        <pt x="547" y="191" on="0"/>
        <pt x="628" y="191" on="1"/>
        <pt x="752" y="191" on="0"/>
      </contour>
      <contour>
        <pt x="862" y="981" on="1"/>
        <pt x="1239" y="981" on="0"/>
        <pt x="1239" y="751" on="1"/>
        <pt x="1239" y="700" on="0"/>
        <pt x="1219" y="628" on="1"/>
        <pt x="1039" y="0" on="1"/>
        <pt x="855" y="0" on="1"/>
        <pt x="846" y="65" on="1"/>
        <pt x="690" y="-20" on="0"/>
        <pt x="513" y="-20" on="1"/>
        <pt x="361" y="-20" on="0"/>
        <pt x="188" y="111" on="0"/>
        <pt x="188" y="208" on="1"/>
        <pt x="188" y="240" on="0"/>
        <pt x="196" y="267" on="1"/>
        <pt x="217" y="339" on="0"/>
        <pt x="319" y="447" on="0"/>
        <pt x="455" y="512" on="0"/>
        <pt x="647" y="552" on="0"/>
        <pt x="836" y="568" on="0"/>
        <pt x="955" y="569" on="1"/>
        <pt x="965" y="602" on="1"/>
        <pt x="975" y="635" on="0"/>
        <pt x="975" y="662" on="1"/>
        <pt x="975" y="710" on="0"/>
        <pt x="884" y="764" on="0"/>
        <pt x="767" y="764" on="1"/>
        <pt x="645" y="764" on="0"/>
        <pt x="472" y="723" on="1"/>
        <pt x="430" y="713" on="1"/>
        <pt x="435" y="906" on="1"/>
        <pt x="473" y="918" on="1"/>
        <pt x="658" y="981" on="0"/>
      </contour>
    </TTGlyph>
    <TTGlyph name="acute" xMin="589" yMin="1111" xMax="1319" yMax="1642">
      <contour>
        <pt x="1264" y="1642" on="1"/>
        <pt x="1319" y="1447" on="1"/>
        <pt x="640" y="1111" on="1"/>
        <pt x="589" y="1289" on="1"/>
      </contour>
    </TTGlyph>
    <TTGlyph name="adieresis" xMin="188" yMin="-20" xMax="1456" yMax="1421">
      <contour>
        <pt x="1184" y="1421" on="1"/>
        <pt x="1456" y="1421" on="1"/>
        <pt x="1379" y="1153" on="1"/>
        <pt x="1107" y="1153" on="1"/>
      </contour>
      <contour>
        <pt x="663" y="1421" on="1"/>
        <pt x="966" y="1421" on="1"/>
        <pt x="890" y="1153" on="1"/>
        <pt x="587" y="1153" on="1"/>
      </contour>
      <contour>
        <pt x="868" y="251" on="1"/>
        <pt x="906" y="384" on="1"/>
        <pt x="882" y="384" on="1"/>
        <pt x="676" y="384" on="0"/>
        <pt x="463" y="338" on="0"/>
        <pt x="448" y="285" on="1"/>
        <pt x="447" y="282" on="0"/>
        <pt x="447" y="275" on="1"/>
        <pt x="447" y="242" on="0"/>
        <pt x="549" y="191" on="0"/>
        <pt x="630" y="191" on="1"/>
        <pt x="755" y="191" on="0"/>
      </contour>
      <contour>
        <pt x="865" y="981" on="1"/>
        <pt x="971" y="981" on="0"/>
        <pt x="1122" y="947" on="0"/>
        <pt x="1207" y="883" on="0"/>
        <pt x="1244" y="804" on="0"/>
        <pt x="1244" y="700" on="0"/>
        <pt x="1224" y="628" on="1"/>
        <pt x="1044" y="0" on="1"/>
        <pt x="860" y="0" on="1"/>
        <pt x="851" y="65" on="1"/>
        <pt x="691" y="-20" on="0"/>
        <pt x="515" y="-20" on="1"/>
        <pt x="363" y="-20" on="0"/>
        <pt x="188" y="112" on="0"/>
        <pt x="188" y="209" on="1"/>
        <pt x="188" y="240" on="0"/>
        <pt x="196" y="267" on="1"/>
        <pt x="211" y="319" on="0"/>
        <pt x="272" y="404" on="0"/>
        <pt x="355" y="465" on="0"/>
        <pt x="467" y="512" on="0"/>
        <pt x="586" y="541" on="0"/>
        <pt x="733" y="560" on="0"/>
        <pt x="875" y="568" on="0"/>
        <pt x="959" y="569" on="1"/>
        <pt x="969" y="602" on="1"/>
        <pt x="980" y="639" on="0"/>
        <pt x="980" y="662" on="1"/>
        <pt x="980" y="709" on="0"/>
        <pt x="888" y="764" on="0"/>
        <pt x="770" y="764" on="1"/>
        <pt x="647" y="764" on="0"/>
        <pt x="473" y="723" on="1"/>
        <pt x="430" y="713" on="1"/>
        <pt x="435" y="906" on="1"/>
        <pt x="473" y="918" on="1"/>
        <pt x="659" y="981" on="0"/>
      </contour>
    </TTGlyph>
    <TTGlyph name="ae" xMin="189" yMin="-20" xMax="1840" yMax="981">
      <contour>
        <pt x="453" y="309" on="1"/>
        <pt x="450" y="300" on="0"/>
        <pt x="450" y="291" on="1"/>
        <pt x="450" y="251" on="0"/>
        <pt x="541" y="193" on="0"/>
        <pt x="608" y="193" on="1"/>
        <pt x="714" y="193" on="0"/>
        <pt x="815" y="262" on="1"/>
        <pt x="862" y="423" on="1"/>
        <pt x="738" y="421" on="0"/>
        <pt x="573" y="401" on="0"/>
        <pt x="492" y="366" on="0"/>
        <pt x="460" y="333" on="0"/>
      </contour>
      <contour>
        <pt x="1463" y="757" on="1"/>
        <pt x="1365" y="757" on="0"/>
        <pt x="1213" y="661" on="0"/>
        <pt x="1180" y="588" on="1"/>
        <pt x="1605" y="588" on="1"/>
        <pt x="1609" y="608" on="0"/>
        <pt x="1609" y="632" on="1"/>
        <pt x="1609" y="757" on="0"/>
      </contour>
      <contour>
        <pt x="473" y="921" on="1"/>
        <pt x="661" y="981" on="0"/>
        <pt x="849" y="981" on="1"/>
        <pt x="1081" y="981" on="0"/>
        <pt x="1148" y="835" on="1"/>
        <pt x="1241" y="903" on="0"/>
        <pt x="1454" y="981" on="0"/>
        <pt x="1557" y="981" on="1"/>
        <pt x="1840" y="981" on="0"/>
        <pt x="1840" y="704" on="1"/>
        <pt x="1840" y="593" on="0"/>
        <pt x="1792" y="423" on="1"/>
        <pt x="1780" y="382" on="1"/>
        <pt x="1113" y="382" on="1"/>
        <pt x="1113" y="371" on="1"/>
        <pt x="1113" y="293" on="0"/>
        <pt x="1268" y="194" on="0"/>
        <pt x="1397" y="194" on="1"/>
        <pt x="1482" y="194" on="0"/>
        <pt x="1602" y="228" on="1"/>
        <pt x="1647" y="240" on="1"/>
        <pt x="1636" y="51" on="1"/>
        <pt x="1600" y="39" on="1"/>
        <pt x="1427" y="-20" on="0"/>
        <pt x="1269" y="-20" on="1"/>
        <pt x="1159" y="-20" on="0"/>
        <pt x="974" y="45" on="0"/>
        <pt x="919" y="111" on="1"/>
        <pt x="748" y="-20" on="0"/>
        <pt x="510" y="-20" on="1"/>
        <pt x="372" y="-20" on="0"/>
        <pt x="189" y="109" on="0"/>
        <pt x="189" y="212" on="1"/>
        <pt x="189" y="240" on="0"/>
        <pt x="199" y="277" on="1"/>
        <pt x="233" y="396" on="0"/>
        <pt x="486" y="556" on="0"/>
        <pt x="687" y="573" on="1"/>
        <pt x="763" y="580" on="0"/>
        <pt x="907" y="582" on="1"/>
        <pt x="920" y="623" on="0"/>
        <pt x="920" y="655" on="1"/>
        <pt x="920" y="779" on="0"/>
        <pt x="747" y="779" on="1"/>
        <pt x="653" y="779" on="0"/>
        <pt x="488" y="740" on="1"/>
        <pt x="448" y="730" on="1"/>
        <pt x="432" y="908" on="1"/>
      </contour>
    </TTGlyph>
    <TTGlyph name="afii00208" xMin="157" yMin="548" xMax="1903" yMax="769">
      <contour>
        <pt x="221" y="769" on="1"/>
        <pt x="1903" y="769" on="1"/>
        <pt x="1839" y="548" on="1"/>
        <pt x="157" y="548" on="1"/>
      </contour>
    </TTGlyph>
    <TTGlyph name="agrave" xMin="188" yMin="-20" xMax="1307" yMax="1557">
      <contour>
        <pt x="862" y="981" on="1"/>
        <pt x="1239" y="981" on="0"/>
        <pt x="1239" y="751" on="1"/>
        <pt x="1239" y="700" on="0"/>
        <pt x="1219" y="628" on="1"/>
        <pt x="1039" y="0" on="1"/>
        <pt x="855" y="0" on="1"/>
        <pt x="846" y="65" on="1"/>
        <pt x="690" y="-20" on="0"/>
        <pt x="513" y="-20" on="1"/>
        <pt x="361" y="-20" on="0"/>
        <pt x="188" y="111" on="0"/>
        <pt x="188" y="208" on="1"/>
        <pt x="188" y="240" on="0"/>
        <pt x="196" y="267" on="1"/>
        <pt x="217" y="339" on="0"/>
        <pt x="319" y="447" on="0"/>
        <pt x="455" y="512" on="0"/>
        <pt x="647" y="552" on="0"/>
        <pt x="836" y="568" on="0"/>
        <pt x="955" y="569" on="1"/>
        <pt x="965" y="602" on="1"/>
        <pt x="975" y="635" on="0"/>
        <pt x="975" y="662" on="1"/>
        <pt x="975" y="710" on="0"/>
        <pt x="884" y="764" on="0"/>
        <pt x="767" y="764" on="1"/>
        <pt x="645" y="764" on="0"/>
        <pt x="472" y="723" on="1"/>
        <pt x="430" y="713" on="1"/>
        <pt x="435" y="906" on="1"/>
        <pt x="473" y="918" on="1"/>
        <pt x="658" y="981" on="0"/>
      </contour>
      <contour>
        <pt x="864" y="251" on="1"/>
        <pt x="902" y="384" on="1"/>
        <pt x="878" y="384" on="1"/>
        <pt x="675" y="384" on="0"/>
        <pt x="463" y="338" on="0"/>
        <pt x="448" y="285" on="1"/>
        <pt x="447" y="282" on="0"/>
        <pt x="447" y="275" on="1"/>
        <pt x="447" y="242" on="0"/>
        <pt x="547" y="191" on="0"/>
        <pt x="628" y="191" on="1"/>
        <pt x="752" y="191" on="0"/>
      </contour>
      <contour>
        <pt x="948" y="1557" on="1"/>
        <pt x="1307" y="1162" on="1"/>
        <pt x="1128" y="992" on="1"/>
        <pt x="728" y="1376" on="1"/>
      </contour>
    </TTGlyph>
    <TTGlyph name="amacron" xMin="188" yMin="-20" xMax="1329" yMax="1333">
      <contour>
        <pt x="644" y="1333" on="1"/>
        <pt x="1329" y="1333" on="1"/>
        <pt x="1269" y="1122" on="1"/>
        <pt x="584" y="1122" on="1"/>
      </contour>
      <contour>
        <pt x="864" y="251" on="1"/>
        <pt x="902" y="384" on="1"/>
        <pt x="878" y="384" on="1"/>
        <pt x="675" y="384" on="0"/>
        <pt x="462" y="338" on="0"/>
        <pt x="447" y="285" on="1"/>
        <pt x="446" y="282" on="0"/>
        <pt x="446" y="276" on="1"/>
        <pt x="446" y="244" on="0"/>
        <pt x="547" y="191" on="0"/>
        <pt x="628" y="191" on="1"/>
        <pt x="752" y="191" on="0"/>
      </contour>
      <contour>
        <pt x="661" y="982" on="0"/>
        <pt x="1063" y="982" on="0"/>
        <pt x="1239" y="863" on="0"/>
        <pt x="1239" y="753" on="1"/>
        <pt x="1239" y="697" on="0"/>
        <pt x="1219" y="629" on="1"/>
        <pt x="1039" y="0" on="1"/>
        <pt x="855" y="0" on="1"/>
        <pt x="846" y="65" on="1"/>
        <pt x="690" y="-20" on="0"/>
        <pt x="513" y="-20" on="1"/>
        <pt x="361" y="-20" on="0"/>
        <pt x="188" y="111" on="0"/>
        <pt x="188" y="208" on="1"/>
        <pt x="188" y="240" on="0"/>
        <pt x="196" y="267" on="1"/>
        <pt x="217" y="339" on="0"/>
        <pt x="319" y="447" on="0"/>
        <pt x="456" y="513" on="0"/>
        <pt x="647" y="553" on="0"/>
        <pt x="836" y="569" on="0"/>
        <pt x="955" y="570" on="1"/>
        <pt x="965" y="602" on="1"/>
        <pt x="975" y="635" on="0"/>
        <pt x="975" y="662" on="1"/>
        <pt x="975" y="710" on="0"/>
        <pt x="884" y="764" on="0"/>
        <pt x="767" y="764" on="1"/>
        <pt x="645" y="764" on="0"/>
        <pt x="472" y="723" on="1"/>
        <pt x="430" y="713" on="1"/>
        <pt x="435" y="906" on="1"/>
        <pt x="473" y="918" on="1"/>
      </contour>
    </TTGlyph>
    <TTGlyph name="ampersand" xMin="203" yMin="-88" xMax="1738" yMax="1481">
      <contour>
        <pt x="1418" y="1175" on="1"/>
        <pt x="1407" y="1138" on="0"/>
        <pt x="1365" y="1063" on="0"/>
        <pt x="1322" y="1006" on="0"/>
        <pt x="1247" y="937" on="0"/>
        <pt x="1198" y="895" on="0"/>
        <pt x="1101" y="828" on="0"/>
        <pt x="1059" y="801" on="0"/>
        <pt x="1008" y="768" on="1"/>
        <pt x="1208" y="461" on="1"/>
        <pt x="1631" y="813" on="1"/>
        <pt x="1738" y="661" on="1"/>
        <pt x="1313" y="302" on="1"/>
        <pt x="1536" y="-41" on="1"/>
        <pt x="1221" y="-41" on="1"/>
        <pt x="1096" y="143" on="1"/>
        <pt x="1034" y="97" on="0"/>
        <pt x="927" y="29" on="0"/>
        <pt x="775" y="-47" on="0"/>
        <pt x="601" y="-88" on="0"/>
        <pt x="511" y="-88" on="1"/>
        <pt x="362" y="-88" on="0"/>
        <pt x="203" y="54" on="0"/>
        <pt x="203" y="171" on="1"/>
        <pt x="203" y="222" on="0"/>
        <pt x="220" y="282" on="1"/>
        <pt x="241" y="354" on="0"/>
        <pt x="325" y="492" on="0"/>
        <pt x="413" y="590" on="0"/>
        <pt x="535" y="690" on="0"/>
        <pt x="613" y="743" on="0"/>
        <pt x="664" y="775" on="1"/>
        <pt x="619" y="841" on="0"/>
        <pt x="569" y="957" on="0"/>
        <pt x="569" y="1025" on="1"/>
        <pt x="569" y="1074" on="0"/>
        <pt x="583" y="1123" on="1"/>
        <pt x="629" y="1281" on="0"/>
        <pt x="945" y="1481" on="0"/>
        <pt x="1132" y="1481" on="1"/>
        <pt x="1271" y="1481" on="0"/>
        <pt x="1430" y="1356" on="0"/>
        <pt x="1430" y="1254" on="1"/>
        <pt x="1430" y="1217" on="0"/>
      </contour>
      <contour>
        <pt x="1050" y="1256" on="1"/>
        <pt x="975" y="1256" on="0"/>
        <pt x="845" y="1170" on="0"/>
        <pt x="829" y="1114" on="1"/>
        <pt x="824" y="1096" on="0"/>
        <pt x="824" y="1083" on="1"/>
        <pt x="824" y="1068" on="0"/>
        <pt x="831" y="1040" on="0"/>
        <pt x="851" y="1005" on="0"/>
        <pt x="864" y="985" on="0"/>
        <pt x="898" y="936" on="0"/>
        <pt x="905" y="926" on="1"/>
        <pt x="1056" y="1021" on="0"/>
        <pt x="1093" y="1051" on="1"/>
        <pt x="1148" y="1097" on="0"/>
        <pt x="1161" y="1143" on="1"/>
        <pt x="1164" y="1155" on="0"/>
        <pt x="1164" y="1168" on="1"/>
        <pt x="1164" y="1205" on="0"/>
        <pt x="1106" y="1256" on="0"/>
      </contour>
      <contour>
        <pt x="774" y="616" on="1"/>
        <pt x="710" y="575" on="0"/>
        <pt x="636" y="522" on="0"/>
        <pt x="547" y="447" on="0"/>
        <pt x="494" y="370" on="0"/>
        <pt x="482" y="327" on="1"/>
        <pt x="475" y="303" on="0"/>
        <pt x="475" y="278" on="1"/>
        <pt x="475" y="218" on="0"/>
        <pt x="559" y="141" on="0"/>
        <pt x="633" y="141" on="1"/>
        <pt x="717" y="141" on="0"/>
        <pt x="890" y="228" on="0"/>
        <pt x="988" y="300" on="1"/>
      </contour>
    </TTGlyph>
    <TTGlyph name="aogonek" xMin="189" yMin="-543" xMax="1243" yMax="969">
      <contour>
        <pt x="918" y="423" on="1"/>
        <pt x="912" y="423" on="0"/>
        <pt x="859" y="424" on="0"/>
        <pt x="839" y="424" on="1"/>
        <pt x="486" y="424" on="0"/>
        <pt x="453" y="304" on="1"/>
        <pt x="451" y="299" on="0"/>
        <pt x="451" y="288" on="1"/>
        <pt x="451" y="251" on="0"/>
        <pt x="540" y="199" on="0"/>
        <pt x="620" y="199" on="1"/>
        <pt x="742" y="199" on="0"/>
        <pt x="871" y="258" on="1"/>
      </contour>
      <contour>
        <pt x="767" y="752" on="1"/>
        <pt x="643" y="752" on="0"/>
        <pt x="469" y="711" on="1"/>
        <pt x="427" y="700" on="1"/>
        <pt x="431" y="894" on="1"/>
        <pt x="470" y="906" on="1"/>
        <pt x="656" y="969" on="0"/>
        <pt x="862" y="969" on="1"/>
        <pt x="1243" y="969" on="0"/>
        <pt x="1243" y="739" on="1"/>
        <pt x="1243" y="688" on="0"/>
        <pt x="1223" y="616" on="1"/>
        <pt x="1038" y="-29" on="1"/>
        <pt x="1013" y="-40" on="1"/>
        <pt x="986" y="-52" on="0"/>
        <pt x="890" y="-93" on="0"/>
        <pt x="834" y="-118" on="0"/>
        <pt x="755" y="-156" on="0"/>
        <pt x="707" y="-185" on="0"/>
        <pt x="657" y="-222" on="0"/>
        <pt x="629" y="-259" on="0"/>
        <pt x="623" y="-279" on="1"/>
        <pt x="620" y="-288" on="0"/>
        <pt x="620" y="-295" on="1"/>
        <pt x="620" y="-316" on="0"/>
        <pt x="655" y="-340" on="0"/>
        <pt x="685" y="-340" on="1"/>
        <pt x="738" y="-340" on="0"/>
        <pt x="846" y="-289" on="1"/>
        <pt x="887" y="-270" on="1"/>
        <pt x="931" y="-421" on="1"/>
        <pt x="892" y="-442" on="1"/>
        <pt x="710" y="-543" on="0"/>
        <pt x="565" y="-543" on="1"/>
        <pt x="457" y="-543" on="0"/>
        <pt x="326" y="-445" on="0"/>
        <pt x="326" y="-367" on="1"/>
        <pt x="326" y="-275" on="0"/>
        <pt x="522" y="-71" on="0"/>
        <pt x="723" y="16" on="1"/>
        <pt x="606" y="-17" on="0"/>
        <pt x="502" y="-17" on="1"/>
        <pt x="353" y="-17" on="0"/>
        <pt x="189" y="113" on="0"/>
        <pt x="189" y="209" on="1"/>
        <pt x="189" y="317" on="0"/>
        <pt x="393" y="506" on="0"/>
        <pt x="580" y="541" on="1"/>
        <pt x="724" y="565" on="0"/>
        <pt x="960" y="567" on="1"/>
        <pt x="966" y="589" on="1"/>
        <pt x="977" y="626" on="0"/>
        <pt x="977" y="649" on="1"/>
        <pt x="977" y="697" on="0"/>
        <pt x="885" y="752" on="0"/>
      </contour>
    </TTGlyph>
    <TTGlyph name="aring" xMin="188" yMin="-20" xMax="1310" yMax="1573">
      <contour>
        <pt x="1039" y="1400" on="1"/>
        <pt x="980" y="1400" on="0"/>
        <pt x="900" y="1314" on="0"/>
        <pt x="900" y="1266" on="1"/>
        <pt x="900" y="1235" on="0"/>
        <pt x="940" y="1194" on="0"/>
        <pt x="980" y="1194" on="1"/>
        <pt x="1023" y="1194" on="0"/>
        <pt x="1101" y="1257" on="0"/>
        <pt x="1113" y="1298" on="1"/>
        <pt x="1117" y="1310" on="0"/>
        <pt x="1117" y="1325" on="1"/>
        <pt x="1117" y="1357" on="0"/>
        <pt x="1074" y="1400" on="0"/>
      </contour>
      <contour>
        <pt x="1087" y="1573" on="1"/>
        <pt x="1191" y="1573" on="0"/>
        <pt x="1310" y="1464" on="0"/>
        <pt x="1310" y="1376" on="1"/>
        <pt x="1310" y="1338" on="0"/>
        <pt x="1298" y="1298" on="1"/>
        <pt x="1264" y="1181" on="0"/>
        <pt x="1057" y="1021" on="0"/>
        <pt x="930" y="1021" on="1"/>
        <pt x="822" y="1021" on="0"/>
        <pt x="690" y="1138" on="0"/>
        <pt x="690" y="1228" on="1"/>
        <pt x="690" y="1264" on="0"/>
        <pt x="700" y="1298" on="1"/>
        <pt x="732" y="1412" on="0"/>
        <pt x="957" y="1573" on="0"/>
      </contour>
      <contour>
        <pt x="870" y="251" on="1"/>
        <pt x="908" y="384" on="1"/>
        <pt x="883" y="384" on="1"/>
        <pt x="677" y="384" on="0"/>
        <pt x="463" y="338" on="0"/>
        <pt x="448" y="285" on="1"/>
        <pt x="447" y="282" on="0"/>
        <pt x="447" y="275" on="1"/>
        <pt x="447" y="242" on="0"/>
        <pt x="549" y="191" on="0"/>
        <pt x="631" y="191" on="1"/>
        <pt x="757" y="191" on="0"/>
      </contour>
      <contour>
        <pt x="865" y="981" on="1"/>
        <pt x="1245" y="981" on="0"/>
        <pt x="1245" y="751" on="1"/>
        <pt x="1245" y="700" on="0"/>
        <pt x="1225" y="628" on="1"/>
        <pt x="1045" y="0" on="1"/>
        <pt x="861" y="0" on="1"/>
        <pt x="851" y="65" on="1"/>
        <pt x="693" y="-20" on="0"/>
        <pt x="516" y="-20" on="1"/>
        <pt x="363" y="-20" on="0"/>
        <pt x="188" y="112" on="0"/>
        <pt x="188" y="209" on="1"/>
        <pt x="188" y="240" on="0"/>
        <pt x="196" y="267" on="1"/>
        <pt x="217" y="339" on="0"/>
        <pt x="320" y="447" on="0"/>
        <pt x="457" y="512" on="0"/>
        <pt x="650" y="552" on="0"/>
        <pt x="841" y="568" on="0"/>
        <pt x="961" y="569" on="1"/>
        <pt x="970" y="602" on="1"/>
        <pt x="980" y="635" on="0"/>
        <pt x="980" y="661" on="1"/>
        <pt x="980" y="709" on="0"/>
        <pt x="888" y="764" on="0"/>
        <pt x="770" y="764" on="1"/>
        <pt x="647" y="764" on="0"/>
        <pt x="473" y="723" on="1"/>
        <pt x="430" y="713" on="1"/>
        <pt x="435" y="906" on="1"/>
        <pt x="473" y="918" on="1"/>
        <pt x="659" y="981" on="0"/>
      </contour>
    </TTGlyph>
    <TTGlyph name="asciicircum" xMin="741" yMin="1108" xMax="1397" yMax="1601">
      <contour>
        <pt x="1185" y="1601" on="1"/>
        <pt x="1397" y="1253" on="1"/>
        <pt x="1204" y="1108" on="1"/>
        <pt x="1085" y="1302" on="1"/>
        <pt x="852" y="1109" on="1"/>
        <pt x="741" y="1244" on="1"/>
      </contour>
    </TTGlyph>
    <TTGlyph name="asciitilde" xMin="657" yMin="1195" xMax="1581" yMax="1592">
      <contour>
        <pt x="1278" y="1401" on="1"/>
        <pt x="1293" y="1401" on="0"/>
        <pt x="1328" y="1444" on="0"/>
        <pt x="1355" y="1496" on="0"/>
        <pt x="1373" y="1535" on="1"/>
        <pt x="1378" y="1547" on="0"/>
        <pt x="1381" y="1553" on="1"/>
        <pt x="1399" y="1592" on="1"/>
        <pt x="1581" y="1562" on="1"/>
        <pt x="1560" y="1520" on="1"/>
        <pt x="1556" y="1511" on="0"/>
        <pt x="1530" y="1457" on="0"/>
        <pt x="1516" y="1428" on="0"/>
        <pt x="1487" y="1374" on="0"/>
        <pt x="1465" y="1341" on="0"/>
        <pt x="1429" y="1293" on="0"/>
        <pt x="1398" y="1264" on="0"/>
        <pt x="1354" y="1230" on="0"/>
        <pt x="1310" y="1211" on="0"/>
        <pt x="1255" y="1198" on="0"/>
        <pt x="1226" y="1198" on="1"/>
        <pt x="1175" y="1200" on="0"/>
        <pt x="1093" y="1240" on="0"/>
        <pt x="1044" y="1293" on="0"/>
        <pt x="1006" y="1345" on="0"/>
        <pt x="974" y="1381" on="0"/>
        <pt x="960" y="1381" on="1"/>
        <pt x="947" y="1381" on="0"/>
        <pt x="922" y="1359" on="0"/>
        <pt x="890" y="1301" on="0"/>
        <pt x="877" y="1274" on="0"/>
        <pt x="858" y="1234" on="1"/>
        <pt x="840" y="1195" on="1"/>
        <pt x="657" y="1221" on="1"/>
        <pt x="678" y="1264" on="1"/>
        <pt x="682" y="1272" on="0"/>
        <pt x="708" y="1328" on="0"/>
        <pt x="722" y="1355" on="0"/>
        <pt x="752" y="1410" on="0"/>
        <pt x="773" y="1442" on="0"/>
        <pt x="809" y="1490" on="0"/>
        <pt x="840" y="1519" on="0"/>
        <pt x="884" y="1553" on="0"/>
        <pt x="928" y="1571" on="0"/>
        <pt x="983" y="1584" on="0"/>
        <pt x="1012" y="1584" on="1"/>
        <pt x="1063" y="1582" on="0"/>
        <pt x="1145" y="1542" on="0"/>
        <pt x="1195" y="1489" on="0"/>
        <pt x="1233" y="1437" on="0"/>
        <pt x="1264" y="1401" on="0"/>
      </contour>
    </TTGlyph>
    <TTGlyph name="asterisk" xMin="370" yMin="511" xMax="1392" yMax="1462">
      <contour>
        <pt x="889" y="1462" on="1"/>
        <pt x="1145" y="1462" on="1"/>
        <pt x="1050" y="1181" on="1"/>
        <pt x="1328" y="1335" on="1"/>
        <pt x="1392" y="1112" on="1"/>
        <pt x="1106" y="987" on="1"/>
        <pt x="1320" y="860" on="1"/>
        <pt x="1128" y="637" on="1"/>
        <pt x="938" y="791" on="1"/>
        <pt x="873" y="511" on="1"/>
        <pt x="617" y="511" on="1"/>
        <pt x="712" y="791" on="1"/>
        <pt x="434" y="637" on="1"/>
        <pt x="370" y="860" on="1"/>
        <pt x="657" y="987" on="1"/>
        <pt x="442" y="1112" on="1"/>
        <pt x="634" y="1335" on="1"/>
        <pt x="824" y="1181" on="1"/>
      </contour>
    </TTGlyph>
    <TTGlyph name="at" xMin="207" yMin="-468" xMax="2218" yMax="1440">
      <contour>
        <pt x="1551" y="959" on="1"/>
        <pt x="1583" y="1009" on="1"/>
        <pt x="1766" y="1009" on="1"/>
        <pt x="1549" y="252" on="1"/>
        <pt x="1523" y="163" on="0"/>
        <pt x="1523" y="122" on="1"/>
        <pt x="1523" y="61" on="0"/>
        <pt x="1582" y="61" on="1"/>
        <pt x="1606" y="61" on="0"/>
        <pt x="1675" y="101" on="0"/>
        <pt x="1766" y="192" on="0"/>
        <pt x="1863" y="381" on="0"/>
        <pt x="1900" y="510" on="1"/>
        <pt x="1948" y="675" on="0"/>
        <pt x="1948" y="800" on="1"/>
        <pt x="1948" y="891" on="0"/>
        <pt x="1896" y="1031" on="0"/>
        <pt x="1781" y="1140" on="0"/>
        <pt x="1582" y="1197" on="0"/>
        <pt x="1443" y="1197" on="1"/>
        <pt x="1324" y="1197" on="0"/>
        <pt x="1108" y="1144" on="0"/>
        <pt x="939" y="1054" on="0"/>
        <pt x="790" y="929" on="0"/>
        <pt x="682" y="795" on="0"/>
        <pt x="592" y="642" on="0"/>
        <pt x="535" y="506" on="0"/>
        <pt x="516" y="438" on="1"/>
        <pt x="480" y="310" on="0"/>
        <pt x="480" y="206" on="1"/>
        <pt x="480" y="-9" on="0"/>
        <pt x="743" y="-244" on="0"/>
        <pt x="947" y="-244" on="1"/>
        <pt x="1094" y="-244" on="0"/>
        <pt x="1239" y="-181" on="1"/>
        <pt x="1280" y="-164" on="1"/>
        <pt x="1326" y="-354" on="1"/>
        <pt x="1284" y="-373" on="1"/>
        <pt x="1073" y="-468" on="0"/>
        <pt x="858" y="-468" on="1"/>
        <pt x="804" y="-468" on="0"/>
        <pt x="693" y="-456" on="0"/>
        <pt x="562" y="-421" on="0"/>
        <pt x="446" y="-368" on="0"/>
        <pt x="335" y="-280" on="0"/>
        <pt x="255" y="-166" on="0"/>
        <pt x="207" y="-2" on="0"/>
        <pt x="207" y="95" on="1"/>
        <pt x="207" y="234" on="0"/>
        <pt x="256" y="404" on="1"/>
        <pt x="287" y="511" on="0"/>
        <pt x="371" y="712" on="0"/>
        <pt x="498" y="922" on="0"/>
        <pt x="651" y="1102" on="0"/>
        <pt x="857" y="1262" on="0"/>
        <pt x="1092" y="1375" on="0"/>
        <pt x="1390" y="1440" on="0"/>
        <pt x="1555" y="1440" on="1"/>
        <pt x="2218" y="1440" on="0"/>
        <pt x="2218" y="907" on="1"/>
        <pt x="2218" y="744" on="0"/>
        <pt x="2156" y="530" on="1"/>
        <pt x="2109" y="366" on="0"/>
        <pt x="1969" y="112" on="0"/>
        <pt x="1829" y="-33" on="0"/>
        <pt x="1672" y="-125" on="0"/>
        <pt x="1553" y="-156" on="0"/>
        <pt x="1500" y="-156" on="1"/>
        <pt x="1413" y="-156" on="0"/>
        <pt x="1297" y="-73" on="0"/>
        <pt x="1279" y="-1" on="1"/>
        <pt x="1141" y="-61" on="0"/>
        <pt x="1012" y="-61" on="1"/>
        <pt x="838" y="-61" on="0"/>
        <pt x="664" y="130" on="0"/>
        <pt x="664" y="283" on="1"/>
        <pt x="664" y="376" on="0"/>
        <pt x="727" y="578" on="0"/>
        <pt x="849" y="764" on="0"/>
        <pt x="1010" y="913" on="0"/>
        <pt x="1226" y="1003" on="0"/>
        <pt x="1342" y="1003" on="1"/>
        <pt x="1454" y="1003" on="0"/>
      </contour>
      <contour>
        <pt x="1306" y="799" on="1"/>
        <pt x="1179" y="799" on="0"/>
        <pt x="975" y="629" on="0"/>
        <pt x="930" y="475" on="1"/>
        <pt x="911" y="409" on="0"/>
        <pt x="911" y="354" on="1"/>
        <pt x="911" y="255" on="0"/>
        <pt x="1027" y="150" on="0"/>
        <pt x="1125" y="150" on="1"/>
        <pt x="1206" y="150" on="0"/>
        <pt x="1293" y="186" on="1"/>
        <pt x="1460" y="767" on="1"/>
        <pt x="1384" y="799" on="0"/>
      </contour>
    </TTGlyph>
</ttFont>
